<svg xmlns="http://www.w3.org/2000/svg" width="30.246" height="55.277" viewBox="0 0 30.246 55.277"><g transform="translate(-872.119 -306.238)"><path d="M912.451,358.924c.033-.011.034-.037,0,0Z" transform="translate(-27.753 -36.241)" fill="#dfd5d5"/><path d="M915.449,404.735a.208.208,0,0,0,.018.017c.058-.029.109-.053.15-.069Z" transform="translate(-29.816 -67.741)" fill="#dfd5d5"/><path d="M923.429,415.292l0,.03C923.46,415.295,923.49,415.273,923.429,415.292Z" transform="translate(-35.307 -75.037)" fill="#dfd5d5"/><path d="M893.428,383.9a.067.067,0,0,0-.069-.03A.177.177,0,0,1,893.428,383.9Z" transform="translate(-14.615 -53.422)" fill="#dfd5d5"/><path d="M931,343.727l-.011.015a.422.422,0,0,1,.058,0Z" transform="translate(-40.507 -25.797)" fill="#dfd5d5"/><path d="M930.4,343.894c-.1.017-.033-.085-.009-.119a.276.276,0,0,0-.272.138C930.173,343.989,930.317,343.863,930.4,343.894Z" transform="translate(-39.908 -25.829)" fill="#dfd5d5"/><path d="M965.334,316.947l-.009.056A.155.155,0,0,0,965.334,316.947Z" transform="translate(-64.136 -7.369)" fill="#dfd5d5"/><path d="M883.2,395.147c-.02-.009-.039-.022-.059-.029A.064.064,0,0,0,883.2,395.147Z" transform="translate(-7.586 -61.16)" fill="#dfd5d5"/><path d="M959.67,320.82l.073.136A.409.409,0,0,0,959.67,320.82Z" transform="translate(-60.245 -10.034)" fill="#dfd5d5"/><path d="M915.987,404.641l.064-.019A.286.286,0,0,0,915.987,404.641Z" transform="translate(-30.186 -67.699)" fill="#dfd5d5"/><path d="M931.257,424.4a.41.41,0,0,0-.071.094.033.033,0,0,1,.006.009Z" transform="translate(-40.645 -81.311)" fill="#dfd5d5"/><path d="M966.922,474.348a.328.328,0,0,0,.037-.048l-.132.018A.151.151,0,0,0,966.922,474.348Z" transform="translate(-65.17 -115.646)" fill="#dfd5d5"/><path d="M940.075,436.885a.248.248,0,0,0,.051-.023,1.615,1.615,0,0,0-.38-.494l-.15.114Z" transform="translate(-46.432 -89.544)" fill="#dfd5d5"/><path d="M894.28,354.466l-.1-.661c1.331,1.182,1.614,2.045,2.867,2.951l-.117-.006c.086.221.793-.263,1.689,2.229l-.027.026c.062.058.117.006.158.2l-.117-.466a2.646,2.646,0,0,1,.771.39.231.231,0,0,1-.062.2l.607.563-.007.351c.269.1.568-.338.816.352.089-.429.385.1.461-.084-.009.055,0,.157-.007.244a3.39,3.39,0,0,0,1.151.766,13.8,13.8,0,0,1-.522-2.232c.313.481.133.08.146-.084l-.091.033c-.166-.307,0-.461-.07-.627a.307.307,0,0,0-.039.05l.037,0a.082.082,0,0,1-.074.052c-.032.036-.071.05-.124-.026l.029,0a1.615,1.615,0,0,1-.32-.374l.137-.129c-.433.059-.745-1.609-.965-1.865-.056-.41-.558-.517-.758-.908-.413-.535-.028-.434-.138-.792-.2-.39-.1.212-.227.1l-.152-.549c.216.2.191.006.208-.083-.274-.342-.489-1.083-.856-.927-.269-.555-.16-.658-.318-.857.007.109.076.274.021.327-.039-.286-.107-.055-.068.041-.365-.154-.769-1.838-1.123-1.614l.055-.051c-.282.147-.41.448-.705.379l-.013-.216-.269-.1c-.042-.192.075-.186.1-.212-.384-.206-.651-.743-.959-1.137l-.255.957c-.144-.44-.372-1.265-.627-1.143l.035-.377c-.18-.984-.572-.274-.682-.631l-.063-.519.283.313a4.586,4.586,0,0,1-.3-.99s-.007,0-.009,0a.071.071,0,0,1-.005.061l-.046-.038c-.147.066-.373-.024-.568-.249-.255-.339-.645-.428-.865-1.143l-.344.09-.207-.5.183-.169c.326.374,1.03.995,1.472,1.454l.091-.069c-.257-.277-.63-.518-.782-.718-.046-.123-.067-.528.21-.477l-.338-.006a7.46,7.46,0,0,1-1.579-2.063l-.014.169c-.231-.142-.461-.284-.361-.475a4.827,4.827,0,0,1-1.065-1.907l-.292.117c-.1-.133.054-.619-.3-.4l-.337-.174c-.139-.183-.357-.171-.41-.477h0v0a.553.553,0,0,1-.008-.06.138.138,0,0,0-.016.019c-.255-.467-.19.183-.467-.366.024-.281-.416.1-.563-.158l.113-.5c-.177-.547-.548-.326-1.063-.88a.531.531,0,0,1,.406-.782c-.508.02-.287.061-.721-.135.071-.158.127-.146.3-.172-.128-.413-.269-.079-.462-.3-.278.141-.694.392-.773.335l.009.147a1.158,1.158,0,0,1-.75-.686l.12-.092-.317-.231.125-.149-.417-.363.013.09a1.693,1.693,0,0,1-.534-.589l.084-.066c-.22-.729-.923-.846-1.493-1.409l.231-.071c-.026-.348-.3.173-.438-.139l.186-.194c-.453.029-.2-.323-.233-.558l-.2.306-.2-.323c-.192-.379.155-.486.331-.567l-.392-.016.191-.25c-.4.1-.1-.189-.48-.319.066-.1.177-.081.131-.2l-.72-.134.383.128-.362.276c-.5-.037-.3-.4-.576-.509l.222.042c-.373-.241-.247-.389-.339-.636-.011.113-.024.282-.186.195-.105-.077.07-.159.024-.282a.412.412,0,0,1-.654-.236.241.241,0,0,1,.1-.055c-.084-.019-.167.006-.2-.134l.3-.174-.4.041c-.041-.18-.378-.185-.2-.324l.111.021-.746-.927c.062-.065.13-.123.2-.184-.138.124-.14.069-.134.038s0-.054-.2.065c.094-.085.029-.1,0-.129s-.02-.063.251-.128c0-.047-.137-.064-.232-.133s-.139-.18.041-.216a1.344,1.344,0,0,0,.364.069.083.083,0,0,0,.045-.023l.082-.065c.049-.038.106-.077.156-.11l1.1-1.152c.353-.367.711-.731,1.164-1.159.966.047,1.36-1.283,2.21-1.485l.029-.327c.66-.008,1.025-.877,1.851-1.021a1.237,1.237,0,0,1,.168-.313c-.034.011-.1,0-.209-.11.236-.041.5-.409.661-.142l-.024.058c.161.267.431-.5.783-.432l-.3-.188.357-.2-.048.116c.963-1.644,2.231-1.275,3.147-2.8.042.421.146-.347.4-.043.632.15.552-.548.745-.859a.131.131,0,0,1-.025-.073l.506-.319c.016.615.094-.59.088-.053,1.469-.632,2.863-2.153,4.408-3.093l-.141-.056c.38-.254.741-.719,1.141-.762s.41-.716.505-.813c.171-.405.712-.259.568-.179.288-.293.319-.888.887-1.068.409.225.98-1.255,1.28-.881l-.019-.036c.779-.162.98-1.029,1.785-1.25a.315.315,0,0,1,.007.079l.394-2.111-1.319-1.011-1.875-.219-2.8,2.451-2.676,1.37-5.67,4.461-.2.6c-1.513.345-2.532,2.015-4.024,2.569l.161.268c-.333.273-.425.1-.543.121-1.582,1.228-3.135,2.542-4.683,3.78-.774.619-1.547,1.219-2.321,1.78l-.606.434-.344.256c-.15.117-.327.259-.479.4a6.475,6.475,0,0,0-1.548,1.91,2.952,2.952,0,0,0-.516,1.472c-.07.619.014,1.222-.023,1.486a7.2,7.2,0,0,0,.859,1.435c.168.223.35.436.537.644.094.1.189.206.286.306l.146.151.123.123a18.056,18.056,0,0,1,1.235,1.318l-.055-.009.419.364a.069.069,0,0,1-.057.065c.625.27,1.091,1.175,1.527,1.81l-.055-.01c2.979,3.3,6.209,5.937,8.887,9.468,1.021,1.849,3.155,3.125,4.443,5.138C890.484,350.921,893.887,354.256,894.28,354.466Z" transform="translate(0 0)" fill="#dfd5d5"/><path d="M959.265,476.419l-.013-.012C959.156,476.5,959.211,476.483,959.265,476.419Z" transform="translate(-59.921 -117.096)" fill="#dfd5d5"/><path d="M946.413,445.116l.019.025.056-.211Z" transform="translate(-51.123 -95.436)" fill="#dfd5d5"/><path d="M959.929,459.668c-.162-.235-.194-.224-.206-.159A.419.419,0,0,0,959.929,459.668Z" transform="translate(-60.281 -105.44)" fill="#dfd5d5"/><path d="M964.864,480.737c.094.116.112.022.117-.1l-.192-.173C964.823,480.545,964.829,480.653,964.864,480.737Z" transform="translate(-63.767 -119.887)" fill="#dfd5d5"/><path d="M967.889,475.912l.109-.038C967.92,475.827,967.894,475.856,967.889,475.912Z" transform="translate(-65.901 -116.713)" fill="#dfd5d5"/></g></svg>