<svg xmlns="http://www.w3.org/2000/svg" width="30.246" height="55.277" viewBox="0 0 30.246 55.277"><g transform="translate(0)"><path d="M912.476,358.924c-.033-.011-.034-.037,0,0Z" transform="translate(-894.809 -342.479)" fill="#dfd5d5"/><path d="M915.617,404.735a.208.208,0,0,1-.018.017c-.058-.029-.109-.053-.15-.069Z" transform="translate(-898.884 -373.979)" fill="#dfd5d5"/><path d="M923.465,415.292l0,.03C923.434,415.295,923.4,415.273,923.465,415.292Z" transform="translate(-909.221 -381.275)" fill="#dfd5d5"/><path d="M893.359,383.9a.067.067,0,0,1,.069-.03A.177.177,0,0,0,893.359,383.9Z" transform="translate(-869.806 -359.66)" fill="#dfd5d5"/><path d="M931.033,343.727l.011.015a.422.422,0,0,0-.058,0Z" transform="translate(-919.157 -332.035)" fill="#dfd5d5"/><path d="M930.115,343.894c.1.017.033-.085.009-.119a.276.276,0,0,1,.272.138C930.337,343.989,930.194,343.863,930.115,343.894Z" transform="translate(-918.238 -332.067)" fill="#dfd5d5"/><path d="M965.325,316.947l.009.056A.155.155,0,0,1,965.325,316.947Z" transform="translate(-964.157 -313.607)" fill="#dfd5d5"/><path d="M883.143,395.147c.02-.009.039-.022.059-.029A.064.064,0,0,1,883.143,395.147Z" transform="translate(-856.393 -367.398)" fill="#dfd5d5"/><path d="M959.743,320.82l-.073.136A.409.409,0,0,1,959.743,320.82Z" transform="translate(-956.802 -316.272)" fill="#dfd5d5"/><path d="M916.051,404.641l-.064-.019A.286.286,0,0,1,916.051,404.641Z" transform="translate(-899.486 -373.937)" fill="#dfd5d5"/><path d="M931.186,424.4a.41.41,0,0,1,.071.094.033.033,0,0,0-.006.009Z" transform="translate(-919.433 -387.549)" fill="#dfd5d5"/><path d="M966.864,474.348a.328.328,0,0,1-.037-.048l.132.018A.151.151,0,0,1,966.864,474.348Z" transform="translate(-966.25 -421.884)" fill="#dfd5d5"/><path d="M939.647,436.885a.248.248,0,0,1-.051-.023,1.615,1.615,0,0,1,.38-.494l.15.114Z" transform="translate(-930.925 -395.782)" fill="#dfd5d5"/><path d="M880.2,354.466l.1-.661c-1.331,1.182-1.614,2.045-2.867,2.951l.117-.006c-.086.221-.793-.263-1.689,2.229l.027.026c-.062.058-.117.006-.158.2l.117-.466a2.646,2.646,0,0,0-.771.39.231.231,0,0,0,.062.2l-.607.563.007.351c-.269.1-.568-.338-.816.352-.089-.429-.385.1-.461-.084.009.055,0,.157.007.244a3.39,3.39,0,0,1-1.151.766,13.8,13.8,0,0,0,.522-2.232c-.313.481-.133.08-.146-.084l.091.033c.166-.307,0-.461.07-.627a.307.307,0,0,1,.039.05l-.037,0a.082.082,0,0,0,.074.052c.032.036.071.05.124-.026l-.029,0a1.615,1.615,0,0,0,.32-.374l-.137-.129c.433.059.745-1.609.965-1.865.056-.41.558-.517.758-.908.413-.535.028-.434.138-.792.2-.39.1.212.227.1l.152-.549c-.216.2-.191.006-.208-.083.274-.342.489-1.083.856-.927.269-.555.16-.658.318-.857-.007.109-.076.274-.021.327.039-.286.107-.055.068.041.365-.154.769-1.838,1.123-1.614l-.055-.051c.282.147.41.448.705.379l.013-.216.269-.1c.042-.192-.075-.186-.1-.212.384-.206.651-.743.959-1.137l.255.957c.144-.44.372-1.265.627-1.143l-.035-.377c.18-.984.572-.274.682-.631l.063-.519-.283.313a4.586,4.586,0,0,0,.3-.99s.007,0,.009,0a.071.071,0,0,0,.005.061l.046-.038c.147.066.373-.024.568-.249.255-.339.645-.428.865-1.143l.344.09.207-.5-.183-.169c-.326.374-1.03.995-1.472,1.454l-.091-.069c.257-.277.63-.518.782-.718.046-.123.067-.528-.21-.477l.338-.006a7.46,7.46,0,0,0,1.579-2.063l.014.169c.231-.142.461-.284.361-.475a4.827,4.827,0,0,0,1.065-1.907l.292.117c.1-.133-.054-.619.3-.4l.337-.174c.139-.183.357-.171.41-.477h0v0a.553.553,0,0,0,.008-.06.138.138,0,0,1,.016.019c.255-.467.19.183.467-.366-.024-.281.416.1.563-.158l-.113-.5c.177-.547.548-.326,1.063-.88a.531.531,0,0,0-.406-.782c.508.02.287.061.721-.135-.071-.158-.127-.146-.3-.172.128-.413.269-.079.462-.3.278.141.694.392.773.335l-.009.147a1.158,1.158,0,0,0,.75-.686l-.12-.092.317-.231-.125-.149.417-.363-.013.09a1.693,1.693,0,0,0,.534-.589l-.084-.066c.22-.729.923-.846,1.493-1.409l-.231-.071c.026-.348.3.173.438-.139l-.186-.194c.453.029.2-.323.233-.558l.2.306.2-.323c.192-.379-.155-.486-.331-.567l.392-.016-.191-.25c.4.1.1-.189.48-.319-.066-.1-.177-.081-.131-.2l.72-.134-.383.128.362.276c.5-.037.3-.4.576-.509l-.222.042c.373-.241.247-.389.339-.636.011.113.024.282.186.195.105-.077-.07-.159-.024-.282a.412.412,0,0,0,.654-.236.241.241,0,0,0-.1-.055c.084-.019.167.006.2-.134l-.3-.174.4.041c.041-.18.378-.185.2-.324l-.111.021.746-.927c-.062-.065-.13-.123-.2-.184.138.124.14.069.134.038s0-.054.2.065c-.094-.085-.029-.1,0-.129s.02-.063-.251-.128c0-.047.137-.064.232-.133s.139-.18-.041-.216a1.344,1.344,0,0,1-.364.069.083.083,0,0,1-.045-.023l-.082-.065c-.049-.038-.106-.077-.156-.11l-1.1-1.152c-.353-.367-.711-.731-1.164-1.159-.966.047-1.36-1.283-2.21-1.485l-.029-.327c-.66-.008-1.025-.877-1.851-1.021a1.237,1.237,0,0,0-.168-.313c.034.011.1,0,.209-.11-.236-.041-.5-.409-.661-.142l.024.058c-.161.267-.431-.5-.783-.432l.3-.188-.357-.2.048.116c-.963-1.644-2.231-1.275-3.147-2.8-.042.421-.146-.347-.4-.043-.632.15-.552-.548-.745-.859a.131.131,0,0,0,.025-.073l-.506-.319c-.016.615-.094-.59-.088-.053-1.469-.632-2.863-2.153-4.408-3.093l.141-.056c-.38-.254-.741-.719-1.141-.762s-.41-.716-.505-.813c-.171-.405-.712-.259-.568-.179-.288-.293-.319-.888-.887-1.068-.409.225-.98-1.255-1.28-.881l.019-.036c-.779-.162-.98-1.029-1.785-1.25a.315.315,0,0,0-.007.079l-.394-2.111,1.319-1.011,1.875-.219,2.8,2.451,2.676,1.37,5.67,4.461.2.6c1.513.345,2.532,2.015,4.024,2.569l-.161.268c.333.273.425.1.543.121,1.582,1.228,3.135,2.542,4.683,3.78.774.619,1.547,1.219,2.321,1.78l.606.434.344.256c.15.117.327.259.479.4a6.474,6.474,0,0,1,1.548,1.91,2.952,2.952,0,0,1,.516,1.472c.07.619-.014,1.222.023,1.486a7.2,7.2,0,0,1-.859,1.435c-.168.223-.35.436-.537.644-.094.1-.189.206-.286.306l-.146.151-.123.123a18.056,18.056,0,0,0-1.235,1.318l.055-.009-.419.364a.069.069,0,0,0,.057.065c-.625.27-1.091,1.175-1.527,1.81l.055-.01c-2.979,3.3-6.209,5.937-8.887,9.468-1.021,1.849-3.155,3.125-4.443,5.138C884,350.921,880.6,354.256,880.2,354.466Z" transform="translate(-872.119 -306.238)" fill="#dfd5d5"/><path d="M959.2,476.419l.013-.012C959.308,476.5,959.253,476.483,959.2,476.419Z" transform="translate(-956.177 -423.334)" fill="#dfd5d5"/><path d="M946.488,445.116l-.019.025-.056-.211Z" transform="translate(-939.413 -401.674)" fill="#dfd5d5"/><path d="M959.723,459.668c.162-.235.194-.224.206-.159A.419.419,0,0,1,959.723,459.668Z" transform="translate(-957.005 -411.678)" fill="#dfd5d5"/><path d="M964.906,480.737c-.094.116-.112.022-.117-.1l.192-.173C964.947,480.545,964.941,480.653,964.906,480.737Z" transform="translate(-963.637 -426.125)" fill="#dfd5d5"/><path d="M968,475.912l-.109-.038C967.968,475.827,967.993,475.856,968,475.912Z" transform="translate(-967.621 -422.951)" fill="#dfd5d5"/></g></svg>