<svg xmlns="http://www.w3.org/2000/svg" width="87.711" height="81.869" viewBox="0 0 87.711 81.869"><path d="M723.958,410.437c0-.105-.034-.151,0,0Z" transform="translate(-636.672 -378.405)" fill="#dfd5d5"/><path d="M660.116,472.1l-.077.013a1.693,1.693,0,0,1-.133.218Z" transform="translate(-623.779 -390.84)" fill="#dfd5d5"/><path d="M643.756,470.13l-.072-.054C643.672,470.123,643.638,470.161,643.756,470.13Z" transform="translate(-620.51 -390.432)" fill="#dfd5d5"/><path d="M692.078,457.851a.324.324,0,0,0,.151-.136A1.007,1.007,0,0,1,692.078,457.851Z" transform="translate(-630.257 -387.943)" fill="#dfd5d5"/><path d="M709.786,385.837l.044.033c-.021-.042-.045-.081-.063-.129Z" transform="translate(-633.818 -373.452)" fill="#dfd5d5"/><path d="M710.075,385.945c.157.235-.132.029-.229-.043a1.8,1.8,0,0,0,.607.687C710.538,386.5,710.11,386.106,710.075,385.945Z" transform="translate(-633.834 -373.484)" fill="#dfd5d5"/><path d="M662.849,370.4l.12-.048A.468.468,0,0,0,662.849,370.4Z" transform="translate(-624.372 -370.354)" fill="#dfd5d5"/><path d="M686.96,452.088l.133-.114A.32.32,0,0,0,686.96,452.088Z" transform="translate(-629.226 -386.787)" fill="#dfd5d5"/><path d="M670.645,370.947l.086-.188A.272.272,0,0,0,670.645,370.947Z" transform="translate(-625.941 -370.436)" fill="#dfd5d5"/><path d="M659.885,472.393l-.082.085A.444.444,0,0,0,659.885,472.393Z" transform="translate(-623.758 -390.898)" fill="#dfd5d5"/><path d="M632.107,460.82a.289.289,0,0,0,.069-.146l-.021-.024Z" transform="translate(-618.182 -388.534)" fill="#dfd5d5"/><path d="M624.268,396.9a.229.229,0,0,0-.079-.02l-.009.254A.652.652,0,0,0,624.268,396.9Z" transform="translate(-616.586 -375.694)" fill="#dfd5d5"/><path d="M621.6,444.781c-.026,0-.061-.022-.085-.013a8.359,8.359,0,0,0,.846,1.636l.235-.077C622.243,445.825,621.918,445.305,621.6,444.781Z" transform="translate(-616.049 -385.336)" fill="#dfd5d5"/><path d="M620.515,413.223c-.094.483-.216.974-.288,1.473a22.392,22.392,0,0,1-.41-5.556c.112-1.6.194-3.108.371-5.075l.068.232c.107-.271-.124-.538.008-1.482a7.3,7.3,0,0,1,.544-1.985,9.573,9.573,0,0,1,.692-1.466l.486-.859.638-.918.045.019c.077-.2-.011-.239.273-.577l-.692.861a7.372,7.372,0,0,1,.531-2.041.326.326,0,0,1,.324-.129c.272-.652.659-1.236.981-1.862.192-.133.413-.242.617-.359.112-.306-.008-.5.006-.759s.147-.621.847-1.16c-.769.219.331-.84.019-.826.1-.03.283-.138.454-.2l1.249-1.485a6.19,6.19,0,0,0,.957-1.232l-.592.322c-.355.207-.89.442-1.4.779s-1.1.656-1.569.994a14.149,14.149,0,0,1-1.188.772c1.089-1.136.22-.358-.1-.21l.023.151c-.657.685-.874.534-1.221.878a.236.236,0,0,0,.082.022l0-.072c.068-.008.081.034.076.092.058.026.072.089-.091.292l0-.057c-.208.34-.6.906-.766,1.154l-.209-.12a2.016,2.016,0,0,1-.475.954c-.27.418-.633.911-1.022,1.41a16,16,0,0,0-1.66,2.566c-.644.823-.632,2.115-1.1,3.256-.507,1.9-.561.879-.979,1.811-.352,1.2.317-.2.252.3l-.573,1.417c.113-.863-.108-.421-.226-.276-.251,1.271-.843,3.313-.36,3.74-.167.874-.265,1.317-.338,1.634a3.477,3.477,0,0,0-.137.893c.085-.259.16-.764.256-.768-.2.711.056.337.1.048a5.814,5.814,0,0,1-.021,1.332c-.038.578-.081,1.263-.124,1.918-.029,1.31-.009,2.534.29,2.6l-.1.015c.433.181.738-.272,1.085.417l-.083.518c.1.232.191.468.309.7-.011.511-.169.3-.216.307.441,1.144.659,2.834,1.09,4.246.163-.6.354-1.2.561-1.791.075,1.232.373,3.491.8,3.59l-.065.819c.344,2.548.955,1.463,1.176,2.438l.2,1.284-.544-1.113c.373,1.2.468,1.708.732,2.7l.014,0c-.018-.069-.023-.116-.007-.136l.092.149c.253.035.655.554,1.1,1.3a26.428,26.428,0,0,1,2.112,3.628l.612.172c.216.451.437.9.676,1.339l-.256.19c-.866-1.172-2.534-3.372-3.486-5.01l-.142.046c.564.974,1.383,1.962,1.761,2.6.137.34.407,1.279-.161.853l.657.391c.539.768.971,1.322,1.329,1.791l.929,1.235,2.286,3.169-.109-.356c.593.507,1.179,1.01,1.136,1.347.791.867,1.562,1.763,2.29,2.609s1.413,1.655,1.939,2.335l.518-.068c.4.344.754,1.3,1.284,1.013.359.176.725.344,1.1.5a16.55,16.55,0,0,1,1.9,1.006h0l0,0,.141.106a.072.072,0,0,0,0-.032c.8.418.835.314.885.257s.128-.1,1.057.293c.554.427.8-.27,1.7,0,.275.238.557.463.847.688a4.108,4.108,0,0,0,1.93.195,22.689,22.689,0,0,1,2.439-.191c1.118.138,1.708.567.969,1.015a4.338,4.338,0,0,1,1.807-.692c.229.18.09.239-.2.453,1.246.105.734-.264,1.649-.353.212-.42.419-1.073.7-1.144l-.359-.063a9.154,9.154,0,0,1,1.42-.438,7.594,7.594,0,0,1,1.564-.236l0,.2c.374-.109.743-.229,1.105-.366l.132.22c.526-.171,1.059-.326,1.577-.511l-.234,0a13.412,13.412,0,0,1,2.271-.714l.02.138c2.085-.268,3.449-1.428,5.572-2.433l-.164.386c.845-.089.021-.485.944-.765l.19.29c.571-.763,1.025-.382,1.621-.49l-.442-.282,1.017-.4c1.136-.413.915.165.869.459l.56-.7.327.276c.31-.689.571-.209,1.366-.934.148.09-.042.293.3.177l1.226-1.327-.779.724-.173-.568c.719-.909,1.291-.663,1.877-1.182l-.371.411a4.2,4.2,0,0,1,1.86-.813c-.243.018-.611.049-.216-.272.3-.215.276.074.61-.048-.124-.375.53-1.007,1.314-1.264a.2.2,0,0,1,.006.164.91.91,0,0,1,.537-.407l.042.478.377-.71c.454-.14.864-.756.965-.478l-.178.21c1.009-.585,2.021-1.171,3.024-1.788l.228.261c.034-.584,1.713-.906,1.285-1.34.738-.106,2.041-1.682,2.1-.918a15.706,15.706,0,0,0,2.32-2.009,18.375,18.375,0,0,1,2.673-2.207c1.149-.256,3.179-2.31,4.484-3.732a37.3,37.3,0,0,0,2.874-4.118c.406-.676.771-1.388,1.179-2.117.361-.763.757-1.557,1.136-2.458a6.584,6.584,0,0,0,1.06-1.68,19.935,19.935,0,0,0,.645-2.12c.291-1.5.506-3.01.855-4.259l-.216-.732a8.38,8.38,0,0,0,.348-3.055,31.434,31.434,0,0,1-.093-3.581,7.983,7.983,0,0,1-.331-.98.37.37,0,0,1-.225.359c.081-.694-.42-1.964,0-1.958l.077.158c.412,0-.614-1.951-.556-2.739l-.286.514-.307-1.224.179.3c-.3-.625-.607-1.186-.887-1.717s-.5-1.045-.724-1.528c-.5-.942-.826-1.862-1.268-2.712a18.519,18.519,0,0,0-1.434-2.558c-.291-.422-.607-.851-.961-1.288-.379-.417-.8-.837-1.271-1.265.768.239-.787-.636-.46-.993-.374-1.371-1.664-1.7-2.538-2.273-.018.018-.047.03-.117.016-.424-.428-.818-.891-1.271-1.291,1.252.226-1.346-.45-.228-.212-.411-.43-.851-.863-1.314-1.3-.489-.407-1-.812-1.537-1.22a20.033,20.033,0,0,0-1.677-1.144c-.573-.378-1.168-.738-1.787-1.064a65.113,65.113,0,0,0-7.59-3.512l.164.238a20.881,20.881,0,0,0-2.061-.666,10.511,10.511,0,0,1-1.795-.687,3.022,3.022,0,0,0-1.535-.306c-.5.019-.937.1-1.133.071-1.147.012-2.023-.742-1.561-.615-1.2-.152-2.393.2-3.979-.288-.488-.668-4.512-.023-4.5-.614l-.022.05c-2.068-.628-4.088.015-6.325-.429a.527.527,0,0,1,.121-.085c-1.545.592-3.06,1.22-4.548,1.868l1.308,2.032c1.285.529,2.547,1.109,3.785,1.688a77.949,77.949,0,0,1,10.123.553,57.228,57.228,0,0,1,7.6,2.412,37.8,37.8,0,0,1,16.132,9.131c.434.192.819.441,1.238.664.954,1.617,2.19,3.27,3.346,5.043a16.174,16.174,0,0,1,2.485,5.633l.4-.052a1.784,1.784,0,0,1,.106,1.317,24.571,24.571,0,0,1,1.032,7.411,20.408,20.408,0,0,1-1.469,7.222,27.723,27.723,0,0,1-9.161,11.409c-.871.4-3.009,2.285-3.8,2.475a39.888,39.888,0,0,1-8.043,5.768l.084-.1-1.291.863c-.073.006-.1-.03-.077-.082-1.32,1.2-3.866,2.271-5.782,3.125l.088-.1c-5.394,2.849-10.675,5.232-16.158,6.177a23.037,23.037,0,0,1-8.025.155,10.188,10.188,0,0,1-3.362-1.254,15.937,15.937,0,0,1-3.065-2.46c-3.494-4.113-8.462-8.573-10.956-14.346-.122-.585-1.7-3.609-2.783-6.785A50.417,50.417,0,0,1,620.515,413.223Z" transform="translate(-614.672 -370.366)" fill="#dfd5d5"/><path d="M625.226,402.1l-.02.042C625.355,402.221,625.331,402.129,625.226,402.1Z" transform="translate(-616.793 -376.746)" fill="#dfd5d5"/><path d="M617.914,434.925l-.025-.088-.112.4Z" transform="translate(-615.297 -383.337)" fill="#dfd5d5"/><path d="M615.77,411.855c-.189.826-.155.871-.07.764A2.767,2.767,0,0,0,615.77,411.855Z" transform="translate(-614.865 -378.71)" fill="#dfd5d5"/><path d="M628.932,395.76c.272-.264.1-.228-.14-.141-.243.305-.4.527-.4.527C628.561,396.009,628.754,395.893,628.932,395.76Z" transform="translate(-617.434 -375.428)" fill="#dfd5d5"/><path d="M625.562,395.514l-.025-.184C625.408,395.541,625.453,395.563,625.562,395.514Z" transform="translate(-616.844 -375.383)" fill="#dfd5d5"/></svg>