<svg xmlns="http://www.w3.org/2000/svg" width="43.004" height="30.105" viewBox="0 0 43.004 30.105">
  <path id="Path_456" data-name="Path 456" d="M-1023.069-905.387a9.652,9.652,0,0,0-.65-2.713,5.428,5.428,0,0,0-4.505-3.237c-1.7-.244-3.4-.36-5.114-.455-3.609-.2-7.222-.262-10.834-.264-3.395,0-6.79.06-10.182.224a52.63,52.63,0,0,0-5.767.494,5.4,5.4,0,0,0-4.416,3.528,12.54,12.54,0,0,0-.639,3.288,63.885,63.885,0,0,0-.385,7.367,57.112,57.112,0,0,0,.687,9.708,5.557,5.557,0,0,0,4.906,4.776c1.677.241,3.363.354,5.052.447,3.63.2,7.263.236,10.8.272,4.547-.041,9-.086,13.446-.421a16.77,16.77,0,0,0,3.418-.464,5.325,5.325,0,0,0,3.939-4.4,39.894,39.894,0,0,0,.638-5.78A66.831,66.831,0,0,0-1023.069-905.387Zm-25.271,14.818v-12.874l11.175,6.45Z" transform="translate(1065.562 912.056)" fill="#cf8fab"/>
</svg>
