<svg xmlns="http://www.w3.org/2000/svg" viewBox="0 0 52.77 31.81"><defs><style>.cls-1{fill:#dfd5d5;}</style></defs><g id="Layer_2" data-name="Layer 2"><g id="Layer_1-2" data-name="Layer 1"><path class="cls-1" d="M25.32,20l.15.06v0Z"/><path class="cls-1" d="M25.27,19.94l.05,0-.05,0Z"/><path class="cls-1" d="M7.72,19.12h0Z"/><path class="cls-1" d="M32.26,18.14h0Z"/><path class="cls-1" d="M4.47,16.86s0,0,0,0a.08.08,0,0,1,0,0Z"/><path class="cls-1" d="M25.74,15.75v0c-.05,0,0,0,0,0Z"/><path class="cls-1" d="M6.45,11.24h0Z"/><path class="cls-1" d="M11.61,10.94s0,0,0,0Z"/><path class="cls-1" d="M13.88,7.3s.08,0,0,.1Z"/><path class="cls-1" d="M14.4,6.86h0a.12.12,0,0,0,0,.1h0l0,0Z"/><path class="cls-1" d="M4.37,16.79v0l0,0Z"/><path class="cls-1" d="M25.45,11.92l.1,0h0Z"/><path class="cls-1" d="M13.91,4.58v0C13.84,4.48,13.84,4.53,13.91,4.58Z"/><path class="cls-1" d="M30.31,22c0-.58,0-1.17,0-1.75-.07-2.39-.14-4.74-.2-7.24a11.72,11.72,0,0,0-.46-3.77c-.34-1.31-.79-2.64-1.12-4a3.87,3.87,0,0,0-.35-1.17l-.44-1-.15-.28-.12-.2L27.3,2.4a6.33,6.33,0,0,0-.61-.83A4.48,4.48,0,0,0,23.36,0,6.06,6.06,0,0,0,22,.13l-.2,0-.13,0-.15.05.38.1.55.1-.32.06-.26,0-.37.08c-.24.06-.47.1-.68.16-.43.1-.82.19-1.19.3a6.55,6.55,0,0,0-2.22,1L17.48,2c-.14,0-.16.22-.51.51a12.07,12.07,0,0,1-2.54,1.21l0,0c-.07.07,0,.12-.21.18l.5-.17a5.78,5.78,0,0,1-.59.87.18.18,0,0,1-.2,0,10,10,0,0,0-.69.77l-.38.08c-.12.33.32.51-.4,1,.45,0-.1.45.1.47L12.28,7l.18-.26-.29.17c-.11.15,0,.13.11.09-.08.15-.2.34-.3.54L11.3,7l-4,.33a9.84,9.84,0,0,0-2,0,6.07,6.07,0,0,0-2.49.86,6.36,6.36,0,0,0-2,2.59,10,10,0,0,0-.67,2.57,16.72,16.72,0,0,0,.1,4.58l.42.59a5.46,5.46,0,0,0,0,.7A4.2,4.2,0,0,0,.74,20,4.78,4.78,0,0,0,1.86,22.1a4.51,4.51,0,0,0,2.05,1.23A18.7,18.7,0,0,0,6,23.71l0-.29c.51,0,.44.16.56.2a44.66,44.66,0,0,1,6.12.11,15.77,15.77,0,0,1,5.43,1.43,2.5,2.5,0,0,0,.72.43,1.66,1.66,0,0,1,.63.45,4.79,4.79,0,0,1,1.61.54,5.64,5.64,0,0,1,.71.44l.34.25.3.22.33.29-.08,0,.87.57c0,.05,0,.09,0,.09a5.27,5.27,0,0,1,.83.48,3.24,3.24,0,0,0,.89.35h0a2.86,2.86,0,0,0,.82.12,2.9,2.9,0,0,0,1.23-.24l-.06.07a5,5,0,0,0,2.12-2,7.32,7.32,0,0,0,.89-3.06,2.83,2.83,0,0,0,0-.41v-.78ZM25.15,7.21c.1.41.41.67.31,1.42l.32.09c0,.18,0,.36,0,.55l-.22.05h0a17,17,0,0,0-.68-2l.17,0c-.09-.19-.18-.39-.28-.57h-.06a.05.05,0,0,1,0,0l0,0C24.89,6.74,25.06,6.91,25.15,7.21Zm1.2,14.09-.13,0,.06.42-.18,0,0,.59.05-.08a1.8,1.8,0,0,1,0,.8h-.1a1.6,1.6,0,0,0-.1.23.43.43,0,0,0,0,.11,0,0,0,0,0,0,0,.22.22,0,0,0,0,.16.81.81,0,0,1,.09.46l-.17-.17c-.2-.07.27.25.13.29l-.21-.2c.23.36-.11.05-.21-.05l.25.3-.13,0c-.15,0-.28-.44-.38-.63,0,.11.08.22.11.33l-.15-.35c.08.24.05.19,0,.16s0-.08,0,0c0-.14-.05-.23-.07-.29a2.35,2.35,0,0,1,0,.53,1.66,1.66,0,0,0,0-.22l.07.57c0,.23-.09.14-.13.05h0s-.05-.09-.06-.09h0a.61.61,0,0,1,.05-.12c-.11,0-.1-.18-.11-.31,0,.1,0,.25-.06.27s0-.17,0-.23c-.07.29-.22.35-.25.16l.06-.08s-.08.08-.08,0l.17-.25-.1.1s0,.09-.09.12c-.11-.18-.46-.17-.32-.32h.12a12.67,12.67,0,0,0-1.17-.87l.11-.22c-.13.09-.27,0-.4-.11s-.29-.24-.39,0c-.13-.33-1-.36-.66-.71-.85-.46-1.5-.25-2.48-.87a1.51,1.51,0,0,0-.86-.6c-.4-.15-.85-.27-1.2-.37a36.67,36.67,0,0,0-3.76-.32A2.34,2.34,0,0,0,12,19.24a3,3,0,0,1-1.3-.11l-.26.21a2,2,0,0,0-1.12-.19A3.05,3.05,0,0,1,8.12,19a1.4,1.4,0,0,1-.36.13s.09.06.11.2c-.24-.1-.72,0-.68-.26l.06,0c0-.14-.19-.1-.4-.06s-.46.08-.59,0l.15.3-.43,0,.1-.06-.29.11c-.07,0-.21.05-.21.07a.38.38,0,0,1-.19.05.34.34,0,0,1-.27-.18A2.93,2.93,0,0,1,5,18.9a.43.43,0,0,0-.11-.12s0,0-.1-.1l-.16-.24c.37.13-.24-.26.11-.36.37-.46-.22-.67-.38-1,.07,0,.06-.13.09-.2s-.07-.06-.08-.08a.24.24,0,0,0,0,.28.08.08,0,0,1-.07,0c0-.19,0-.38,0-.57.24.16.13,0,0,0s-.22-.2,0,0c.11-.74.13-1.59.21-2.43a3.19,3.19,0,0,1,.66-1.9l-.12,0c.16-.19.29-.48.54-.4s.17-.06.23-.19a1.11,1.11,0,0,1,.17-.3H6a.31.31,0,0,1,.44,0s0,.07,0,.09c.31-.12.63-.54,1.2-.38.1.19.49.1.87,0s.78-.2.79,0v0a2.21,2.21,0,0,0,1.17,0,2.36,2.36,0,0,1,1.18,0l-.05.06L13.3,9.57l-.51-1.45-.32-.25,0,0a5.75,5.75,0,0,1,1.3-.68c-.46.45-.07.16.09.13l0-.08c.3-.24.46-.1.62-.2a.05.05,0,0,0-.05,0V7a.06.06,0,0,1,0-.06h0s-.05-.07,0-.13v0a1.71,1.71,0,0,1,.38-.38l.13.12c0-.22.37-.46.84-.64s.95-.3,1.1-.39c.41,0,.61-.5,1-.64s.46-.12.55-.06a.32.32,0,0,0,.25.07c.42-.1-.17-.14,0-.23l.56,0c-.25.15-.07.17,0,.21h0A5.65,5.65,0,0,1,20,4.73c.24-.05.42-.13.42-.31a1.68,1.68,0,0,1,.55,0,.62.62,0,0,0,.33,0c-.1,0-.27,0-.29-.1.27.07.1-.07,0-.07.14-.13.63-.1,1.06-.06a4.93,4.93,0,0,0,.55,0c.07,0,.12,0,.12-.12v.07c0-.28-.06-.55.13-.72l.11.12.2-.12a.15.15,0,0,1,0,.21.51.51,0,0,1,.46.12,1.8,1.8,0,0,1,.32.42h0a2.75,2.75,0,0,0,.21-.89,3,3,0,0,1,.24.72c.05.23.09.37.22.36l-.11.34c-.07,1,.45.46.47.84,0,.17-.06.34-.09.51-.05-.13-.1-.27-.16-.4a4.44,4.44,0,0,1,0,1h0a2.43,2.43,0,0,0,.17.6l-.1,0c.15.32.28.65.4,1,0,.11-.12.41-.3.36l.22.12a6.3,6.3,0,0,1,.34,2.58l.1-.13c.1.24.21.5,0,.6a4.57,4.57,0,0,1-.21,2.2l.28.09c0,.17-.38.45,0,.51l.14.36c0,.23.16.37,0,.65l0,.05h0c-.1.54.23,0,.11.61-.18.2.35.2.3.5l-.38.32c-.2.55.19.63.2,1.43-.13.39-.46.57-.75.32.35.35.23.16.4.62-.15.07-.18,0-.31-.08-.17.41.13.25.12.57.28.09.71.2.73.3l.08-.13A1.42,1.42,0,0,1,26.35,21.3Z"/><path class="cls-1" d="M14.19,3.9l0,0Z"/><path class="cls-1" d="M45.84,31.74l.07.07A.06.06,0,0,0,45.84,31.74Z"/><path class="cls-1" d="M48.5,29.78a.16.16,0,0,0,0,.15c.1-.12.08-.14,0-.14Z"/><polygon class="cls-1" points="42.38 22.36 42.39 22.36 42.39 22.36 42.38 22.36"/><path class="cls-1" d="M42.39,22.46c.07-.07,0-.09,0-.09A.06.06,0,0,0,42.39,22.46Z"/><polygon class="cls-1" points="43 20.37 43.16 20.38 43 20.36 43 20.37"/><path class="cls-1" d="M52.16,20.19h0s0,0,0,0Z"/><path class="cls-1" d="M33.49,14h0Z"/><path class="cls-1" d="M41.56,2.94h0s0,0,0,0A0,0,0,0,0,41.56,2.94Z"/><path class="cls-1" d="M47.87,2.28s0,0,0,0l0,0Z"/><path class="cls-1" d="M41.12,2.08l-.14,0,.15,0Z"/><path class="cls-1" d="M42.65,18.92h0a.38.38,0,0,1,.09.09Z"/><path class="cls-1" d="M41.45,20.06h0S41.48,20.09,41.45,20.06Z"/><path class="cls-1" d="M49.78,7.93h0Z"/><path class="cls-1" d="M49.83,8s0,0,0-.07-.11,0-.1.07S49.77,8,49.83,8Z"/><path class="cls-1" d="M40.5,21.23l-.08-.05h0Z"/><path class="cls-1" d="M34.54,26.26l0-.07s0,0,0,0Z"/><path class="cls-1" d="M38.87,22.59l0,0c.05,0,.11-.07.18-.17l-.12-.1Z"/><path class="cls-1" d="M51,1.63l-1.16-.17L49.2,2.79l-1,.72L46.61,5.92l.12.34C46,6.42,46,7.34,45.39,7.63l.19.15c-.08.15-.2,0-.26.06a37.83,37.83,0,0,1-2.13,3.24.94.94,0,0,1-.12-.18c-.4-.3-.69-.48-1.07-.81.23-.53-.57-.5-.53-.93l-.21.05c.13-.36-.37-.4-.3-.82a.31.31,0,0,1-.17,0s0,.06-.12.13c0-.12-.16-.19,0-.33h0C41,8,40.5,8,40.62,7.82l-.18.2-.06-.16h.07c-.89-.22-.39-1-1.21-1.19.28-.1-.2,0,0-.21.23-.37-.25-.2-.42-.25l0,0L38.71,6c.41-.12-.37,0,0,0-.12-.68-.84-1.16-1.15-1.82l-.06.09c-.09-.16-.33-.27-.27-.48s-.39-.09-.44-.13c-.23,0,0-.33,0-.27-.13-.1-.52,0-.52-.28.23-.27-.63-.3-.32-.53h0c.05-.39-.48-.34-.46-.73a.08.08,0,0,1,0,0L34.19,2l-.94.89L32.73,4l1,1.07.36,1.2,1.79,2.25h.35c-.08.76.82,1,.88,1.71l.21-.14c.11.13,0,.21,0,.27a20.36,20.36,0,0,1,2.79,3.75c0,.2.22.46.19.65a20.22,20.22,0,0,1-2.61,3.74c-.81.43-.91,1.53-1.73,2.09-.3,0-1.26,1.64-1.26,1.84h.37c-.3.65-.74.74-.89,1.38l0-.07c-.11,0,.41.47-.83.77l0,0s0,.07-.07.08l.25,0c0,.12.07.28,0,.4a.27.27,0,0,1-.14-.05l-.15.3-.22,0c0,.15.39.35.05.43.29.09.06.21.19.27l-.15,0c-.06.15-.17.44-.1.58a6.55,6.55,0,0,1,1.2-.11c-.19.14,0,.07.1.09l-.05,0c.14-.07.28,0,.36,0l0,0v0l0,0s0,0,0-.07v0a.27.27,0,0,1,.12-.15l.13.08c-.18-.25.74-.29.83-.39s.14-.27.31-.35.26,0,.45,0-.17-.07-.14-.13l.29,0c0,.1.06.1.12.12s.51-.19.29-.41c.26-.1.36,0,.43-.1s-.15,0-.2,0c.17,0,0-.06,0,0,0-.19.88-.28.63-.5l0,0c-.18-.17-.41-.26-.46-.43h.13l0-.14a.17.17,0,0,1,.16.08c0-.2.25-.31.39-.45l-.67-.22c.23-.05.66-.11.5-.26l.25.05c.54,0,0-.3.17-.34h.29l-.1.13a1.81,1.81,0,0,1,.51-.08h0v0a.21.21,0,0,1,0-.3c.13-.11.06-.33.42-.39l-.16-.2.24-.08.16.12c-.12.15-.28.5-.42.71l.07.06c.09-.13.12-.32.19-.39s.3,0,.36.16l-.1-.19a1.53,1.53,0,0,1,.76-.72l-.11,0c0-.12,0-.24.17-.17a1.29,1.29,0,0,1,.83-.44l-.16-.18s.39.08.14-.13v-.18c.07-.06,0-.19.16-.19h0c.21-.11-.17-.12.08-.24.18,0-.2-.24-.09-.3l.35.1c.27-.05,0-.28.19-.52a.61.61,0,0,1,.61.29c-.17-.29-.13-.17-.14-.4a.44.44,0,0,1,.2.18c.21,0,0-.14,0-.23a3.43,3.43,0,0,1-.45-.46H42.1c0-.18,0-.32.18-.37l.1.08,0-.16.13.08.09-.21h0a.86.86,0,0,1,.07-.14A14.69,14.69,0,0,1,45,20.89c.14.9,1.15,1.35,1.43,2.3-.1.29,1.15,1.72,1.35,1.78l.11-.35c.53.49.47.93,1,1.28h-.07c0,.12.58-.24.47,1l0,0s.07,0,0,.09l.06-.25c.12,0,.28,0,.38.13s-.06.08-.09.11l.23.24-.1.2c.14,0,.45-.26.42.09.18-.25.22,0,.32-.1a.76.76,0,0,0-.07.13c.12.11.36.31.52.28a6.27,6.27,0,0,1,.28-1.17c.06.23.06,0,.11-.07l-.07,0c0-.15.13-.25.13-.34s0,0,0,0h0l-.07,0s-.05,0-.07,0h0a.31.31,0,0,1-.1-.16l.12-.09c-.29.08,0-.8-.1-.92S51,25,51,24.81s.1-.24.13-.42-.13.13-.17.08l0-.29c.08.09.12,0,.15-.07s0-.54-.29-.41c0-.27.08-.34,0-.43s0,.14-.07.18c.05-.16-.06,0-.06,0-.19,0,0-.93-.27-.76l.05,0c-.22.11-.39.3-.56.29l0-.11-.14,0a.17.17,0,0,1,.12-.13c-.19-.07-.21-.34-.3-.52l-.42.57c0-.23.11-.66-.09-.56l.13-.21c.15-.53-.29-.08-.27-.27l.1-.28.1.14a1.75,1.75,0,0,1,.08-.51h0s0,0,0,0h0A.22.22,0,0,1,49,21c-.07-.16-.29-.16-.24-.53l-.24.1v-.26l.16-.11c.11.16.39.42.55.62l.07-.05c-.09-.12-.26-.21-.3-.3s.1-.28.26-.29l-.21,0a1.57,1.57,0,0,1-.44-.95l-.06.1c-.11,0-.21-.1-.1-.22a1.27,1.27,0,0,1-.16-.93l-.22.1c0-.06.21-.35-.08-.18l-.17-.06c0-.08-.18-.05-.13-.21h0v0h0c0-.23-.17.12-.2-.15s-.29.11-.32,0l.21-.29c0-.29-.26-.12-.43-.36a.63.63,0,0,1,.47-.49c-.33.08-.2.07-.43,0a.34.34,0,0,1,.24-.13c0-.22-.15,0-.21-.11a3.74,3.74,0,0,1-.58.28l0,.08c-.17,0-.3-.1-.29-.29l.1-.06-.14-.09.12-.1L46,16l0,0c-.05,0-.19-.14-.18-.26l.07-.05c.06-.38-.36-.36-.56-.6l.16-.07c.08-.19-.23.14-.24,0l.17-.13c-.29.07,0-.15,0-.28l-.21.19v0c.12,0,.06-.33.33-.08.21-.24,0-.61.37-.8.37.09.5-.28.67-.46.16-.47.24-.81.43-1.27.58.05.3-.7.71-.8l-.11-.18c.38,0,.26-.48.68-.54,0-.11,0-.16,0-.18s-.06,0-.17-.06c.12,0,.14-.22.33-.07v0c.19.16.06-.27.29-.22l-.25-.12.13-.1,0,.06c-.08-.91.8-.67.74-1.52.19.24,0-.2.21,0,.43.1.11-.3.11-.47l0,0,.17-.17c.25.35-.17-.33,0,0,.61-.32.83-1.16,1.36-1.66l-.1,0c.12-.14.15-.4.37-.41s0-.4,0-.45c-.06-.23.31-.13.26-.09,0-.16-.16-.5.1-.59.32.14.09-.69.4-.47l0,0c.39-.08.17-.57.55-.67l0,0-.58-1.19Z"/><path class="cls-1" d="M33.35,24.83h0C33.27,24.76,33.29,24.79,33.35,24.83Z"/><polygon class="cls-1" points="37.96 23.33 37.95 23.34 38.1 23.39 37.96 23.33"/><path class="cls-1" d="M36.6,25.31a.1.1,0,0,0,0,.1C36.66,25.34,36.64,25.32,36.6,25.31Z"/><path class="cls-1" d="M33,25.69s0,.06.1.08l0-.1A.77.77,0,0,1,33,25.69Z"/><path class="cls-1" d="M47,16.35h0l.11-.06Z"/><path class="cls-1" d="M47.69,17.85v0S47.73,17.83,47.69,17.85Z"/><path class="cls-1" d="M38.83,6.1h0v0Z"/><path class="cls-1" d="M38.84,6.1c0,.07,0,.11,0,.12s0-.1.05-.14S38.86,6.11,38.84,6.1Z"/><path class="cls-1" d="M48.5,19.12l-.07.06h0Z"/><path class="cls-1" d="M51.38,26.37l-.09,0h.05Z"/><path class="cls-1" d="M49.27,21.1l0,0s0-.13-.1-.23l-.13.08Z"/><path class="cls-1" d="M49.65,27h0C49.56,27.1,49.59,27.08,49.65,27Z"/><polygon class="cls-1" points="49.69 22.19 49.69 22.2 49.78 22.08 49.69 22.19"/><path class="cls-1" d="M51.13,24.11a.13.13,0,0,0,.09.07C51.18,24.06,51.16,24.08,51.13,24.11Z"/><path class="cls-1" d="M50.35,27.67c0,.06.06,0,.1-.07l-.08-.07S50.35,27.63,50.35,27.67Z"/></g></g></svg>