<svg xmlns="http://www.w3.org/2000/svg" width="101.903" height="113.615" viewBox="0 0 101.903 113.615"><g transform="translate(-12569.053 -6943)"><path d="M81.931,117.429l-8.087-.581a10.536,10.536,0,0,0-4.257.4,18.552,18.552,0,0,1-9.515.184,8.529,8.529,0,0,1-2.959-.807,4.218,4.218,0,0,0-2.358-.309c-2.974.273-5.941.617-8.9.987a52.692,52.692,0,0,1-6.528.364c-1.432,0-2.848.21-4.294.171a94.022,94.022,0,0,1-14.251-1.044,24.191,24.191,0,0,1-4.152-1.058,3.707,3.707,0,0,1-2.209-3.06c-.321-1.639-.231-3.309-.519-4.962-.512-2.94-.891-5.913-1.137-8.887a65.862,65.862,0,0,1-.294-11.182,25.114,25.114,0,0,0-.375-7.033,1.883,1.883,0,0,0-.885-1.38,4.823,4.823,0,0,1-2.09-4.792c.128-2.232.23-4.476.557-6.682.216-1.459.294-3.173,2.265-3.644.505-.121.4-.609.388-1.016-.07-2.924-.189-5.849-.175-8.773.024-4.829-.283-9.636-.576-14.453A61.268,61.268,0,0,1,11.868,29.2a10.755,10.755,0,0,1,3.519-7.254,5.345,5.345,0,0,1,4.919-1.4c.331.079.657.32.983.132,1.238-.714,2.7-.52,3.993-1.008a5.662,5.662,0,0,1,3.562-.039.812.812,0,0,0,1.16-.648c.043-.167.111-.328.146-.5,1.029-4.863,4.282-7.952,8.3-10.447a21.509,21.509,0,0,1,8.625-3.262,19.7,19.7,0,0,1,2.051-.247c3.672-.086,7.345-.175,11.017-.188,1.431-.005,2.863.186,4.294.287,6.243.444,12.526.316,18.728,1.333A30.563,30.563,0,0,1,91.816,8.2a10.906,10.906,0,0,1,6.445,7.588,24.845,24.845,0,0,1,.635,2.675.971.971,0,0,0,1.31.949,17.979,17.979,0,0,1,3.076-.319,10.712,10.712,0,0,1,3.365.632,2.581,2.581,0,0,1,1.765,1.744,23.178,23.178,0,0,1,.807,3.344,54.344,54.344,0,0,1,.29,13.743c-.32,4.186-.636,8.364-.664,12.563a28.419,28.419,0,0,0,.133,3.445,20.214,20.214,0,0,1-.073,4.98c-.113.854-.156,1.718-.276,2.571a7.006,7.006,0,0,0,1.022,5.215,6.224,6.224,0,0,1,.729,2.639A28.517,28.517,0,0,1,110.925,77c-.139,1.824-.529,3.528-2.243,4.577a1.184,1.184,0,0,0-.526,1.187c.028.863.041,1.725.065,2.588a75.987,75.987,0,0,1-.475,10.5,47.8,47.8,0,0,0,.241,11.006,23.888,23.888,0,0,1,.116,6.868,2.16,2.16,0,0,1-1.764,2.014,7.128,7.128,0,0,1-1.366.162c-5.635.261-11.232.945-16.837,1.529A36.041,36.041,0,0,1,81.931,117.429ZM85.353,23.5c-.286-3.231-.083-6.165-.974-9.036a3,3,0,0,0-2.414-2.278c-1.332-.367-2.722-.459-4.017-.907A83.061,83.061,0,0,0,62.755,7.563a6.155,6.155,0,0,0-1.372-.075A70.085,70.085,0,0,0,51.161,8.955a8.514,8.514,0,0,0-4.06,2.171,33.493,33.493,0,0,0-2.945,2.884c-.621.768-1.579,1.35-1.634,2.55-.06,1.317-.253,2.629-.414,3.94a33.5,33.5,0,0,0-.223,8.4,20.769,20.769,0,0,0,1.8,6.77c2.048,4.13,4.6,7.958,6.8,12a32.772,32.772,0,0,0,4.637,6.623,91.97,91.97,0,0,1,5.973,7.335c1.216,1.624,2.449,3.035,4.709,2.863a1.677,1.677,0,0,1,.336.071,1.65,1.65,0,0,0,1.939-.984,64.9,64.9,0,0,1,5.283-8.044,69.26,69.26,0,0,0,8.517-15.045A52.7,52.7,0,0,0,85.353,23.5ZM18.926,114.946a1.61,1.61,0,0,0,1.15.726c1.867.324,3.726.666,5.626.824,3.615.3,7.236.3,10.855.352a74.155,74.155,0,0,0,7.754-.221c3.545-.326,7.039-1.132,10.613-1.226a1.194,1.194,0,0,0,1.3-.894,37.291,37.291,0,0,0,1.846-9.957c-.034-4.712-.056-9.426.021-14.138a13.7,13.7,0,0,0-.475-4.429c-.538-1.7-1.142-3.372-1.683-5.068a1.693,1.693,0,0,0-1.747-1.33c-2.18-.094-4.348-.357-6.511-.656a35.039,35.039,0,0,0-7.043-.365,182.874,182.874,0,0,0-21.045,2.368c-.521.095-.83.235-.927.8a29.937,29.937,0,0,0,.7,14.472,42.182,42.182,0,0,1,2.392,9.853C21.968,109.367,21.62,112.5,18.926,114.946Zm49.617-50.5c.423.6.979.509,1.473.507a31.227,31.227,0,0,1,5.131.582c1.021.164,2.057.233,3.081.375a1.288,1.288,0,0,0,1.429-.684c1.857-3.032,3.845-5.988,5.573-9.09.752-1.35,1.707-2.565,2.359-3.991a60.293,60.293,0,0,1,3.351-6.783,14.742,14.742,0,0,0,1.4-2.761c1.133-3.186,2.2-6.4,3.261-9.607.94-2.842,1.361-5.816,2.158-8.692a12.319,12.319,0,0,0,.333-4.6,33.157,33.157,0,0,0-1.174-5.023A6.592,6.592,0,0,0,95.567,12.3C92.9,8.968,89.057,7.9,85.176,7.049c-2.513-.548-5.114-.7-7.677-1.015a23.018,23.018,0,0,0-3.949-.31,42.262,42.262,0,0,1-7.222-.286,50.129,50.129,0,0,0-6.875-.465c-2.3.038-4.6.071-6.9.016a28.62,28.62,0,0,0-8,1.01,21.05,21.05,0,0,0-9.585,5.852,14.879,14.879,0,0,0-4.255,7.908c-.262,1.411-.63,2.8-.936,4.206a14.1,14.1,0,0,0,1.081,8.905c1.721,3.886,3.588,7.713,5,11.724a32.215,32.215,0,0,0,2.172,5.05c.368.66.881,1.2,1.233,1.863a44.613,44.613,0,0,0,5.7,8.764A9.722,9.722,0,0,1,46.716,62.8a1.339,1.339,0,0,0,1.618.982l.077-.021A32.186,32.186,0,0,1,57,63.836a13.054,13.054,0,0,0,4.532-.064c-1.723-2.188-3.2-4.326-4.942-6.212a57.936,57.936,0,0,1-6.934-9.166c-2.331-3.816-4.336-7.829-6.582-11.7A20.232,20.232,0,0,1,40.77,25.9c.06-3.6.472-7.209.853-10.8a7.345,7.345,0,0,1,.97-3.3c.72.254.321,1.04.977,1.358.539-.524,1.121-1.063,1.673-1.632A11.562,11.562,0,0,1,51.6,7.994c2.829-.52,5.7-.571,8.533-1.017a8.289,8.289,0,0,1,2.23-.163A78.9,78.9,0,0,1,70.839,8.2c3.688.856,7.209,2.321,10.962,2.953,1.474.248,1.457.348,2.114-1.066a2.64,2.64,0,0,1,1.139,1.657A44.659,44.659,0,0,1,86,17.48a59.232,59.232,0,0,1-.528,13.556A55.66,55.66,0,0,1,79.64,47.518a98.223,98.223,0,0,1-6.722,10.208c-1.558,2.192-3,4.453-4.376,6.717ZM99.175,81.879a27.839,27.839,0,0,0,7.855-.665,2.989,2.989,0,0,0,2.459-1.81,7.184,7.184,0,0,0,.671-2.821,31.478,31.478,0,0,0-.7-6.317c-.474-2.6.2-2.624-2.942-2.421a166.93,166.93,0,0,1-26.7-.359c-.571-.055-1.14-.138-1.709-.217-4.325-.6-8.632-1.4-12.977-1.776-9.683-.828-19.4-.306-29.1-.351-3.616-.017-7.232.392-10.856.371a22.563,22.563,0,0,0-6.135.7,6.146,6.146,0,0,1-3.557.013,19.862,19.862,0,0,0-1.984-.537c-1.192-.236-1.63.022-2.08,1.177a20.008,20.008,0,0,0-1.184,6.407,11.5,11.5,0,0,0,.09,2.922A3.4,3.4,0,0,0,12.1,78.561c2.631,1.557,5.474,1.009,8.215.8a37.144,37.144,0,0,0,3.694-.717,77.35,77.35,0,0,1,17.827-1.4c2.87.141,5.757-.012,8.61.4a135.464,135.464,0,0,0,16.323,1.187A183.4,183.4,0,0,1,87.354,80.7c3.923.537,7.811,1.446,11.821,1.181ZM71.443,115.72c.612.075.947.132,1.285.156,4.129.3,8.259.607,12.389.889a18.626,18.626,0,0,0,3.444-.132c5.31-.624,10.621-1.24,15.962-1.527,2.317-.124,1.978-.477,2.64-2.077a4.176,4.176,0,0,0,.18-1.357,26.048,26.048,0,0,0-.343-5.5,25.143,25.143,0,0,1-.429-4.1c.03-5.972,1.078-11.9.684-17.907-.114-1.732.015-2.077-2.045-1.665-.451.09-.909.144-1.36.238a29.416,29.416,0,0,1-8.589.115c-2.512-.219-4.99-.748-7.519-.884-1.659-.089-3.31-.34-4.964-.53-2.338-.269-4.673-.572-7.014-.814-1.433-.148-1.676,0-2.234,1.32a30.694,30.694,0,0,0-1.049,2.908A39.9,39.9,0,0,0,70.551,93.4a43.936,43.936,0,0,0,.168,10.143c.382,2.5.862,4.978,1.267,7.47A6.566,6.566,0,0,1,71.443,115.72Zm21.7-49.037c3.789,0,7.578.022,11.366-.016a4.289,4.289,0,0,0,2.664-.465c.62-.5.151-1.536.392-2.3a.878.878,0,0,0,.041-.168,55.157,55.157,0,0,0,.56-8.767,114.779,114.779,0,0,1,.349-15.153,71.547,71.547,0,0,0-.03-13.756,17.326,17.326,0,0,0-.867-3.862,2.545,2.545,0,0,0-1.645-1.609c-2.059-.787-4.077-.337-6.118-.043-.535.077-.6.432-.628.861a53.582,53.582,0,0,1-2.2,10.254c-.909,3.313-2.19,6.524-3.281,9.788a22.778,22.778,0,0,1-2.473,5.108,13.206,13.206,0,0,0-.722,1.365A94.438,94.438,0,0,1,83.789,60.08c-1.1,1.6-1.9,3.4-3.023,5-.519.737-.3,1.081.66,1.213.227.031.46.015.689.035,3.667.323,7.35.286,11.024.353ZM42.419,63.859c.834,0,1.408.011,1.982,0,1.283-.029,1.457-.308.794-1.421-1-1.676-2.4-3.062-3.421-4.736a47.982,47.982,0,0,1-4.235-7.282,4.351,4.351,0,0,0-.615-1.033,13.6,13.6,0,0,1-2-4.173c-.3-.926-.618-1.851-.983-2.754-1.312-3.248-2.712-6.462-3.954-9.736A16.113,16.113,0,0,1,29.107,22.6c.523-1.956,0-2.451-2.02-2.318a4.934,4.934,0,0,0-.842.168,10.759,10.759,0,0,1-3.183.681c-.614-.033-.918.4-1.053.954a2.744,2.744,0,0,0,.039,1.195,61.382,61.382,0,0,1,1.242,6.761c.3,3.715.447,7.456.392,11.182A55.841,55.841,0,0,1,21.407,55.3c-.689,2.488-1.295,4.993-1.868,7.507-.294,1.292-.123,1.5,1.274,1.452,1.491-.051,2.981-.142,4.472-.247a104.748,104.748,0,0,1,17.134-.15Zm22.335,53.165c1.016,0,1.706.036,2.391-.006a3.82,3.82,0,0,0,4.038-3.989,6.32,6.32,0,0,0-.089-1.712,81.5,81.5,0,0,1-1.532-9.329,36.651,36.651,0,0,1,.373-10.967,38.542,38.542,0,0,1,3.009-9.841c.276-.562.1-.873-.543-.9-2.985-.1-5.971-.2-8.956-.318-.753-.029-1.084.318-1.351,1.018a47.59,47.59,0,0,0-2.076,7.629,19.165,19.165,0,0,0-.8,5.919,59.824,59.824,0,0,1,.067,9.1,66.222,66.222,0,0,1-1.118,11.107,2.924,2.924,0,0,0-.031.686c.014.524.245.9.8.939C60.993,116.514,62.989,117.22,64.754,117.024ZM13.879,27.054a19.224,19.224,0,0,1,1.434-1.885c.752-.779,1.461-.643,1.831.383A22.732,22.732,0,0,1,18.3,29.516a58.858,58.858,0,0,1,.617,14.259c-.187,2.332-.785,4.639-.873,6.97-.133,3.508-.963,6.942-.951,10.456a.892.892,0,0,1-.147.477.314.314,0,0,1-.434.095l-.017-.011c-.5-.38-.054-1-.345-1.437s-1.126.187-1.219-.632c-.006-.057-.017-.114-.019-.172-.038-1.148-.4-2.247-.391-3.418.021-1.94-.176-3.877-.208-5.823-.033-2,.235-4,.007-6.008a20.126,20.126,0,0,1-.013-3.784c.218-2.865.611-5.717.676-8.595a3.567,3.567,0,0,1,.32-1.508.891.891,0,0,1,.807-.554.924.924,0,0,1,.8.573,2.63,2.63,0,0,1,.2,1.681c-.505,3.583-.723,7.2-1.145,10.787a73.535,73.535,0,0,0,.054,15.895,131.412,131.412,0,0,0,2.153-14.551,43.372,43.372,0,0,0-1.29-16.556,2.659,2.659,0,0,0-.92-1.55,2.447,2.447,0,0,0-1.005,1.472,16.57,16.57,0,0,0-.98,5.045c-.006.373.136.99-.489.841-1-.239-.882.454-.94.976A35.038,35.038,0,0,0,12.673,42c.107,1.026.327,2.044.381,3.071.153,2.909-.309,5.806-.067,8.733.26,3.143.238,6.312.286,9.47a1.135,1.135,0,0,0,.96,1.285q.044.006.088.009a11.676,11.676,0,0,0,2.923-.009c.816-.047,1.167-.378,1.265-1.25a48.062,48.062,0,0,1,1.681-7.185c.6-2.215,1.335-4.407,1.762-6.656a48.236,48.236,0,0,0,.883-10.639,63.216,63.216,0,0,0-.655-10.133c-.376-1.915-1.027-3.753-1.427-5.653-.305-1.448-.695-1.829-2.116-1.6a6.713,6.713,0,0,0-5.009,5.272C13.621,26.786,13.746,26.876,13.879,27.054Zm-.284,62.515a5.605,5.605,0,0,0-.347,2.316c-.011,3.626.781,7.167,1.119,10.755a78.556,78.556,0,0,1,.971,8.2,7.225,7.225,0,0,0,.523,2.525,1.35,1.35,0,0,0,2.287.734,5.587,5.587,0,0,0,1.677-1.7c1.283-2.033,1.21-4.279,1.06-6.517-.228-3.414-1.537-6.588-2.362-9.867-.771-3.065-1.695-6.073-1.295-9.3.2-1.591.221-3.2.334-4.806.027-.381-.02-.743-.458-.771-.457-.03-.5.356-.53.717A57.716,57.716,0,0,0,17.138,93.8c.426,3.631,1.527,7.182,2.3,10.775a14,14,0,0,1-.224,7.495,2.371,2.371,0,0,1-.923,1.41c-.592.369-1.066.375-1.423-.306a6.538,6.538,0,0,1-.674-2.118c-.154-1.039.1-2.076-.04-3.1a66.975,66.975,0,0,0-.944-8.039c-.1-.4-.248-1.034.345-1.177.635-.154.659.463.759.9.026.111.015.23.038.343a38.472,38.472,0,0,1,.975,8.541,5.547,5.547,0,0,0,.342,2.028c.085.239.233.443.474.407a.538.538,0,0,0,.407-.5,6.041,6.041,0,0,0,.036-1.031c-.118-1.657-.266-3.311-.381-4.968a63.116,63.116,0,0,0-1.4-6.554c-.288-1.634-.849-3.213-1.043-4.877-.046-.391-.148-1.239-.526-1.1-1.4.518-1.008-.618-1.217-1.171-.133-.351.13-.816-.423-1.19Zm44.956-4.055.421.011A26.615,26.615,0,0,0,60.5,80.848c.1-.557-.017-.9-.641-.923a9.929,9.929,0,0,0-3.2.1Z" transform="translate(12560 6938.653)" fill="#cf8fab"/><path d="M46.286,25.519a23.613,23.613,0,0,1-1.222-3.877c-.179-.49.28-.626.682-.786a21.775,21.775,0,0,1,6.031-1.3,28.276,28.276,0,0,1,5.679-.034c1.505.16,1.755.517,1.506,2.027a2.977,2.977,0,0,1-.213.83c-.333.674.082,1.661-.543,2.076s-1.182-.514-1.864-.56a18.186,18.186,0,0,0-2.233-.138c-1.889.106-3.775.269-5.659.447a2.635,2.635,0,0,0-2.165,1.316Z" transform="translate(12568.789 6942.33)" fill="#cf8fab"/><path d="M73.77,21.292a2.327,2.327,0,0,1-2.223.4,15.437,15.437,0,0,1-2.286-.762,33.434,33.434,0,0,0-10.17-2.291A36.077,36.077,0,0,0,46.468,19.8c-2.286.56-4.591,1.008-6.88,1.537a5.5,5.5,0,0,1-2.055.091c-.3-.043-.561-.178-.52-.547.031-.288.279-.348.506-.358,4.509-.214,8.753-1.8,13.159-2.547a43.124,43.124,0,0,1,12.371.085C66.73,18.493,69.976,20.232,73.77,21.292Z" transform="translate(12566.83 6941.884)" fill="#cf8fab"/><path d="M22.079,89.237c.2-4.575-1.009-8.591-1.987-12.645a18.47,18.47,0,0,1-.091-8.7.935.935,0,0,1,.435-.718c.665.262.525.8.392,1.293-.968,3.587-.216,7.04.729,10.5a28.784,28.784,0,0,1,1.113,8.338c-.012.458-.063.916-.119,1.371C22.541,88.767,22.421,88.841,22.079,89.237Z" transform="translate(12562.56 6954.004)" fill="#cf8fab"/><path d="M25.006,83.612c1.8,2.634,1.151,8.706-1.092,10.791-.133-1.379.661-2.45.9-3.649a20.464,20.464,0,0,0,.62-3.553C25.455,85.985,24.886,84.828,25.006,83.612Z" transform="translate(12563.627 6958.02)" fill="#cf8fab"/><path d="M32.52,92.155c2.421.616,4.813-.633,7.4-.06C35.564,93.323,33.628,93.365,32.52,92.155Z" transform="translate(12565.733 6960.055)" fill="#cf8fab"/><path d="M21.086,92.478a28.549,28.549,0,0,1,.951-4.641A4.285,4.285,0,0,1,21.086,92.478Z" transform="translate(12562.94 6959.052)" fill="#cf8fab"/><path d="M26.662,88.762a5.107,5.107,0,0,1,.077,3.4c-.02.079-.19.2-.253.175-.148-.046-.386-.159-.391-.255A7.25,7.25,0,0,1,26.662,88.762Z" transform="translate(12564.16 6959.278)" fill="#cf8fab"/><path d="M31.864,11.738C29.342,16.919,26.778,22.017,27.588,28c-.687.071-.674-.323-.726-.647a13.943,13.943,0,0,1,.587-7.265c.637-1.716,1.2-3.462,1.906-5.152a6.325,6.325,0,0,1,2.509-3.2Z" transform="translate(12564.294 6940.459)" fill="#cf8fab"/><path d="M28.688,28a20.839,20.839,0,0,1,2.323,5.44A6.655,6.655,0,0,1,28.688,28Z" transform="translate(12564.795 6944.431)" fill="#cf8fab"/><path d="M31.142,61.2c-.265.156-.364.267-.455.26-4.28-.327-8.465.514-12.681,1-.744.086-1.579.4-2.317-.241C17.326,61.188,28.85,60.4,31.142,61.2Z" transform="translate(12561.621 6952.464)" fill="#cf8fab"/><path d="M13.715,62.99a3.052,3.052,0,0,1-1.632-2.926,15.557,15.557,0,0,1,.556-4.045c.088-.3.075-.719.646-.776.324,1.388-.485,2.622-.552,3.951C12.663,60.6,13.576,61.638,13.715,62.99Z" transform="translate(12560.738 6951.088)" fill="#cf8fab"/><path d="M85.657,69.633c.555.21.462.593.465.908.018,1.494.089,2.992.007,4.481-.218,3.973.273,7.913.443,11.868A17.131,17.131,0,0,1,85.9,93.7a3.876,3.876,0,0,1-1.281,1.911,18.868,18.868,0,0,0,1.188-8.887c-.194-4.3-.655-8.6-.491-12.912a14.237,14.237,0,0,1,.343-4.181Z" transform="translate(12578.463 6954.604)" fill="#cf8fab"/><path d="M84.25,81.391a33.214,33.214,0,0,1-.441,11.615c-.649-1.233.07-2.5-.056-3.751-.131-1.306.157-2.625.061-3.954-.095-1.3-.021-2.608-.021-3.912Z" transform="translate(12578.197 6957.477)" fill="#cf8fab"/><path d="M61.649,93.408a.625.625,0,0,1-.61-.639v-.007c-.161-3.009.031-6.029-.289-9.039C61.846,86.882,61.576,90.14,61.649,93.408Z" transform="translate(12572.631 6958.047)" fill="#cf8fab"/><path d="M81.793,91.545V86.826A4.68,4.68,0,0,1,81.793,91.545Z" transform="translate(12577.772 6958.805)" fill="#cf8fab"/><path d="M86.352,57.479a33.725,33.725,0,0,1,.042-4.431c-.232-3.092.063-6.2-.174-9.3a47.368,47.368,0,0,1-.493-5.657,28.107,28.107,0,0,1,1.479-8.545c.658.587.4,1.171.237,1.741a25.3,25.3,0,0,0-.956,5.413,19.8,19.8,0,0,0,.079,3.954c.462,3.193.361,6.416.538,9.624a30.8,30.8,0,0,1-.143,5.317,3.04,3.04,0,0,1-.609,1.884Z" transform="translate(12578.733 6944.81)" fill="#cf8fab"/><path d="M84.475,52.31V46.186C85.245,47.159,85.362,50.007,84.475,52.31Z" transform="translate(12578.428 6948.875)" fill="#cf8fab"/><path d="M50.752,94.08c-.51-.4-.225-.731-.176-1.031a54.2,54.2,0,0,0,.743-7.181c.054-2-.493-3.978-.456-5.991,0-.228-.063-.456-.065-.685,0-.384-.135-.951.407-.96.464-.007.491.547.507.942.155,3.712.842,7.409.126,11.145C51.591,91.609,50.992,92.74,50.752,94.08Z" transform="translate(12570.115 6956.706)" fill="#cf8fab"/><path d="M51.49,75.285c-1.208-2.02.177-5.975,2.722-8.143-.245,1.668-1.438,2.553-1.857,3.786a17.064,17.064,0,0,0-.864,4.357Z" transform="translate(12570.261 6953.996)" fill="#cf8fab"/></g></svg>