<svg xmlns="http://www.w3.org/2000/svg" width="127.063" height="118.213" viewBox="0 0 127.063 118.213"><g transform="translate(-12733.297 -6943)"><path d="M30.917,116.17a6.638,6.638,0,0,0-2.092,1.269c-2.473,1.862-7.5,2.5-10.417-.857a46.422,46.422,0,0,1-6.857-9.907A15.229,15.229,0,0,1,9.935,96.33a5.566,5.566,0,0,1,2.973-4.3,1.363,1.363,0,0,0,.467-.379,29.822,29.822,0,0,1,4.09-3.945,5.387,5.387,0,0,0-1.741-1.692,25.928,25.928,0,0,1-6.981-8.5,40.536,40.536,0,0,1-3.017-6.359,7.238,7.238,0,0,1,2.047-7.9A21.8,21.8,0,0,0,9.436,61.5a18.539,18.539,0,0,1,6.45-4.376,122.8,122.8,0,0,0,11.624-7.21c3.818-2.5,7.48-5.2,11.2-7.821,2.859-2.009,6-3.5,8.914-5.377,2.763-1.779,5.4-3.762,8.175-5.516A176.076,176.076,0,0,1,72,21.444a18.3,18.3,0,0,0,5.482-3.682c.188-.2.366-.443.659-.38,1.231.263,1.978-.625,2.887-1.156,1.819-1.061,3.656-2.09,5.492-3.12,2.049-1.149,4.112-2.272,6.152-3.437a13.622,13.622,0,0,1,1.462-.655c3.642-1.552,6.686.189,9.663,1.85a21.492,21.492,0,0,1,6.632,6.364c1.191,1.621,2.673,2.992,3.781,4.706a36.979,36.979,0,0,1,3.165,6.484c.469,1.174-.312,2.247.062,3.365.064.193-.369.319-.622.4-1.678.518-2.643,1.941-4.071,3.046,1.2.763,2.275,1.41,3.312,2.115a18.976,18.976,0,0,1,5.116,5.087c.489.724,1,1.437,1.536,2.125a20.8,20.8,0,0,1,3.529,7.613,60.33,60.33,0,0,1,1.7,7.248,7.339,7.339,0,0,0,1.929,3.491c.554.675,1.165,1.307,1.681,2.009a3.9,3.9,0,0,1-.2,5,15.975,15.975,0,0,1-4.538,3.3,114.989,114.989,0,0,1-11.882,4.954c-5.03,2.081-10.216,3.753-15.23,5.854a37.972,37.972,0,0,0-10.36,6.534,97.813,97.813,0,0,1-9.621,7.284c-1.664,1.13-3.237,2.393-4.868,3.573-2.446,1.769-4.893,3.536-7.364,5.269-2.364,1.657-4.608,3.457-6.8,5.335-2.294,1.964-4.719,3.774-7.043,5.7-1.6,1.327-3.131,2.731-4.673,4.123a19.291,19.291,0,0,1-9.034,4.595,4.511,4.511,0,0,1-5.2-2.1,41.657,41.657,0,0,1-3.818-8.173Zm53.972-95.4c-.454-1.913.727-3.59.831-5.44-1.351.348-1.362.346-1.536,1.126-.159.714-.275,1.437-.438,2.149-.334,1.463-.342,1.461,1.187,2.122a4.765,4.765,0,0,0,2.056,1.682A19.78,19.78,0,0,0,88.3,17.965c.519-1.832.465-1.849-1.594-2.09q-.581,2.11-1.163,4.229A.812.812,0,0,1,84.889,20.769Zm35.523,50.014.039.041c-.334-.418-.648-.978-1.271-.821a48.5,48.5,0,0,1-5.769.881c-.529.068-.626.407-.538.866a5.375,5.375,0,0,0,6.446,3.519c2.177-.876,4.341-1.785,6.511-2.68,1.24-.8,2.529-1.531,3.709-2.41a3.207,3.207,0,0,0,.7-4.913c-.563-.753-1.23-1.427-1.806-2.17a6.214,6.214,0,0,1-1.533-3.237,18.25,18.25,0,0,0-.652-3.362A64.818,64.818,0,0,0,123.9,48.81a29.381,29.381,0,0,0-4.511-6.9,17.624,17.624,0,0,0-7.32-5.518,7.817,7.817,0,0,0-8.16,1.03A36.255,36.255,0,0,1,99.836,40c-3.134,1.811-6.31,3.55-9.441,5.365-8.823,5.114-17.686,10.156-26.707,14.913-7.663,4.04-15.13,8.411-22.46,13.022a8.612,8.612,0,0,0-.816.574A54.964,54.964,0,0,1,32.6,79.208a5.2,5.2,0,0,0-2.369,1.821c5.293,2.329,9.948,5.373,13.129,10.283s5.837,14.23,4.125,16.068a1.7,1.7,0,0,0-1.756-1.538,23,23,0,0,1-3.15-.673c-.373-.09-.815-.172-.722-.814.74-.288,1.411.132,2.11.278a13.3,13.3,0,0,0,1.957.446c.873.052,1.262-.173,1.1-1.116-.111-.648-.276-1.09-1.033-1.263a23.353,23.353,0,0,0-3.177-.532,2.215,2.215,0,0,1-2-.89c2.071-.363,3.785.478,5.656.361-.309-1.162-.557-2.194-.86-3.209a1.868,1.868,0,0,0-1.843-1.491,28.449,28.449,0,0,1-5.6-.628c-.424-.128-.867-.195-.979-.839,1.309-.115,2.463.5,3.671.328,1.166-.162,2.318.551,3.518.166a19.713,19.713,0,0,0-6.609-9.282,2.39,2.39,0,0,0-1.531-.346c-2.955-.124-5.911-.242-8.865-.394-.3-.016-.851.245-.894-.633,2.9-.409,5.826.2,8.939-.071-.445-.626-.853-1.076-1.382-.928-1.6.446-3.164-.312-4.774-.02-.535.1-1.871.212-1.777-.657.092-.849,1.234-.279,1.9-.288.993-.012,1.99.492,3.2.085-.988-.947-2.183-.9-3.054-1.517-.342-.242-.642-.087-.913.122-2.113,1.623-4.642,2.62-6.64,4.416l-.167.17a16.56,16.56,0,0,0-6.8,4.936,11.185,11.185,0,0,1,7.639,5.016q2.619,3.578,5.332,7.081a18.431,18.431,0,0,1,3.12,6.709c.4,1.491.7,3.013.958,4.535a23.951,23.951,0,0,0,4.007,9.161c.191.289.406.6.741.641a14.926,14.926,0,0,0,3.885.3c2.563-.408,4.63-2.041,6.839-3.291.192-.109.269-.422.4-.634-3.985-2.962-5.036-4.465-4.293-6.091.319.036.443.277.524.534a8.176,8.176,0,0,0,3.121,3.849c1.277,1,1.525,1.017,2.794-.027,1.227-1.01,2.369-2.122,3.591-3.228-.624-.6-1.132-.981-2-.652-1.821.689-3.672.174-5.6.082.425-.822,1.093-.623,1.655-.666.938-.071,1.881-.083,2.82-.154.33-.025.706-.163.644-.582-.056-.382-.409-.51-.771-.481-.8.064-1.608.144-2.41.23a10.948,10.948,0,0,1-3.763.026c1.983-1.172,3.905-.7,5.531-1.426a4.249,4.249,0,0,0-.039-.588c-.039-.2-.137-.38-.188-.574-.116-.441-.4-1.027.143-1.248.631-.258.722.443.873.838a8.134,8.134,0,0,0,2.943,3.75,1.686,1.686,0,0,0,2.326-.052c1.924-1.475,3.673-3.142,5.533-4.683,4.348-3.6,9.138-6.609,13.614-10.042,1.221-.937,2.366-1.993,3.671-2.807a76.33,76.33,0,0,0,9.729-7.136,45.705,45.705,0,0,1,15.5-8.791q3.242-1.1,6.438-2.335c1.851-.716,3.666-1.523,5.724-2.385-.829-.522-1.432-.909-2.042-1.285a4.638,4.638,0,0,1-2.045-2.89c-.384-1.457-.078-1.891,1.427-2.2,1.381-.284,2.767-.543,4.155-.787.763-.134,1.262-.407,1.061-1.321-.056-.255.1-.524.637-.627a7.129,7.129,0,0,0,5.555,3.955c.7.128.874.756,1.069,1.322a5.42,5.42,0,0,0-1.309-.436A9.684,9.684,0,0,1,120.412,70.782ZM94.277,20.619a19.337,19.337,0,0,0-3.49-3.025c-.8-.607-1.152-.491-1.472.451-.451,1.33-.837,2.684-1.2,4.041-.409,1.536-.336,1.653,1.2,2.721,1.244-1.638.82-3.942,2.114-5.907a2.974,2.974,0,0,1,.106,2.456c-.31,1.1-.6,2.2-1,3.271a1.682,1.682,0,0,0,1.108,2.464,30.539,30.539,0,0,0,1.416-4.546c.114-.623-.057-1.594,1.024-1.708a4.407,4.407,0,0,1-.076,2.176,29.507,29.507,0,0,1-1.431,3.746c-.545,1.4-.395,1.692,1.062,2.665a14.542,14.542,0,0,0,1.827-4.87c.059-.4.289-.84.791-.682.4.125.241.533.188.864a21.013,21.013,0,0,1-1.768,4.474c-.661,1.634-.7,1.634.794,3.066.362-.966.668-1.912,1.07-2.814.366-.821.148-2,1.547-2.548a8.237,8.237,0,0,1-1.017,3.6A6.293,6.293,0,0,0,97.1,37.1a1.464,1.464,0,0,1,.043.2c.427,1.194.64,1.29,1.716.695.879-.486,1.712-1.063,2.616-1.493a1.449,1.449,0,0,0,.853-1.978,22.1,22.1,0,0,0-1.444-3.995c-1.641.989-1.143,3.2-2.633,4.47a7.536,7.536,0,0,1,1.359-4.738,2.029,2.029,0,0,0,.054-2.209,24.707,24.707,0,0,0-5.388-7.429Zm-52.9,50.13c1.229-.765,2.371-1.444,3.481-2.172,3.585-2.35,7.117-4.788,10.905-6.807,5.448-2.9,10.964-5.682,16.363-8.672,6.459-3.577,12.83-7.315,19.231-11,1.4-.8,2.927-1.345,4.3-2.217a1.339,1.339,0,0,0,.664-1.773l-.02-.042a26.092,26.092,0,0,0-3.4-7.049,52.932,52.932,0,0,0-5.924-6.577,21.8,21.8,0,0,0-7.474-5,2.361,2.361,0,0,0-2.45.1c-2.468,1.5-5.029,2.844-7.512,4.308-4.565,2.69-9.1,5.462-13.45,8.478-5.515,3.822-11.245,7.3-16.9,10.89-1.319.837-2.4,1.976-3.706,2.73-3.38,1.953-6.415,4.389-9.657,6.529-.324.214-.823.319-.706.83.109.477.619.426.988.557a10.5,10.5,0,0,1,2.6,1.075A31.319,31.319,0,0,1,39.276,66.371C40,67.791,40.658,69.248,41.375,70.749Zm62.193-35.608c1.263-.453,2.329-.847,3.4-1.218a4.284,4.284,0,0,1,3.146-.278c1.6.817,2.508,0,3.535-.9a11.167,11.167,0,0,1,1.29-.954c1.463-.951,1.657-1.344,1.2-2.978A17.318,17.318,0,0,0,113.5,23.2c-1.547-2.109-3.205-4.137-4.841-6.179A20.077,20.077,0,0,0,98.472,9.828a4.536,4.536,0,0,0-2.736-.055,20.908,20.908,0,0,0-5.473,2.512c-.98.651-2.254.826-3.179,1.956C96.22,18.345,100.9,25.882,103.568,35.142ZM21.1,102.607a8.343,8.343,0,0,0,1.288,2.409,10.882,10.882,0,0,1,1.6,4.085,1.484,1.484,0,0,1-.769,1.535c-.7.327-1.106-.259-1.46-.753a30.469,30.469,0,0,1-2.945-5.035,4.2,4.2,0,0,1-.287-2.753c.184-.794.552-1.173,1.373-1.121a6.336,6.336,0,0,1,3.721,1.326,11.651,11.651,0,0,1,3.224,4.763,9.726,9.726,0,0,1,1,4.678,3.388,3.388,0,0,1-5.376,2.757,10.64,10.64,0,0,1-3.571-3.492c-1-1.745-2.114-3.437-2.99-5.243a12.439,12.439,0,0,1-1.393-5.626,3.675,3.675,0,0,1,2.367-3.817c.924-.348,1.857-.673,2.807-1.016a3.494,3.494,0,0,0-1.656-1.488c-3.207-2.025-6.17-.742-7,2.939a12.4,12.4,0,0,0,.789,7.5,34.987,34.987,0,0,0,8.057,11.933,5.609,5.609,0,0,0,3.386,1.59c2.2.27,3.826-.788,5.571-1.825a2.822,2.822,0,0,0,1.484-3.192,18.155,18.155,0,0,0-3.33-8.543,65.85,65.85,0,0,1-4.581-5.872,3.836,3.836,0,0,0-1.574-1.23,3.383,3.383,0,0,0-5.016,2.229,4.982,4.982,0,0,0,.047,2.187c.655,3.3,2.474,6.083,4.023,8.962a8.4,8.4,0,0,0,3.583,3.18c1.183.629,2.02.266,2.166-1.042a11.615,11.615,0,0,0-.191-5.194C24.709,105.36,23.786,103.348,21.1,102.607Zm5.6-22.544c1.753-1.035,3.339-1.9,4.972-2.682,2-.96,2.3-1.766,1.375-3.867A43.053,43.053,0,0,0,30.4,68.328a23.774,23.774,0,0,0-9.216-9.035,12.318,12.318,0,0,0-4.062-1.065,1.86,1.86,0,0,0-1.534.34,32.174,32.174,0,0,1-4.018,2.653c-.294.193-.751.379-.57.9C19.682,65,23.99,71.724,26.7,80.063Zm4.686-18.632a2.028,2.028,0,0,1,.131,2.026,11,11,0,0,1-.788,1.851,1.333,1.333,0,0,0,.012,1.482,41.01,41.01,0,0,1,3.709,7.571c.161.506.494.6.921.339,1.255-.773,2.49-1.58,3.754-2.338,1.008-.6,1.026-1.313.618-2.371a29.238,29.238,0,0,0-7.166-10.573,29.6,29.6,0,0,0-4.606-3.578c-1.406-.9-1.661-.773-2.39.714-.34.7-.347,1.615-1.206,2.13a9.487,9.487,0,0,1,.336-2.9c.111-.8-.2-1.226-1.048-1.252a14.72,14.72,0,0,1-.825,2.971c-.141.3-.364.418-.626.276a.634.634,0,0,1-.239-.5c.037-.639.64-1.21.184-2.026a4.765,4.765,0,0,0-2.954,2c2.634.539,4.421,2.394,6.751,3.393l1.35-3.856c.63.2.737.578.614.99a18.615,18.615,0,0,1-.793,2.274c-.755,1.693-.654,2.037,1.133,3.1.877-1.322.5-3.118,1.44-4.407.616.23.453.589.451.9a8.334,8.334,0,0,1-1.007,3.25c-.417.95-.308,1.633.679,2.065.994-.961.606-2.473,1.563-3.523ZM14.556,70a54.313,54.313,0,0,1,4.869,6.652,6.485,6.485,0,0,1,1.368,2.879,1.13,1.13,0,0,1-.423,1.256,1.035,1.035,0,0,1-1.278-.283,27.078,27.078,0,0,1-5.973-8.742,2.179,2.179,0,0,1,.689-2.739,2.794,2.794,0,0,1,3.04-.262,9.044,9.044,0,0,1,2.868,2.5,47.852,47.852,0,0,1,4.222,8c.242.644.32,1.951.915,1.774,1.176-.351.465-1.591.23-2.259A26.15,26.15,0,0,0,17.44,67.14a4.678,4.678,0,0,0-5.065-.856,2.19,2.19,0,0,0-1.749,2.556h0a9.345,9.345,0,0,0,1.165,3.82,38.805,38.805,0,0,0,6.061,8.491,9.739,9.739,0,0,0,2.43,2.088c1.245.694,1.636.6,2.659-.347a2.2,2.2,0,0,0,.362-2.608,21.03,21.03,0,0,0-1.565-3.7,33.622,33.622,0,0,0-3.8-5.89,2.622,2.622,0,0,0-3.379-.7Zm-2.331-5.928c-2.054-1.044-3.52-.731-4.736.815a6.067,6.067,0,0,0-.8,5.922,33.162,33.162,0,0,0,5.053,9.335,23.9,23.9,0,0,0,4.615,5.018,2.242,2.242,0,0,0,2.783.215c.778-.465.852-.751.164-1.3A32.752,32.752,0,0,1,10.522,72.7C8.79,69.171,8.554,66.126,12.225,64.067Zm68.2-45.749a3.6,3.6,0,0,0,2.1,1.11,1.158,1.158,0,0,0,.317-1.017c-.056-.568.6-1.287-.051-1.66-.686-.394-1.2.328-1.722.716a1.32,1.32,0,0,0-.64.852Z" transform="translate(12728 6934.589)" fill="#cf8fab"/><path d="M66.353,35.378c2,.186,3.734,1.39,5.813,1.182,1.966-.2,3.977.154,6.322-.063-1.527-1.03-2.965-.682-4.276-.785-1.389-.109-2.779-.163-4.547-.329,1.161-.772,2.2-.161,3.044-.63-.591-.786-1.584-.152-2.326-.781.486-.378,1.008-.159,1.464-.235.58-.1,1.559.14.769-1.067-.306-.467.259-.667.684-.628a6.42,6.42,0,0,1,2.733,1.225A36.829,36.829,0,0,1,84.822,40.9a24.686,24.686,0,0,1,5.361,12.4c.084.548.281,1.2-.254,1.709-.622.012-.523-.466-.549-.822a.814.814,0,0,0-.718-.834,32.507,32.507,0,0,0-4.587-1.14,29.2,29.2,0,0,1,.352,6.171c-.9-.329-.68-1.051-.709-1.579-.306-5.473-3.018-9.772-6.6-13.649a26.569,26.569,0,0,0-9.429-6.373C67.113,36.54,66.334,36.473,66.353,35.378ZM75.178,39.6a4.057,4.057,0,0,0,3.357,2.116c1.328.107,2.619.534,3.976.547.555.006,1.256-.083,1.565.886-2.076.166-3.98-.664-6.418-.774a26.288,26.288,0,0,1,5.733,8.545.937.937,0,0,0,.7.644c1.319.22,2.635.46,3.957.657.305.046.707.09.813-.361a.893.893,0,0,0-.311-.907,4.233,4.233,0,0,0-1.12-.38,13.054,13.054,0,0,1-3.488-1.414c1.646-.2,2.815.731,4.216.321a18.555,18.555,0,0,0-4.563-8.336,2.565,2.565,0,0,0-2.716-1.166,8.283,8.283,0,0,1-3.392-.276,4.5,4.5,0,0,0-2.306-.1Zm5.989-.394c-.669-1.222-1.256-1.71-2.36-1.7-1.8.01-3.593-.168-5.39-.271a2.39,2.39,0,0,0-1.725.2c2.948,2.219,6.165,1.3,9.474,1.77Z" transform="translate(12753.717 6944.541)" fill="#cf8fab"/><path d="M91.183,50.454c-.783-.943-1.779-1.123-2.695-1.872a3.5,3.5,0,0,1,2.922.775,1.217,1.217,0,0,0,1.717-.11h0c.57-.466,1.208-.847,1.8-1.288a3.738,3.738,0,0,1,1.985-.715,13.583,13.583,0,0,1-3.344,2.8,51.676,51.676,0,0,1-8.806,5.225c-2.837,1.176-5.434,2.917-8.206,4.269A84.183,84.183,0,0,0,63.025,68.19c-.486.365-1.144,1.439-1.757.584-.418-.584.692-.994,1.17-1.379a93.555,93.555,0,0,1,18.9-11.416c2.18-1.03,4.359-2.074,6.478-3.222a38.43,38.43,0,0,0,3.368-2.3Z" transform="translate(12751.536 6950.944)" fill="#cf8fab"/><path d="M23.844,65.014a28.621,28.621,0,0,0,3.679,2.9l-.044-.046A48.656,48.656,0,0,1,33.5,76.616a39.23,39.23,0,0,1,2.578,5.892c.5,1.623.93,3.213,3.11,3.449-.592.806-1.862.025-1.942,1.266a4.661,4.661,0,0,1-.271,2.259c-.613-.045-.629-.442-.643-.737-.252-5.283-2.662-9.778-5.224-14.2a25.762,25.762,0,0,0-3.552-4.865c-2.687-2.832-5.713-5.04-9.777-5.331-.584-.042-.858-.283-.862-.854l.167-.17a15.69,15.69,0,0,1,6.794,1.726Z" transform="translate(12732.895 6957.718)" fill="#cf8fab"/><path d="M47.894,75.17c-.236.311-.317.525-.469.6-2.773,1.437-4.844,3.8-7.358,5.559-2.311,1.616-4.451,3.426-6.685,5.121a34.718,34.718,0,0,1-5.661,3,4.045,4.045,0,0,1-1.37.281.626.626,0,0,1-.488-.257.41.41,0,0,1,.3-.612,23.8,23.8,0,0,0,4.692-2.227,11.094,11.094,0,0,0,3.5-2.3c1.915-2.013,4.5-3.136,6.56-4.955,1.256-1.107,2.58-2.138,3.91-3.155a4.806,4.806,0,0,1,3.061-1.068Z" transform="translate(12736.64 6962.708)" fill="#cf8fab"/><path d="M55.614,67.86a43.43,43.43,0,0,1-8.442,6.274,3.081,3.081,0,0,1-1.148.336c-.3.04-.709.074-.769-.394-.04-.314.2-.476.454-.579A36.366,36.366,0,0,0,52.975,68.9C53.69,68.388,54.334,67.64,55.614,67.86Z" transform="translate(12744.828 6959.612)" fill="#cf8fab"/><path d="M21.825,64.786c-.034-.444.059-.853.6-.82a48.561,48.561,0,0,1,8.029.468.848.848,0,0,1,.777.673c-3.152-.518-6.307.088-9.436-.357Z" transform="translate(12734.947 6957.982)" fill="#cf8fab"/><path d="M24.393,66.814c.055-.377-.011-.814.582-.851a18.677,18.677,0,0,1,7.958,1.265c-2.889.218-5.713-.552-8.584-.46Z" transform="translate(12736.024 6958.815)" fill="#cf8fab"/><path d="M33.751,69.189a27.722,27.722,0,0,1-7.562-1.071C27.718,67.484,31.66,68.088,33.751,69.189Z" transform="translate(12736.8 6959.629)" fill="#cf8fab"/><path d="M35.079,73.268a12.249,12.249,0,0,1-5.816-.442C30.291,72.187,33.02,72.322,35.079,73.268Z" transform="translate(12738.094 6961.555)" fill="#cf8fab"/><path d="M25.485,53.521c.421-1.666,1.2-3.206,1.549-4.884a.543.543,0,0,1,.57-.462c.377.018.429.333.377.569a7.357,7.357,0,0,1-2.5,4.777Z" transform="translate(12736.503 6951.337)" fill="#cf8fab"/><path d="M24.268,51.637c.524-1.538,1.039-3.08,1.586-4.61.057-.161.31-.238.676-.053A9.859,9.859,0,0,1,24.72,51.8Z" transform="translate(12735.99 6950.787)" fill="#cf8fab"/><path d="M28.774,50.434a8.865,8.865,0,0,1-2.029,4.5,5.393,5.393,0,0,1,2.029-4.5Z" transform="translate(12737.03 6952.289)" fill="#cf8fab"/><path d="M89.746,53.36C88.517,54.6,86.325,55.021,83.1,54.7A23.107,23.107,0,0,1,89.746,53.36Z" transform="translate(12760.77 6953.521)" fill="#cf8fab"/><path d="M88.248,52.3c.147.715-.34.994-.876,1.1a13.893,13.893,0,0,1-5.71.007c2.118-.934,4.449-.546,6.625-1.068Z" transform="translate(12760.164 6953.074)" fill="#cf8fab"/></g></svg>