<svg xmlns="http://www.w3.org/2000/svg" width="232.001" height="246.778" viewBox="0 0 232.001 246.778"><g transform="translate(-14.763 -12.545)"><path d="M39.316,192.744c.453,6.213-2.424,8.291-9.149,6.715a18.368,18.368,0,0,1-2.873-1.032,1.4,1.4,0,0,1-.811-2.243c2.033-3.378,1.411-7.271,1.782-10.889a12.412,12.412,0,0,1,2.727-6.521,2.617,2.617,0,0,0-.023-3.689c-2.405-3.468-4.61-7.078-6.809-10.684a48.244,48.244,0,0,1-3.611-10.073,136.446,136.446,0,0,1-4.847-22.7,88.738,88.738,0,0,1-.59-20.75A110.423,110.423,0,0,1,19.5,86.765,72.25,72.25,0,0,1,28.02,66.577c1.891-2.753,3.37-5.76,5.427-8.469a41.811,41.811,0,0,1,13.559-10.3c8.185-4.713,17.5-5.36,26.237-8.042,4.256-1.306,8.948-1.125,13.31-2.169a97.4,97.4,0,0,1,15.467-1.71,139.785,139.785,0,0,0,15.542-1.526c2.326-.443,1.761-2.379,1.859-3.649a2.007,2.007,0,0,0-2.439-2.185c-4.057.153-4.414-.573-3.46-4.52a8.847,8.847,0,0,0-.894-5.1c-.627-1.658-.018-2.459,1.114-2.756,3.041-.8,5.406-2.983,9.174-2.7a29.925,29.925,0,0,0,8.521-.908,23.711,23.711,0,0,1,3.53.309,1,1,0,0,1,.98,1.152c-1.472,3.184,1.569,5.583,1.383,8.6-.124,2,.186,3.431-2.69,2.835-1.178-.244-3.228.27-2.078,2.558.707,1.406-.621,3.279.777,4.324,1.319.986,2.793-.542,4.322-.312a3.938,3.938,0,0,0,3.877-1.078,1.3,1.3,0,0,1,1.744-.1c3.123,1.826,6.467.777,9.771.881a96.571,96.571,0,0,1,12.5.939c8.272,1.344,16.393,3.384,24.547,5.2a89.742,89.742,0,0,1,13.564,5.527,64.578,64.578,0,0,1,18.873,12.945c2.988,2.719,5.331,5.985,8.031,8.939,4.039,4.418,5.62,10,8.089,15.228A91.463,91.463,0,0,1,246.1,110a90.144,90.144,0,0,1-.6,25.9,89.139,89.139,0,0,1-8.929,24.1,46.327,46.327,0,0,1-8.594,12.807,75.608,75.608,0,0,1-9.932,8.917c-3.569,2.418-7.308,4.546-10.893,6.921a44.325,44.325,0,0,1-12.043,4.024c-4.766,1.5-4.306,1.4-4.129,6.2.268,7.254,4.873,11.912,9.1,16.768,1.811,2.08,4.565,3.219,6.639,5.324a27.718,27.718,0,0,1,7.986,16.078c.091.645.141,1.3.288,1.932.843,3.611.5,4.319-2.767,6.037-.646.34-1.089,1.066-1.734,1.412a2.636,2.636,0,0,1-3.105.235c-6.338-4.327-13.819-5.9-20.845-8.591-4.3-1.645-8.838-2.509-13.077-4.4a92.359,92.359,0,0,0-12.016-3.306c-6.2-1.806-12.287-3.985-18.4-6.084-3.241-1.114-6.659-1.4-9.948-2.425a15.5,15.5,0,0,0-9.517,1.446c-1.2.427-1.533,1.29-.364,2.314a18.045,18.045,0,0,0,6.051,4.3c5.891,1.9,8.54,6.882,11.232,11.78a33.274,33.274,0,0,1,4.007,12.839,4.109,4.109,0,0,1-4.983,4.691c-4.235-.181-7.732-2.545-11.633-3.244a147.869,147.869,0,0,1-14.361-3.9c-7.678-2.185-15.478-3.995-23.034-6.556-7.827-2.653-16.034-3.514-23.954-5.688-6.681-1.834-13.48-3.232-20.177-5.011a70.773,70.773,0,0,1-10.7-2.7c-2.369-1.039-5.247-5.2-4.272-7.642,1.037-2.6,1.152-5.406,2.386-7.944a4.577,4.577,0,0,1,6.149-3.032c5.71.978,11.028-.6,12.5-6.451,1.071-4.24.583-5.413-3.467-7.066a44,44,0,0,1-9.658-7.245Zm67.853-28.807a22.365,22.365,0,0,0,3.9-12.5c-3.784,3.969-3.471,8.367-3.83,12.557a11.459,11.459,0,0,0-2.141,7.081,1.278,1.278,0,0,0,.827.655c.671.079.638-.513.644-.96a28.849,28.849,0,0,1,.6-6.838ZM48.355,183.183a60.164,60.164,0,0,0,9.214,7.686,14.476,14.476,0,0,0,8.45,1.834,40.969,40.969,0,0,0,9.47.454A29.285,29.285,0,0,0,87.9,187.135a30.832,30.832,0,0,0,8.818-9.3,58.019,58.019,0,0,0,6.056-15.566,131.492,131.492,0,0,0,2.642-17.6c.371-5.068-.6-10.105-.673-15.182a20.775,20.775,0,0,0-.463-8.991,9.781,9.781,0,0,1-.553-3.561,58.453,58.453,0,0,0-3-13.738c-.791-2.4-1.78-4.8-2.742-7.161A41.894,41.894,0,0,0,93.669,85.55c-4.324-5.579-7.225-12.02-11.28-17.776a26.026,26.026,0,0,0-10.852-8.459c-.738-.35-2.258-1.15-2.006,1.605.313,3.427-.4,7.027-.4,10.569a1.106,1.106,0,0,1-.984,1.179,1.012,1.012,0,0,1-1.119-1.01c.084-3.509-1.393-6.982-.093-10.533.886-2.418.084-3.26-2.681-3.059a44.454,44.454,0,0,1-5.426.465,14.714,14.714,0,0,0-11.3,3.325,2.5,2.5,0,0,1-1.483.679,5.872,5.872,0,0,0-3.989,2.208A28.422,28.422,0,0,0,35.74,75.536c-.758-.349-.2-1.538-1.143-1.5a1.519,1.519,0,0,0-1.149,1.387c-2.177,5.248-3.309,10.822-5.081,16.184a46.229,46.229,0,0,0-2.056,12.269c-.213,4.129-.284,8.261-.59,12.4a50.628,50.628,0,0,0-.514,7.226c.39,5.656,2.012,11.127,2.613,16.735a72,72,0,0,0,4.037,16.853c1.252,3.463,3.009,6.741,4.353,10.174a15.372,15.372,0,0,0,5.482,6.795c1.572,1.165,2.34.579,2.61-1.163a9.7,9.7,0,0,1,2.3-5.471,1.68,1.68,0,0,0-.655-2.948c-.844-.382-1.67-.8-2.5-1.223a3.85,3.85,0,0,1-1.994-4.254,2.933,2.933,0,0,1,2.456-2.557c4-1.694,7.722.647,11.6.612a2.861,2.861,0,0,1,2.876,2.9,4.214,4.214,0,0,1-3.483,3.5,11.689,11.689,0,0,0-2.818,1.116,1.873,1.873,0,0,0-.836,2.422c2.677-1,1.525,1.591,2,2.407a2.983,2.983,0,0,1,.79,3.516c-.308.473.49.67.939.62A9.157,9.157,0,0,0,61.424,172a2.136,2.136,0,0,1,3.569.452,10.621,10.621,0,0,1-.074,12.378,4.145,4.145,0,0,1-5.409.8c-3.351-3.032-7.078-2.283-11.155-2.447Zm25.131,27.363c-.149-3.331-1.823-3.966-4.257-3.3a.941.941,0,0,1-1.012,0c-1.733-2.609-4.938-2.28-7.275-3.695-3.341-2.023-4.25-1.533-4.756,2.247a13.017,13.017,0,0,1-13.662,11.9c-.472,0-.945-.026-1.414.007a6.3,6.3,0,0,0-5.768,6.1,4.3,4.3,0,0,0,3.859,4.9c5.333,1.186,10.39,3.273,15.743,4.477,3.9.877,7.871,1.979,11.756,2.908,4.261,1.019,8.658,1.93,12.974,2.842,9.725,2.055,19.332,4.731,28.895,7.478a144.133,144.133,0,0,0,23.808,6c.66.073,1.259.494,1.642-.216a4.328,4.328,0,0,0-.733-3.629c-.314-1.06-.882-.857-1.777-.989-2.686-.4-4.839,1.936-7.494,1.2-4.977-1.376-10.023-2.553-14.9-4.222-2.407-.823-5.345-.6-6.885-2.519,9.727-1.658,18.989,3.872,28.865,2.85-.527-5.269-5.248-6.831-8.159-9.924a1.12,1.12,0,0,0-1.035-.219c-3.269,2.022-6.631.32-9.673-.251C98.871,232,85.8,228.244,72.742,224.477a1.715,1.715,0,0,1-1.548-1.65,1.492,1.492,0,0,1,1.724-1.144,3.439,3.439,0,0,1,2.9.63,10.04,10.04,0,0,0,5.119,2.742c6.834,1.9,13.653,3.88,20.552,5.514,3.768.893,7.677,1.19,11.4,2.37a1.065,1.065,0,0,0,1.465-.366,1.013,1.013,0,0,0-.934-1.188c-5.52-1.6-10.657-4.222-16.159-5.9-5.973-1.823-11.817-4.067-17.732-6.085a.806.806,0,0,1-.656-1.008.864.864,0,0,1,1.111-.876c.642.115,1.317.1,1.939.273,4.344,1.23,8.643,2.636,13.024,3.707,3.755.918,7.349,2.847,11.781,2.271a6.235,6.235,0,0,0-1.129-.9c-4.362-1.712-8.981-2.645-13.376-4.2a185.72,185.72,0,0,0-23.985-6.655,3.706,3.706,0,0,1-1.749-.792c-.524-.5-1.714-.885-.937-1.982a1.607,1.607,0,0,1,2.337-.7,52.7,52.7,0,0,0,5.591,2.008ZM173.625,112.2a157.548,157.548,0,0,0-4.867-23.728,1.419,1.419,0,0,0-1.825-.955c-3.374.683-6.888.531-10.2,1.288-7.09,1.622-14.244,2.769-21.43,3.791-3.1.441-3.853,1.576-3.027,4.5.527,1.863.983,3.747,1.468,5.622,1.18,4.555,1.047,9.3,1.992,13.871.162.785-.3,2.6,1.018,2.418,5.518-.755,11.112-1.109,16.56-2.039a170.282,170.282,0,0,0,18.234-2.8A2.375,2.375,0,0,0,173.625,112.2Zm-3,36.144c-.061-1.806.492-3.775-2.77-2.681a8.072,8.072,0,0,1-4.644.622,18.236,18.236,0,0,0-8.164.336c-5.944.868-11.74,2.681-17.77,3.188-.753.063-1.5.806-1.171,1.262,1.23,1.724-.454,2.827-.715,4.188a72.694,72.694,0,0,1-4.632,15.665c-1.052,2.393.005,2.669,2.045,2.682a10.492,10.492,0,0,1,2.662-.388,41.378,41.378,0,0,0,13.064-.563,68.108,68.108,0,0,0,13.514-2.462,2.458,2.458,0,0,1,1.878.3c1.585,1.1,1.839-.083,2.073-1.14a77.958,77.958,0,0,1,2-9.179,73.727,73.727,0,0,0,2.635-11.829Zm48.566-8.816a72.933,72.933,0,0,0-17.093,2.308,84.461,84.461,0,0,0-16.355,3.9,2.01,2.01,0,0,0-1.616,1.9,70.455,70.455,0,0,1-5.924,20.381c-.658,1.607-.222,2.161,1.531,2.182a23.215,23.215,0,0,0,4.689-.621,108.882,108.882,0,0,0,14.372-2.957c4.679-1.579,9.355-3.25,14.012-4.936a3.479,3.479,0,0,0,2.517-2.9,76.176,76.176,0,0,1,2.482-9.948,23.5,23.5,0,0,0,1.384-9.3Zm-45.742-21.984a5.52,5.52,0,0,1-3.315,1.135,55.318,55.318,0,0,0-9,.634c-7.583,1.421-15.322,1.814-22.85,3.678-1.771.439-1.827.572-1.334,2.074a10.827,10.827,0,0,1,1.022,5.294,77.585,77.585,0,0,0-.87,13.1c-.19,2.73,1.086,3,3.132,2.382a45.9,45.9,0,0,1,8.714-1.508c6.386-.634,12.61-2.329,19.042-2.63a3.481,3.481,0,0,0,4.05-1.616,39.706,39.706,0,0,0,1.441-12.045C173.356,124.587,174.724,121.188,173.446,117.546Zm-8.7-33.381c1.781.471,3.07-.221,2.229-1.983a66.643,66.643,0,0,0-4.905-8.256,67.314,67.314,0,0,1-5.572-7.763,4.163,4.163,0,0,0-5.724-2.288,77.354,77.354,0,0,1-11.3,1.469c-5.531,1.094-11.14,1.786-16.607,3.236-1.324.351-1.528.843-1.411,2.3.2,2.487,2.693,3.37,3.182,5.6a76.952,76.952,0,0,0,4.8,12.006,2.543,2.543,0,0,0,2.876,1.452,36.561,36.561,0,0,0,5.374-1.261c7.514-1.235,15.054-2.308,22.578-3.487C161.771,84.949,163.25,84.51,164.744,84.165Zm51.195,28.815a55.208,55.208,0,0,0-8.939.687c-6.351.588-12.642,1.814-18.973,2.66A1.706,1.706,0,0,0,186.341,118a20.651,20.651,0,0,0,.031,7.988,65.121,65.121,0,0,1-1.058,13.068c-.115,1.171-.5,2.259,1.716,1.762,5.675-1.273,11.633-1,17.208-2.944,4.757-1.66,9.879-1.324,14.7-2.725a1.615,1.615,0,0,0,1.46-1.814,155.23,155.23,0,0,0-.284-18.918,1.371,1.371,0,0,0-1.636-1.463,19.216,19.216,0,0,1-2.54.029Zm-26.352-26a10.834,10.834,0,0,0-4.707.517,2.082,2.082,0,0,0-1.8,2.439c.852,2.474.89,5.072,1.525,7.574a46.833,46.833,0,0,1,1.805,11.83c-.022,3.352.735,3.889,4.149,3.116,8.428-1.909,17.109-1.907,25.616-3.315,2.427-.4,2.893-1.165,2.416-3.058-1.616-6.409-3.357-12.786-5-19.19-.233-.911-.558-1.9-1.524-1.6a23.72,23.72,0,0,1-6.484.319,111.34,111.34,0,0,0-16,1.369Zm22.041-5.3a2.063,2.063,0,0,0-.239-2.413,12.187,12.187,0,0,1-1.83-4.369,52.107,52.107,0,0,0-5.267-11.077,3.044,3.044,0,0,0-2.605-1.276c-5.99-.416-11.97.076-17.953.045-3.159-.017-6.248.786-9.364.983-2.36.149-1.342,1.183-.917,2.036a54.974,54.974,0,0,1,3.483,5.6c1.174,3.178,2.263,6.374,3.3,9.6s2.283,3.829,5.655,2.984c.447-.112.9-.181,1.358-.26,5.223-.917,10.545-.8,15.8-1.573C205.834,81.552,208.726,79.923,211.628,81.681Zm-75.6-36.687a162.5,162.5,0,0,0-25.446,4.425c-2.724.7-2.357,1.416-1.227,3.25,2.27,3.686,5.824,6.45,7.589,10.437a2.813,2.813,0,0,0,3.256,1.911c2.613-1.132,5.367-.214,7.9-1.034a70.33,70.33,0,0,1,15.006-2.529c2.229-.218,4.46-.438,6.7-.544a2.781,2.781,0,0,0,2.444-.983,2.292,2.292,0,0,0-1.063-2.129c-2.588-3.218-5.489-6.2-7.933-9.515a7.108,7.108,0,0,0-7.222-3.289Zm28.078,129.361c-1.9,1.126-3.424-.1-5.253.042-4.809.375-9.39,1.849-14.185,2.265a122.711,122.711,0,0,0-14.942.826,2.11,2.11,0,0,0-2.253,1.136c-1.877,4.58-3.927,9.089-5.912,13.625-.4.917-.488,1.579.867,1.689a102.157,102.157,0,0,0,18.427-.856c5.443-.544,10.6-2.924,16.068-3.757a2.461,2.461,0,0,0,1.86-1.708C160.614,183.433,162.409,179.235,164.106,174.356Zm29.166,48.361a29.558,29.558,0,0,1-4.971-.926,3.676,3.676,0,0,0-3.327-.267c-1.523,2.122-3.3,1.132-5.06.992a35.224,35.224,0,0,0-9.477-.638,87.386,87.386,0,0,0,11.131,3.223c5.4,1.627,11.675.416,16.2,5.02.545.555,1.305.888,1.016,1.7-.46,1.3-1.254.179-1.825.047-3.056-.7-6.068-1.608-9.134-2.254-6.6-1.389-13.227-2.675-19.85-3.969-.762-.149-1.956-.415-1.788-.995.962-3.322-1.894-2.361-3.22-2.966-2.386-1.087-5.136-1.17-7.477-2.447.749-1.837,3.028.252,3.681-1.609a1.1,1.1,0,0,0-.366-.4c-4.646-.354-8.905,1.582-13.373,2.3a1.064,1.064,0,0,0-.676.727,1.752,1.752,0,0,0,1.285.888,198.372,198.372,0,0,0,23.463,7.334,166.866,166.866,0,0,1,17.051,5.384c1.414.61,3.229,1.916,4.512-.586a2.02,2.02,0,0,1,2.093-.06c3.05.74,6.119,1.421,9.207,1.973a2.2,2.2,0,0,0,2.582-.416,2.4,2.4,0,0,0-.372-2.662,55.071,55.071,0,0,0-5.076-7.249c-3.075-2.56-6.125-5.162-9.343-7.532a10.812,10.812,0,0,1-4.48-5.779,38.044,38.044,0,0,0-2.524-5.525,9.284,9.284,0,0,0-3.078.235,16.433,16.433,0,0,0-7.051,1.068,2.819,2.819,0,0,0-1.315,3.925c.356,1.709,1.479.869,2.549.971,2.229.214,4.461.282,6.684.49a1.1,1.1,0,0,1,.82,1.585c-2.124,0-4.286-.043-6.445.019-1.045.03-2.734-.508-2.815.94a2.929,2.929,0,0,0,2.715,1.856c.09.022.19,0,.282.017,4.077.756,8.188,1.373,12.217,2.332,1.992.474,4.548.353,5.559,3.244ZM156.158,43.927a1.07,1.07,0,0,0,.352,1.485c4.354,4.561,8.735,9.1,13.069,13.678a2.991,2.991,0,0,0,2.942,1.21,103.173,103.173,0,0,1,14.748-1.218c4.378-.331,8.794-.025,13.513-.673a93.223,93.223,0,0,0-9.936-13.019.791.791,0,0,0-.708-.235c-3.356,2.064-6.643-.238-9.965-.246a45.216,45.216,0,0,1-9.236-.642,84.794,84.794,0,0,0-14.778-.339ZM213.392,165.8c-1.519,1.716-3.557.674-5.238,1.284-3.3,1.194-6.751,1.952-10.066,3.1a111.31,111.31,0,0,1-19.3,3.731,4.667,4.667,0,0,0-4.118,4.195,32.365,32.365,0,0,1-2.2,7.742,16.389,16.389,0,0,0,5.016.591c9.683-2.013,19.518-3.349,29-6.263a3.623,3.623,0,0,0,2.66-1.359,41.322,41.322,0,0,0,4.254-13.023Zm-93.23,42.853c-4.695,0-5,.2-4.487,3.031a15.25,15.25,0,0,0,3.644,7.091c1.331,1.562,2.947-.092,4.467-.017a104.559,104.559,0,0,0,15.976-1.453c8.72-.908,16.906-4.768,25.812-4.714.949.006,2.274-.4,1.981-1.442a48.873,48.873,0,0,1-.432-7.572c-.177-1.383-.309-2.449-2.6-1.984a60.029,60.029,0,0,1-6.325,1.993c-7.481.687-14.592,3.259-22.234,3.693C130.435,207.588,124.981,209.868,120.162,208.648Zm35.819-15.21a6.339,6.339,0,0,0-4.926.779,27.4,27.4,0,0,1-11.064,2.379,146.341,146.341,0,0,1-16.58.779,8.023,8.023,0,0,0-5.154.775,35.316,35.316,0,0,0-3.948,5c-.593.8-.97,1.975.874,2.1a65.054,65.054,0,0,0,16.4-1.53c4.26-.791,8.455-1.931,12.777-2.48a9.513,9.513,0,0,0,5.5-1.432C151.762,197.516,155.261,196.961,155.981,193.438ZM134.023,42.777c.241.057.836-.389.721-1.425a8.092,8.092,0,0,0-6.964-5.041,118.884,118.884,0,0,1-13.3,1.418,124.974,124.974,0,0,1-13.4,1.132,10.025,10.025,0,0,0-2.125.518c-1.106.194-1.026.87-.344,1.273a60.584,60.584,0,0,1,5.622,5.772,2.146,2.146,0,0,0,2.211.724,100.158,100.158,0,0,1,21.871-4.271,8.974,8.974,0,0,1,5.712-.1ZM116.1,142.94c-.615,3.034.794,3.6,3.55,3.527a16.371,16.371,0,0,0,5.835-1.573c1.147-.475.256-2.714.582-3.961a29.362,29.362,0,0,0-.644-14c-.808-3.718-1.318-3.647-5.276-2.755a3.648,3.648,0,0,0-3.409,4.764,35.445,35.445,0,0,1,.313,6.58C116.914,138.005,116.427,140.469,116.1,142.94Zm2.342-22.678a16.124,16.124,0,0,0,4.644-.53c2.141.079,2.484-1.23,2.154-2.861a109.359,109.359,0,0,0-4.84-18.734,2.251,2.251,0,0,0-2.288-1.628,10.746,10.746,0,0,0-4.052.844,1.791,1.791,0,0,0-1.427,2.55c1.149,5.881,3.3,11.637,2.966,17.743-.124,2.269.565,3.172,2.842,2.616ZM232.362,134.4c2.357-.558,4.567-1.232,6.827-1.564a2.859,2.859,0,0,0,2.7-2.5,54.939,54.939,0,0,0,.239-6.493,59.692,59.692,0,0,0-.228-11.225c-.068-1.025-.292-2.121-1.52-1.7a17.855,17.855,0,0,1-5.558.323c-1.188.032-2.124.72-1.862,1.552a16.381,16.381,0,0,1,.017,5.711,36.059,36.059,0,0,1-.3,9.984,19.414,19.414,0,0,0-.313,5.912ZM42.509,178.644a22.716,22.716,0,0,0-4.421.05,6.311,6.311,0,0,0-5.547,3.529,85.627,85.627,0,0,0-1.8,11.15,3.232,3.232,0,0,0,3.886,2.974.812.812,0,0,0,.576-1.1,8.933,8.933,0,0,1,.5-6.555,9.632,9.632,0,0,1,3.888-5.5c4.552-3.673,9.746-3.089,14.842-2.112a9.343,9.343,0,0,1,5.381,1.079c1.773,1.679,2.638.666,3.631-.831a5.5,5.5,0,0,0,.72-5.5,1.761,1.761,0,0,0-.724-1.4c-.67-.191-.844.461-1.071.969a1.415,1.415,0,0,1-1.821.912,13.314,13.314,0,0,0-5.085.306C50.909,176.747,46.718,179.34,42.509,178.644ZM106.876,68.556a13.952,13.952,0,0,0-3.419-4.435,9.366,9.366,0,0,1-3.624-4.87,9.8,9.8,0,0,0-13.7-4.588c-1.026.624-1.369,1.144-.371,2.12,4.319,4.223,7.454,9.441,11.569,13.842a1.6,1.6,0,0,0,2.138.4A30.291,30.291,0,0,1,106.876,68.556Zm127.162,38.771c2.4.008,4.181-.793,6.1-.616,1.582.146,1.384-1.1,1.023-1.909a63.475,63.475,0,0,1-2.684-12.727c-1.047-4.685-1.238-4.93-5.848-5.584-2.882-.409-4.054,1.038-3.233,3.846a46.744,46.744,0,0,1,2.84,15.22C232.144,107.524,233.295,107.382,234.038,107.327ZM108.435,71.9c-1.423,1.748-3.935.795-5.675,2-.818.569-2.366.787-1.456,2.377a32.467,32.467,0,0,0,4.168,6.815,13.764,13.764,0,0,1,5.137,11.116c1.876-.289,3.268-1.046,4.884-1.154a1.576,1.576,0,0,0,1.552-2.414A77.872,77.872,0,0,0,108.435,71.9ZM147.01,35.071c1.841,2.524,4.2,3.908,5.505,6.221a.993.993,0,0,0,1.269.259,33.907,33.907,0,0,1,16.3-.14c5.376.712,10.861-.193,16.25.767.4.071,1.02.146,1.083-.527a1.085,1.085,0,0,0-.794-1.046,6.1,6.1,0,0,0-1.851-.623c-7.037-.549-13.511-3.846-20.54-4.285C158.662,35.35,153.118,33.92,147.01,35.071ZM114.8,172.977a2.018,2.018,0,0,0,2.511-1.188c1.687-5.24,3.463-10.452,5.116-15.7.62-1.968,2.234-4.518.8-5.933s-4,.316-6.082.575c-1.951.243-2.092,1.342-2.108,2.917a88.372,88.372,0,0,1-2.828,15.923C111.639,172.5,111.724,172.949,114.8,172.977ZM63.634,45.819a58.3,58.3,0,0,1,12.2,4.556c2.733,1.844,5.416,3.71,8.441.477a2.288,2.288,0,0,1,1.086-.159c1.42-.214,3.661-.437,3.737-1.485a4.1,4.1,0,0,0-2.925-3.362,4.971,4.971,0,0,1-1.978-.979,7.423,7.423,0,0,0-8.766-2.194C71.719,43.924,67.69,44.183,63.634,45.819ZM78.258,204.338a60.381,60.381,0,0,0,11.7,1.066,7.013,7.013,0,0,0,5.063-.135,32.839,32.839,0,0,0,7.682-8.512.627.627,0,0,0-.428-1.024c-3.462.588-7.3-2.089-10.479,1.287a19.376,19.376,0,0,1-3.3,1.991,57.569,57.569,0,0,1-10.235,5.326Zm30.116,18.195.661-.705a14.227,14.227,0,0,1-2.622-8.419c-.619-3.842-1.287-4.172-5.2-4.2-3.464-.024-6.927-.113-10.39-.147-2.541-.024-5.081,0-7.622,0l-.022.906a106.182,106.182,0,0,0,17.635,5.218c1.44.31,3.061.746,2.666,2.244a2.565,2.565,0,0,1-3.533,1.03,12.7,12.7,0,0,0-6.847-1.177Zm121.457-65.475a3,3,0,0,0,3.683-1.538,83.641,83.641,0,0,0,6.479-13.932,4.384,4.384,0,0,0-.271-4.3,3.211,3.211,0,0,0-3.572.243,4.16,4.16,0,0,0-3.87,2.142C230.667,145.413,230.934,151.387,229.831,157.058Zm-7.015-92.289a3.225,3.225,0,0,0-1.72.392,2.372,2.372,0,0,0,.428,2.314A45.346,45.346,0,0,1,225.9,77.6c1.638,5.425,1.458,5.445,6.838,4.807,1.495-.177,2-.573,1.29-2.124a47.026,47.026,0,0,0-5.046-10.531,9.663,9.663,0,0,0-6.163-4.987ZM121.249,17.009a1.937,1.937,0,0,1-.47,0,3.5,3.5,0,0,0-4.454,2.537,4.048,4.048,0,0,0,3.388,4.581c4.724,1.572,8.744-.9,12.993-2.036,1.71-.456,1.164-2.061.939-3.075a2.612,2.612,0,0,0-2.345-2.685,66.651,66.651,0,0,1-10.051.683ZM205.6,184.252a62.483,62.483,0,0,1-10.027,2.523c-4.764.391-9.222,2.087-13.942,2.6-3.075.334-6.073,1.532-9.08,2.066a3.7,3.7,0,0,0-3.548,3.31c-.225.972-.338,1.386,1.188,1.118a68.2,68.2,0,0,0,12.588-3.065c5.91-2.236,12.108-3.7,18.086-5.772A6.7,6.7,0,0,0,205.6,184.252Zm-106.76,7.63c2.84-.154,4.97-.133,7.053-.437a3.439,3.439,0,0,0,2.895-1.918,51.534,51.534,0,0,1,5.439-10.509c.391-.541,1.443-2.15-.121-2.454a3.757,3.757,0,0,0-4.963,1.528,52.457,52.457,0,0,1-10.3,13.789Zm9.658-90.231c-1.249,2.243-3.58,4.146-2.353,6.9a36.63,36.63,0,0,1,2.16,12.153c.075.84-.746,2.482.851,2.341a2.771,2.771,0,0,0,2.958-2.714,71.686,71.686,0,0,0-2.082-14.789,8.524,8.524,0,0,0-1.535-3.888ZM73.012,55.184c-1.846-3.608-5.465-3.551-8.312-4.258a60.273,60.273,0,0,0-11.248-.786.98.98,0,0,0-1.225.8A3,3,0,0,0,55.19,54.6a92.035,92.035,0,0,1,17.823.589ZM98.534,79.555c-.563,1.3-2.256,1.862-1.342,3.273a84.312,84.312,0,0,1,4.2,10.7,7.408,7.408,0,0,1,1.827,3.93,1.55,1.55,0,0,0,1,1.811c1.5.232,1.446-1.682,2.578-2.19a1.068,1.068,0,0,0-.034-1.714,21.98,21.98,0,0,1-4.456-8.5c-1.006-2.561-2.47-4.675-3.774-7.3ZM68.782,200.081c.006-2.379-.961-2.841-2.544-2.76a18.434,18.434,0,0,1-11.229-3.282c-1.846-1.221-2.331.108-3.02,1.041-1,1.357-.246,2.273,1.123,2.682,1.664.5,3.371.855,5.061,1.263a43.492,43.492,0,0,1,7.585,2.117C66.895,201.644,68.976,202.083,68.782,200.081Zm114.877,1.776a17.151,17.151,0,0,1-.632-1.9A2.325,2.325,0,0,0,179.4,197.9a37.511,37.511,0,0,1-6.619,1.649c-1.573.261-2.076,1.346-1.543,2.326.606,1.114-.612,3.488,1.876,3.314a28.768,28.768,0,0,0,4.512-1.057c.41-.1.919.079.86-.7-.114-1.515-.068-1.538,1.151-1.563s2.422-.005,4.023-.005ZM48.161,51.988a25.1,25.1,0,0,0-15.42,16.1,4.584,4.584,0,0,0,2-1.912,24.359,24.359,0,0,1,10.454-9.039,4,4,0,0,0,2.971-5.148Zm25.069,147.04c-.347,1.789.618,1.84,1.964,1.558a52.229,52.229,0,0,0,12.635-5.239c1-.506,3.19-.788,2.2-2.579-.757-1.371-2.409-.639-3.642.032a5.256,5.256,0,0,1-.74.395c-3.53,1.233-6.478,4.05-10.62,3.7a1.574,1.574,0,0,0-1.8,2.129ZM93.513,78.166c1.249-1.908,3.21-3.272.909-5.392a76.451,76.451,0,0,1-9.472-11.323,6.844,6.844,0,0,0-5.1-3.643A116.275,116.275,0,0,1,93.513,78.166Zm19.145,48.619a4.7,4.7,0,0,0-2.715,5.031,93.463,93.463,0,0,1,.1,12.786c-.039.856-.936,2.648.737,2.63,1.185-.013,1.757-1.436.948-2.818a2.144,2.144,0,0,1,.253-1.041,33.825,33.825,0,0,0,1.087-6.734A62.7,62.7,0,0,0,112.658,126.786Zm-93.884-9.53a66.321,66.321,0,0,0,.62,13.491c.324,1.308-.834,3.849,1.72,3.437,2.366-.382.919-2.688.842-4.1a40.884,40.884,0,0,1-.724-9.942C21.687,117.8,20.855,117.338,18.774,117.256ZM22.35,92.743a28.946,28.946,0,0,0-1.439,5,48.165,48.165,0,0,0-2.1,13.12,1.773,1.773,0,0,0,2.051,2.02c1.3-.031.726-1.272.777-1.986.238-3.357.6-6.726.518-10.08a49.57,49.57,0,0,0,.2-8.073Zm-.675,45.694c-1.8.088-1.239,1.514-1.045,2.28.338,1.328.882,2.568,1.1,3.983a71.354,71.354,0,0,0,1.967,8.013,1.616,1.616,0,0,0,1.971,1.525c1.474-.423.574-1.592.42-2.313a44.1,44.1,0,0,1-2.244-10.767,2.323,2.323,0,0,0-2.171-2.721ZM93.83,190.657a42.173,42.173,0,0,0,9.972-13.3c.686-1.23-.282-1.366-1-1.716-.929-.454-1.119.21-1.3.861a16.28,16.28,0,0,1-5.988,9A4.356,4.356,0,0,0,93.83,190.657ZM124.566,33.714c3.584-.277,4.223-1.093,4.112-4.675-.12-3.9-2.941-1.525-4.02-1.4-3.865.441-.988,3.737-1.809,5.645-.575,1.337,1.138.1,1.717.432ZM41.571,186.649a10.83,10.83,0,0,0,4.776,6.221,2.467,2.467,0,0,0,3.075-.964c.651-.513.561-1.005.019-1.632A9.2,9.2,0,0,0,41.571,186.649Zm77.081,40c-3.068-5.663-7.184-10.529-7.464-17.24C108.748,214.115,112.921,223.471,118.653,226.646ZM171.6,216.2l-11.6,1.2a22.55,22.55,0,0,0,11.571,1.95,3.513,3.513,0,0,1,.033-3.154ZM31.5,167.4a25.35,25.35,0,0,0-2.81-7.561c-.485-.81-.907-2-1.975-1.44a1.949,1.949,0,0,0-.216,2.71,12.813,12.813,0,0,0,5,6.291Zm16.2-5.742a18.372,18.372,0,0,1,6.06-.6,1.054,1.054,0,0,0,1.174-1.234c-.159-.859-.772-.726-1.489-.509a6.067,6.067,0,0,1-5.619-.1,2.844,2.844,0,0,0-1.31-.366,1.684,1.684,0,0,0-2.081.983c-.211.9.8,1.052,1.408,1.448a3.243,3.243,0,0,0,1.857.379ZM24.105,88.035c1.138-4.776,3.779-9.017,5.124-14.265-2.161,1.9-5.81,12.165-5.124,14.265ZM196.187,236.39c2.516,1.878,5.855,1.836,8.547,3.508.8.5,1.221.122,1.417-.613.218-.821-.175-1.084-1.015-1.222C202.141,237.572,199.168,236.958,196.187,236.39ZM50.538,172.434c.19-1.2.128-2.707-.939-2.608a3.172,3.172,0,0,0-1.867,3.017c-.208.949.331,1.218,1.257,1.3C50.522,174.273,50.661,173.435,50.538,172.434Zm64.624,58.132a4.884,4.884,0,0,0-4.385-2.808c-.556-.122-.981-.171-1.109.3a.788.788,0,0,0,.834.866,29,29,0,0,1,4.659,1.645ZM216.059,55.9c.87,3.721,1.3,4.1,4.315,3.4A21.652,21.652,0,0,1,216.059,55.9Z" transform="translate(0 0)" fill="#cf8fab"/><path d="M39.729,66.562l1.8-2.218c1.032,5.185-2.5,9.889.048,14.5a1.769,1.769,0,0,1,2.416-1.649,3.53,3.53,0,0,1,1.45,4.313,111.574,111.574,0,0,0-.406,23.486,1.094,1.094,0,0,1-.864,1.468,1.173,1.173,0,0,1-1.3-1.187,12.843,12.843,0,0,1,.042-1.693c0-7.237,0-14.475,0-21.97-1.45.238-3.382,3.583-3.592-.938a52.265,52.265,0,0,0-.69,15.916c1.12-1.251.56-3.164,1.74-4.49-.556,3.2.067,6.435-.547,9.552a33.979,33.979,0,0,1-.413,3.885c-.239.736-.505,1.991-1.346,1.88a1.953,1.953,0,0,1-1.393-2.17c.127-3.1.117-6.208.233-9.31.219-5.833.252-11.652.108-17.495a19.2,19.2,0,0,1,.542-9.533,8.351,8.351,0,0,0,.152-5.279,20.4,20.4,0,0,1-.393-5.756c.17-6.307-1.007-12.564-.632-18.873.034-.564.007-1.132.02-1.7a1.311,1.311,0,0,1,1.371-1.456c1.266-.017.865,1,.867,1.65.021,6.506-.016,13.013.021,19.519a27.352,27.352,0,0,0,.764,9.546Z" transform="translate(50.075 53.404)" fill="#cf8fab"/><path d="M22.343,86.854c.76-9.384.244-18.816.784-28.189.468-8.114.588-16.266,1.569-24.352a1.62,1.62,0,0,1,.125-.819c.935-.892-.237-3.556,1.881-3.034,1.557.384.922,2.506.627,3.79a146.059,146.059,0,0,0-3.177,35.228c.021,1.268-1.311,3.327,1.458,4.007a11.029,11.029,0,0,1-.006,4.655A24.619,24.619,0,0,0,25.137,88.3a25.368,25.368,0,0,1-.5,5.8,31.725,31.725,0,0,0,2.574,13.581c.344.767.83,1.79-.188,2.184-1.091.422-1.564-.4-1.8-1.525a71.85,71.85,0,0,1-2.884-21.486Z" transform="translate(17.348 40.908)" fill="#cf8fab"/><path d="M30.816,86.049c-1.948-3.738-.836-7.436-1.488-10.92-.658-3.515-.211-7.132-.641-10.717-.544-4.535-.131-9.161-.728-13.729a35.666,35.666,0,0,0-.739-5.75c-.671-2.292,1.466-4.31,2.74-5.91A5.824,5.824,0,0,0,31.3,35.144c.051-1.6-.03-3.2.05-4.8.031-.627-.472-1.666.794-1.72,1.016-.043.71.83.911,1.4a8.339,8.339,0,0,1,.144,5.17,22.8,22.8,0,0,0-.186,4.769c-.063,1.382,1.749,3.905-1.953,3.189-.592-.115-.254.905-.294,1.4a224.3,224.3,0,0,0-.415,28.423,47.132,47.132,0,0,0,.8,9.991A3.629,3.629,0,0,1,30.816,86.049Z" transform="translate(28.261 36.847)" fill="#cf8fab"/><path d="M24.506,85.809q.377-14.33.75-28.661a98.01,98.01,0,0,1,3.351-25.9c.233-.78-.037-1.917,1.3-1.527.991.288.966.992.667,2.011a112.892,112.892,0,0,0-3.585,20.263,183.779,183.779,0,0,0-.553,22.893c.076,3.482-.9,7.082,1.009,10.455a2.279,2.279,0,0,1-.933,2.751.856.856,0,0,1-1.235.121,1.778,1.778,0,0,1-.776-2.406Z" transform="translate(21.874 39.187)" fill="#cf8fab"/><path d="M28.249,60.921c1.37.913.455,2.135,1.964,3.316.254-8.229-.455-16.1,1.615-23.631l.823.085c-.361,4.6-.778,9.2-1.061,13.812-.166,2.7-.165,5.422-.16,8.134.012,6.726.129,13.453.051,20.178-.013,1.091.594,3.175-1.419,3.071-1.866-.1-.683-1.94-.885-2.968-1.286-6.556.015-13.27-1.134-19.846A9.269,9.269,0,0,1,28.249,60.921Z" transform="translate(30.434 64.318)" fill="#cf8fab"/><path d="M31.945,79.85c-1.343-1.484-.058-2.929-.155-4.4A103.543,103.543,0,0,1,32.5,58.347c.621-6.213.174-12.412.6-18.6a17.147,17.147,0,0,0-.446-5.143,1.611,1.611,0,0,1,.485-2.157,2.542,2.542,0,0,1,2.324-.671,1.849,1.849,0,0,1,.86,2.194c-.609,4.4-1.076,8.838-1.94,13.192-.513,2.585-.387,5.187-.748,7.776-.644,4.612-.2,9.372-.789,14C32.39,72.559,32.6,76.244,31.945,79.85Z" transform="translate(37.97 43.934)" fill="#cf8fab"/><path d="M32.107,52.36l-.193-2.516c-1.724,2.525-.737,5.593-2.653,8.121A90.862,90.862,0,0,1,30.51,43.234a69.47,69.47,0,0,0,.946-9.116c-.05-1.131.093-2.1,1.588-2.072a1.793,1.793,0,0,1,1.751,2.309c-.661,6.049-1.46,12.082-2.212,18.121Z" transform="translate(33.231 44.697)" fill="#cf8fab"/><path d="M33.021,42.306a12.811,12.811,0,0,1-.531,6.163c-1.963,9.85-3.558,19.78-6.084,29.516-.221.851-.234,1.934-1.311,1.674-.8-.194-.5-1.343-.358-1.993,1.549-7.016,3.363-13.981,4.681-21.038a57.633,57.633,0,0,0,2.07-11.183,4.33,4.33,0,0,1,1.534-3.138Z" transform="translate(22.455 68.213)" fill="#cf8fab"/><path d="M21.556,65.556a7.146,7.146,0,0,1-1.044-3.531c-.351-7.332.622-14.622.662-21.942.009-1.631.528-3.281.521-4.965a1.425,1.425,0,0,1,1.342-1.746c1.209.094.975,1.248.876,2.017-.464,3.592-.751,7.21-1.221,10.787-.482,3.672-.267,7.311-.467,10.959C22.078,59.821,21.8,62.5,21.556,65.556Z" transform="translate(13.004 47.736)" fill="#cf8fab"/><path d="M36.247,69.467a3.856,3.856,0,0,1-1.416-3.591c.034-5.753.067-11.506-.01-17.258-.03-2.227-.356-4.451-.539-6.677a2.085,2.085,0,0,1,1.014-2.4,1.524,1.524,0,0,1,1.805.331,2.068,2.068,0,0,1,.321,2.32A82.71,82.71,0,0,0,36.3,55.221C36.059,59.958,36.247,64.717,36.247,69.467Z" transform="translate(44.559 61.512)" fill="#cf8fab"/><path d="M32.15,50.993V55.42a7.5,7.5,0,0,1,3.913-3.97v5.7c-.979-.372-.067-1.738-1.439-2.032a.558.558,0,0,0-.174.52c.235,2.732-.854,5.346-.671,8.1a1.818,1.818,0,0,1-1.663,2.4c-1.773-.054-1.032-1.5-1.045-2.333A38.236,38.236,0,0,1,32.15,50.993Z" transform="translate(37.05 88.124)" fill="#cf8fab"/><path d="M32.72,66.724c.215-7.171-.856-14.351.349-21.508a11,11,0,0,0,.044-2.539c-.084-1.244.645-1.312,1.6-1.331a1.053,1.053,0,0,1,1.224,1.4c-.346,2.3-.656,4.614-1.141,6.888C33.592,55.267,34.02,61.087,32.72,66.724Z" transform="translate(40.622 65.951)" fill="#cf8fab"/><path d="M21.921,44.424c1.527,1.778.573,3.733.831,5.478a3.561,3.561,0,0,0,1.278,3.665c1.265.727-.053,2.046-.173,3.082a9.687,9.687,0,0,1-1.307,5.246c-.321.407-.669,1.322-1.472.858a1.693,1.693,0,0,1-1.106-1.795C21.232,55.6,20.857,50.061,21.921,44.424Z" transform="translate(11.913 73.068)" fill="#cf8fab"/><path d="M33.106,69.54c.515-3.2-.894-6.288-.561-9.477.062-.59-.3-1.417.581-1.642,1.178-.3,1.026.723,1.225,1.38a5.641,5.641,0,0,1,.424,1.3c.217,5.8.418,11.606.564,17.411.016.625.442,1.77-.719,1.74-.852-.022-1-.975-.946-1.776a82.933,82.933,0,0,1-.567-8.933Z" transform="translate(40.639 105.026)" fill="#cf8fab"/><path d="M35.82,51.607a77.592,77.592,0,0,1-.985,16.022c-.142.777-.081,1.831-1.393,1.625-1.024-.161-.761-1.066-1.038-1.715-1.123-2.631.766-5.151.153-7.733C35.812,57.978,33.64,54.108,35.82,51.607Z" transform="translate(39.597 89.531)" fill="#cf8fab"/><path d="M37.11,63.151a11.107,11.107,0,0,0-.252,6.649c.336.988-.8,1.311-1.712,1.239-.944-.074-1.679-.437-1.3-1.587.708-2.128.042-4.436.9-6.545.272-.67-.487-1.983.821-1.94a2.1,2.1,0,0,1,1.541,2.184Z" transform="translate(43.511 110.982)" fill="#cf8fab"/><path d="M29.808,62.052V48.081l.828.009a43.19,43.19,0,0,1-.828,13.961Z" transform="translate(34.483 81.45)" fill="#cf8fab"/><path d="M29.761,55.237a1.617,1.617,0,0,1,1.758-1.985c1.189.111.451,1.541.847,2.334a1.568,1.568,0,0,1-1.661,1.425C29.353,56.987,29.8,55.948,29.761,55.237Z" transform="translate(34.274 93.278)" fill="#cf8fab"/><path d="M31.937,47.7V56.03C30.243,53.209,31.88,50.474,31.937,47.7Z" transform="translate(37.609 80.585)" fill="#cf8fab"/><path d="M36.976,58.371c-.7.485.074,2.248-1.682,2.156-.555-.029-1.411-.258-.9-.828.7-.778-.422-2.5,1.416-2.541C36.549,57.141,37.106,57.268,36.976,58.371Z" transform="translate(44.638 102.25)" fill="#cf8fab"/><path d="M40.212,79.477c4.17.994,8.5,1.934,12.777,3.074a62.367,62.367,0,0,0,11.735,2.166,7.856,7.856,0,0,1,3.884,1.42,1.407,1.407,0,0,1,.427,1.778.719.719,0,0,1-1.088.481c-4.649-2.167-9.856-1.964-14.664-3.45a54.159,54.159,0,0,1-7.216-1.867,1.961,1.961,0,0,0-1.644-.056c-2.271,1.811-3.7.789-5.325-1.059-.506-.576-1.9-.638-1.521-1.8C37.968,78.972,39.224,79.865,40.212,79.477Z" transform="translate(52.142 153.411)" fill="#cf8fab"/><path d="M30.2,77.81c4.262.8,8.516,1.573,12.754,2.417,4.16.829,8.3,1.784,12.465,2.566.74.139,1.4.459,2.111.575.829.136,1.585.237,1.1,1.333-.37.833-.934.466-1.625.278a135.865,135.865,0,0,0-26.438-4.386,8.093,8.093,0,0,0-2.484.289c-.637.161-1.3.563-1.672-.231a1.221,1.221,0,0,1,.73-1.633C28.14,78.553,29.191,78.2,30.2,77.81Z" transform="translate(26.48 149.589)" fill="#cf8fab"/><path d="M25.638,76.544a99.442,99.442,0,0,1,24.179,5.719l-.238.925-24.1-5.743Z" transform="translate(24.557 146.687)" fill="#cf8fab"/><path d="M77.374,74.038c-6.428,2.222-13.183,2.4-19.675,4.129-.074-1.574,1.58-.705,1.757-2.108a7.987,7.987,0,0,0-5.786,1.469,1.605,1.605,0,0,1-1.754.485.987.987,0,0,1-.309-.72,1.292,1.292,0,0,1,1.3-1.228c6.35-1.966,12.875-3.219,19.367-4.6a1.42,1.42,0,0,1,1.234.439A6.416,6.416,0,0,0,77.374,74.038Z" transform="translate(84.447 135.025)" fill="#cf8fab"/><path d="M50.376,73.166c.469,0,.939-.022,1.406.006,1.258.077,3.068.208,3.065,1.479,0,1.508-1.822.772-2.739.7a5.443,5.443,0,0,1-3.489.276c-.695-.47-1.631-.688-1.466-1.753.179-1.153,1.172-.583,1.818-.7a8.111,8.111,0,0,1,1.4-.014Z" transform="translate(74.198 138.878)" fill="#cf8fab"/></g></svg>