<svg xmlns="http://www.w3.org/2000/svg" width="105.601" height="86.906" viewBox="0 0 105.601 86.906"><g transform="translate(22.045 -7896)"><g transform="translate(-22.045 7896)"><g transform="translate(0 0)"><g transform="translate(0 0)"><path d="M43.527,115.767a55.282,55.282,0,0,1,8.871-.359c1.087.056,2.17.159,3.253.267,1.667.167,3.344.235,5.017.327q10.851.6,21.7.456c3.981-.047,7.96-.176,11.941-.2,1.7-.009,3.383-.041,5.076.1l5.269.439,6.459.538-2.39-.99a49.911,49.911,0,0,1,4.263,4.615c.369.448.73.9,1.088,1.359q.325.418-.169-.219l.239.313q.3.394.594.792c.716.965,1.407,1.949,2.081,2.943A79.665,79.665,0,0,1,123.547,138l2.918-5.086c-15.7-.372-31.369-2.167-47.083-1.449-7.794.356-15.588.729-23.389.908q-5.966.137-11.934.109-3-.018-6-.092c-1.982-.049-3.973-.2-5.955-.2a23.489,23.489,0,0,0-5.416.483l3.817,4.965a37.591,37.591,0,0,1,3.48-5.8c.683-.974,1.392-1.93,2.111-2.878q.232-.306.465-.61l.23-.3c.425-.552-.5.641-.075.1q.537-.693,1.077-1.383a33.583,33.583,0,0,0,2.367-3.274c.621-1.03,1.147-2.115,1.683-3.19a31.8,31.8,0,0,1,1.561-2.859c.126-.2.259-.391.394-.583q.1-.143.208-.282c-.629.842-.241.32-.089.141a9.066,9.066,0,0,1,1.273-1.216c1.444-1.148,1.191-3.589,0-4.78a3.393,3.393,0,0,0-2.39-.99,3.646,3.646,0,0,0-2.39.99,16.9,16.9,0,0,0-4.238,5.836c-.509,1.012-1,2.031-1.557,3.02-.286.51-.6,1.007-.922,1.491-.134.2-.849,1.125-.181.278-.167.212-.332.426-.5.639-3.008,3.856-6.286,7.762-8.344,12.237a3.522,3.522,0,0,0,0,3.412,3.435,3.435,0,0,0,3.817,1.553c.327-.078.656-.139.989-.189l-.9.121a31.49,31.49,0,0,1,5.4-.1q3,.119,6,.172c3.988.076,7.977.071,11.964.016,7.845-.109,15.684-.434,23.52-.8,3.883-.181,7.761-.353,11.649-.354,3.931,0,7.862.121,11.789.293,7.863.344,15.715.91,23.58,1.2q1.989.074,3.979.121A3.384,3.384,0,0,0,129.384,138a3.531,3.531,0,0,0,0-3.412A85.027,85.027,0,0,0,118.978,117.7q-1.451-1.874-3.037-3.638-.713-.791-1.464-1.547c-.239-.242-.483-.479-.728-.715a3.987,3.987,0,0,0-2.638-1.219l-3.128-.261-9.734-.811c-1.051-.088-2.133-.013-3.188-.009q-2,.008-4,.033c-1.775.023-3.55.069-5.325.109-6.1.138-12.2.149-18.3-.078-1.95-.073-3.9-.167-5.849-.27-1.8-.1-3.624-.143-5.422-.324a57.875,57.875,0,0,0-6.894-.369c-1.922.036-3.84.2-5.75.409a3.64,3.64,0,0,0-2.39.99,3.393,3.393,0,0,0-.99,2.39c0,1.69,1.545,3.582,3.38,3.38Z" transform="translate(-24.23 -108.592)" fill="#cf8fab"/></g></g><g transform="translate(0.006 24.332)"><g transform="translate(0 0)"><path d="M24.719,316.321a28.965,28.965,0,0,0,5.729,7.341c1.024.965,2.069,1.908,3.068,2.9,1.264,1.257,2.424,2.609,3.569,3.973,1.166,1.39,2.313,2.8,3.509,4.161,1.223,1.395,2.562,2.644,3.866,3.956,2.624,2.64,4.85,5.644,7.23,8.5,1.853,2.222,3.849,4.322,5.723,6.528,1.951,2.3,3.871,4.619,5.832,6.906,1.946,2.271,3.931,4.513,6.041,6.634.935.94,1.9,1.85,2.908,2.711.62.529,1.266,1.025,1.912,1.52,1.026.786,2.321,1.665,3.686,1.115a14.313,14.313,0,0,0,3.679-2,10.149,10.149,0,0,0,1.394-1.45,27.842,27.842,0,0,1,2.614-2.619c1.377-1.223,2.674-2.538,4-3.813a109.294,109.294,0,0,0,7.737-8.116c2.491-2.936,4.75-6.065,6.979-9.2,1.066-1.5,2.127-3,3.21-4.492q.794-1.091,1.607-2.169.205-.272.413-.542c.485-.634-.462.593.03-.039q.495-.637,1-1.264c2.033-2.53,4.3-4.873,6.427-7.324,3.906-4.5,7.644-9.181,11.829-13.425l.186-.188a3.38,3.38,0,0,0-4.78-4.78c-4.178,4.19-7.89,8.85-11.761,13.319-2.109,2.435-4.353,4.763-6.39,7.257-2.5,3.069-4.811,6.29-7.1,9.52-1.01,1.424-2.021,2.846-3.056,4.252q-.387.525-.779,1.047-.2.261-.394.521c-.115.152-.587.763,0,.007q-.869,1.124-1.776,2.217a99.666,99.666,0,0,1-7.685,8.165c-1.268,1.222-2.547,2.433-3.793,3.676-.991.989-2.085,1.847-3.023,2.9a18.584,18.584,0,0,1-1.435,1.572c-.544.483.762-.551.253-.194-.145.1-.3.193-.452.281-.183.1-.373.2-.563.289-.11.053-.221.1-.333.152-.48.214.933-.382.163-.071l2.6.341q-.326-.219-.644-.449c-.11-.079-.219-.161-.327-.242-.465-.348.706.551.243.189-.5-.393-.988-.808-1.467-1.23-1.018-.9-1.987-1.85-2.934-2.821-2.107-2.16-4.091-4.439-6.047-6.734-1.937-2.272-3.838-4.575-5.777-6.845s-4-4.449-5.9-6.762a76.492,76.492,0,0,0-6.994-8.082,80.822,80.822,0,0,1-7.026-7.824,75.58,75.58,0,0,0-6.381-6.6,31.658,31.658,0,0,1-2.624-2.715c-.107-.127-.211-.256-.314-.385-.408-.508.51.673.112.144-.215-.286-.42-.581-.62-.877a25.746,25.746,0,0,1-1.34-2.246,3.38,3.38,0,1,0-5.836,3.412Z" transform="translate(-24.283 -310.162)" fill="#cf8fab"/></g></g></g><g transform="translate(26.488 7898.351)"><g transform="translate(0 0)"><path d="M440.732,132.344c.911,3.22,3.048,5.98,4.788,8.782.464.747.908,1.5,1.324,2.279.2.378.393.763.575,1.151.077.163.149.329.222.494-.45-1.03-.1-.216-.011.016a24.935,24.935,0,0,1,1.276,5.316l-.121-.9a17.991,17.991,0,0,1,.011,4.588l.121-.9a20.145,20.145,0,0,1-1.026,4.028c-.116.323-.242.642-.37.961-.087.217-.352.829.071-.162-.07.163-.142.326-.214.488-.325.734-.674,1.457-1.028,2.177-.764,1.552-1.653,3.067-2.333,4.657q-1.237,2.894-2.393,5.821c-.672,1.69-1.333,3.384-2.01,5.072q-.483,1.205-.982,2.4c-.076.182-.377.894,0-.008q-.127.3-.256.6-.3.7-.612,1.4c-1.466,3.3-3.267,6.414-4.626,9.756-1.007,2.476-1.866,5.008-2.882,7.48l-.14.337c.41-.982.147-.351.056-.141-.142.328-.29.654-.441.978q-.4.866-.857,1.7c-.288.532-.6,1.049-.933,1.554-.173.263-.358.518-.547.769.737-.98.048-.087-.148.131a3.432,3.432,0,0,0,0,4.78,3.4,3.4,0,0,0,4.78,0,28.462,28.462,0,0,0,4.817-8.485c.584-1.422,1.115-2.865,1.654-4.3q.38-1.015.77-2.027.19-.491.388-.979c.064-.16.13-.319.2-.478.227-.549-.363.842-.01.031.669-1.538,1.515-2.989,2.258-4.491.813-1.642,1.564-3.315,2.283-5,1.515-3.547,2.892-7.149,4.331-10.727q.506-1.258,1.028-2.509c.31-.742-.3.7.016-.04.09-.211.179-.42.282-.626q.341-.681.687-1.36c.742-1.461,1.492-2.918,2.184-4.4a27.25,27.25,0,0,0,2.745-9.492,21.9,21.9,0,0,0-.353-5.255,25.287,25.287,0,0,0-1.221-4.707,48.544,48.544,0,0,0-4.831-8.693c-.487-.773-.958-1.556-1.386-2.364-.156-.295-.76-1.655-.251-.444a9.154,9.154,0,0,1-.367-1.056,3.381,3.381,0,0,0-6.519,1.8Z" transform="translate(-426.282 -128.068)" fill="#cf8fab"/></g></g><g transform="translate(7.495 7897.981)"><g transform="translate(0 0)"><path d="M278.843,127.494c-.092.25-.63,1.552-.184.511-.152.355-.317.7-.487,1.051-.345.707-.734,1.391-1.146,2.061-.355.578-.738,1.138-1.132,1.69-.189.265-.383.526-.579.786-.1.128-.193.254-.29.381.7-.917.2-.264.045-.063a34.573,34.573,0,0,0-4.6,6.624,16.3,16.3,0,0,0-1.439,5.161,20.852,20.852,0,0,0,.242,5.488,36.408,36.408,0,0,0,3.162,9.208c.3.661.594,1.321.887,1.983q.22.5.434,1c.271.63-.323-.773-.059-.141.093.223.183.446.273.67a37.035,37.035,0,0,1,1.418,4.437,91.12,91.12,0,0,0,3.652,10.576c1.336,3.362,2.774,6.7,3.906,10.138.7,2.113,1.357,4.238,2.054,6.35.746,2.26,1.514,4.516,2.406,6.723.44,1.088.889,2.182,1.433,3.223a6.847,6.847,0,0,0,1.512,2.092,3.447,3.447,0,0,0,4.78,0,3.388,3.388,0,0,0,0-4.78,2.1,2.1,0,0,1-.226-.223c-.362-.407.642.889.247.31a9.206,9.206,0,0,1-.566-.986c-.2-.392-.384-.793-.562-1.2-.049-.111-.1-.224-.145-.335.472,1.1.246.585.145.34-.119-.288-.234-.577-.348-.867-.918-2.338-1.711-4.725-2.49-7.113-.691-2.118-1.325-4.258-2.074-6.357-1.271-3.565-2.75-7.052-4.129-10.576-.978-2.5-1.895-5.023-2.654-7.6a65.507,65.507,0,0,0-2.113-6.625c-.5-1.218-1.034-2.424-1.574-3.627q-.334-.743-.664-1.488-.146-.331-.29-.663l-.143-.333c.419.981.149.352.062.14a26.783,26.783,0,0,1-1.869-6.441l.121.9a18.169,18.169,0,0,1-.02-4.628l-.121.9a12.993,12.993,0,0,1,.594-2.236c.05-.139.106-.275.161-.412-.45,1.108-.161.389-.044.142.164-.348.349-.685.541-1.019a20.6,20.6,0,0,1,1.192-1.808c.187-.259,1.059-1.39.271-.374.246-.317.5-.632.746-.946,1.145-1.443,2.3-2.886,3.31-4.425a28.311,28.311,0,0,0,2.87-5.821A3.391,3.391,0,0,0,283,125.132a3.445,3.445,0,0,0-4.158,2.361Z" transform="translate(-268.941 -125.007)" fill="#cf8fab"/></g></g></g></svg>