<svg xmlns="http://www.w3.org/2000/svg" width="112.229" height="121.724" viewBox="0 0 112.229 121.724"><g transform="translate(-12937 -6943)"><path d="M118.723,23.195a8.686,8.686,0,0,0,.43-6.412,17.819,17.819,0,0,1-.807-2.955,11.16,11.16,0,0,0-3.6-6.157A11.418,11.418,0,0,0,97.987,6.613a8.62,8.62,0,0,0-4.811,5.736c-.643,1.782-1.107,3.627-1.715,5.422-.68,2.006-1.5,2.741-3.446,2.678a30.966,30.966,0,0,1-7.38-.614,33.162,33.162,0,0,0-4.066-.879,83.268,83.268,0,0,0-13.518-1.281c-1.751.033-3.5-.046-5.257-.038A45.885,45.885,0,0,0,40.41,20.571a1.682,1.682,0,0,1-2.4-.667,12.307,12.307,0,0,0-8.6-5.136c-1.008-.156-2.047-.1-3.065-.206-2.768-.3-5.328.626-7.928,1.309a1.985,1.985,0,0,0-.739.464A12.45,12.45,0,0,0,13.4,26.464a4.978,4.978,0,0,1-2.137,4.61c-2.734,2.16-4.574,4.952-3.71,8.769.209.925.313,1.874.474,2.811C8.664,46.328,9.306,50,9.924,53.678c.107.636.418,1.47-.127,1.884-1.19.9-.926,2-.754,3.164.329,2.245.623,4.495.895,6.747a2.213,2.213,0,0,0,.671,1.578A5.673,5.673,0,0,1,12.525,71.1c1,6.057,2.671,11.982,3.488,18.074.271,2.024,1.147,4.124.822,6.031a27.738,27.738,0,0,0,.266,6.742,4.456,4.456,0,0,0,1.858,3.993c.546.325.584.977.833,1.5,1.414,2.954,1.744,6.184,2.382,9.33a2.281,2.281,0,0,0,1.105,1.765,42.721,42.721,0,0,0,5.459,2.752c2.844,1.02,5.847,1.245,8.745,1.975a13.342,13.342,0,0,0,3.03.453c4.112.059,8.171.683,12.244,1.119a83.345,83.345,0,0,0,18.166-.345c3.991-.443,7.993-.894,12-1.038a59.3,59.3,0,0,0,7.827-.842,16.844,16.844,0,0,0,3.85-.816,3.63,3.63,0,0,0,2.133-2.278,95.3,95.3,0,0,0,2.612-9.724,3.034,3.034,0,0,1,1.4-2.1,3.96,3.96,0,0,0,1.973-3.251c.152-1.318.513-2.581.738-3.876.2-1.158.567-2.27-.312-3.337-.348-.422-.168-.98-.031-1.483,2.064-7.621,3.685-15.357,5.925-22.932a6.178,6.178,0,0,1,1.88-3.371,2.476,2.476,0,0,0,.867-1.72c.263-2.178.582-4.35.839-6.529a2.9,2.9,0,0,0-.344-2.128,2.6,2.6,0,0,1-.253-2.3c.548-2.424.96-4.873,1.675-7.268a48.78,48.78,0,0,0,2.145-9.847,3.663,3.663,0,0,0-1-3.218,2.423,2.423,0,0,1-.451-3.159Q116.64,28.263,118.723,23.195ZM44.768,20.552A33.07,33.07,0,0,1,51.616,19.1c4.707-.809,9.466-.2,14.644-.365a5.275,5.275,0,0,0-.707,2.677c.351,6.588-.316,13.151-.49,19.726-.091,3.44-.063,6.883-.077,10.324,0,.41-.13.988.477,1.044.675.063.819-.493.823-1.032.017-2.632-.052-5.267.036-7.9q.274-8.2.695-16.4c.112-2.121.191-4.236.158-6.36-.022-1.458.483-1.959,1.867-1.541,2.958.894,6.049.921,9.041,1.576a10.311,10.311,0,0,1,4.143,1.212,1.011,1.011,0,0,0,.838.144c1.617-.748,3.115.635,4.724.214.658-.172.868.422.866.978a18.771,18.771,0,0,1-.105,2.631q-1.847,12.7-3.75,25.4c-.282,1.883-.319,1.907-2.083,2.1-3.2.347-6.407.46-9.621.582-5.935.225-11.779-.855-17.679-1.09a21.174,21.174,0,0,1-4.663-1.162,2.051,2.051,0,0,1-1.559-1.881c-.5-3.394-1.041-6.785-1.692-10.153-.778-4.017-1.523-8.045-2.613-12-.584-2.118-.229-4.38-.985-6.489C43.719,20.824,44.378,20.708,44.768,20.552Zm-2.415,1.279C43.829,31.1,46.6,40.123,47.678,49.623A1.665,1.665,0,0,1,46.1,49c-1.49-1.95-3.426-3.632-3.967-6.171-.318-1.494-1.513-2.611-1.512-4.283a25.033,25.033,0,0,1,.329-4.793,19.154,19.154,0,0,0-.652-9.076c-.667-2.39-.62-2.4,2.057-2.843ZM13.048,33.548c.651-.047.9.337.893.933-.005.83-.919,2.147-1.521,2.175a1.059,1.059,0,0,1-.9-1.038A2.054,2.054,0,0,1,13.048,33.548ZM9.737,43.96c-.1-.626-.576-1.538.532-1.818A2.308,2.308,0,0,1,13.094,43.3,27.55,27.55,0,0,1,14.116,48c.5,2.281,1,4.563,1.455,6.854.18.91.228,1.845.339,2.8-2.982-.214-4.1-1.209-4.517-3.759C10.856,50.578,10.252,47.276,9.737,43.96Zm7.347,43.1c-.383-3.1-1.169-6.156-1.771-9.232q-.632-3.226-1.23-6.459a1.233,1.233,0,0,1,.257-1.1,8.614,8.614,0,0,1,3.511.875c3.265,1.2,6.746,1.212,10.084,2,4.044.96,8.131,1.741,12.2,2.6.643.136,1.292.251,1.929.414,1.195.306,2.827,0,3.492.952.627.9.4,2.379.577,3.6.656,4.557,1.291,9.117,2,13.665a48.273,48.273,0,0,1,.586,5.67,9,9,0,0,0,.262,1.721.618.618,0,0,0,.465.37.7.7,0,0,0,.483-.372,3.03,3.03,0,0,0,.108-1.729c-.633-4.781-1.3-9.557-1.929-14.338-.336-2.534-.632-5.073-.948-7.61-.127-1.017.566-1.08,1.254-1.005,2.683.29,5.371.556,8.039.952a106.506,106.506,0,0,0,11.322,1.021,8.708,8.708,0,0,1,1.309.043c.53.1.814.34.761,1.052-.353,4.733-.59,9.475-.939,14.209-.161,2.187-.515,4.36-.719,6.545-.056.6-.336,1.59.528,1.649.835.058.741-.943.726-1.543C69.3,95.8,70.583,90.691,70.483,85.477c-.032-1.668.364-3.341.4-5.016.022-1.1.552-1.35,1.47-1.457,1.113-.129,2.134.453,3.258.275,3.813-.6,7.647-1.085,11.447-1.755a44.994,44.994,0,0,1,4.669-.323c-1.013,4.5-1.96,8.7-2.9,12.9-.817,3.637-1.623,7.277-2.447,10.913-.45,1.984-.677,2.125-2.5,2.468a64.38,64.38,0,0,1-15.9,1.408c-5.907-.365-11.837-.377-17.71-1.3-2.884-.451-5.821-.556-8.717-.94a57.109,57.109,0,0,1-14.421-3.51c-2.568-1.058-5.1-2.137-7.579-3.4a1.75,1.75,0,0,1-1.155-1.374C17.926,91.943,17.39,89.536,17.084,87.063ZM49.466,123.3c-4.712-.461-9.433-.771-14.115-1.631a32.748,32.748,0,0,1-9.683-3.307,3.517,3.517,0,0,1-2.178-2.741c-.338-2.3-.964-4.553-1.486-6.909,1.584-.509,2.5.6,3.677.659a5.038,5.038,0,0,1,2.018.793c.761.425.187,1.2.3,1.805.432,2.386,1.284,4.655,1.823,7.008.063.274.23.563.606.5a.518.518,0,0,0,.414-.653,11.6,11.6,0,0,0-.443-2.14,26.4,26.4,0,0,1-1.093-4.921c-.228-1.513-.122-1.613,1.449-1.353,2.237.37,4.465.794,6.708,1.117,3.909.563,7.822,1.1,11.743,1.57,1,.12,1.31.468,1.382,1.485.16,2.258.58,4.5.772,6.753C51.515,123.19,51.289,123.476,49.466,123.3Zm32.341-.931c-5.306.453-10.6,1.032-15.909,1.472-1.813.15-3.649.024-4.739.024a29.789,29.789,0,0,1-7.285-.058c-.6-.113-1.135-.187-1.21-.975-.255-2.685-.605-5.362-.8-8.051-.1-1.466.012-1.533,1.435-1.467a50.563,50.563,0,0,1,6.759.5,45.839,45.839,0,0,0,10.491.13c3.494-.158,6.982-.466,10.471-.73.8-.06,1.593-.2,2.387-.315.935-.135,1.428.206,1.257,1.2-.395,2.3-.809,4.592-1.219,6.886a1.539,1.539,0,0,1-1.645,1.383Zm15.751-11.094a49.876,49.876,0,0,1-2.212,8.185,2.817,2.817,0,0,1-2.065,1.465,74.178,74.178,0,0,1-7.52,1.318c-.926.185-1.4-.318-1.209-1.272.506-2.5,1.058-4.987,1.556-7.487a1.18,1.18,0,0,1,1.2-1.042,33.213,33.213,0,0,0,8-1.959,6.5,6.5,0,0,1,1.058-.245c.768-.114,1.344.024,1.195,1.036Zm4.382-10.515a5.927,5.927,0,0,1-.11.871c-1.107,4.551-.36,5.085-6.15,6.081-3.448.593-6.8,1.676-10.238,2.39a99.678,99.678,0,0,1-12.187,1.4,128.159,128.159,0,0,1-22.767-.469c-6.556-.626-13.057-1.509-19.52-2.77a68.293,68.293,0,0,1-10.185-3.308,3.4,3.4,0,0,1-2.22-3.034c-.117-1.3-.158-2.6-.237-3.981a3.5,3.5,0,0,1,2.927.374,44.354,44.354,0,0,0,8.279,3.263,56.19,56.19,0,0,0,13.5,2.511c4.585.263,9.154.833,13.74,1.062,3.175.159,6.344.439,9.541.411,2.079-.018,4.176.31,6.285.172A102.7,102.7,0,0,0,93.52,102.38a24.75,24.75,0,0,0,4.661-1.887,9.886,9.886,0,0,1,2.454-.91c1.423-.306,1.439-.325,1.3,1.174Zm5.328-27.037c-1.855,7.437-3.744,14.866-5.558,22.314A3.391,3.391,0,0,1,99.722,98.4a39.871,39.871,0,0,1-10.16,3.936c-.213.046-.411.162-.624.2-1.314.25-1.6.02-1.411-1.286a43.282,43.282,0,0,1,.9-4.945c1.618-6,3.033-12.038,4.325-18.11a2.017,2.017,0,0,1,1.587-1.825c4.292-1.061,8.605-2.042,12.9-3.461a3.588,3.588,0,0,1,.03.808Zm3-5.9c-.276,1.462-1.615,2.085-2.811,2.543a75.465,75.465,0,0,1-15.641,4.159c-3.4.519-6.811.9-10.224,1.29-4.068.461-8.158.506-12.245.741-1.9,0-3.809.094-5.7-.017a155.381,155.381,0,0,1-17.8-2.246C40.3,73.318,34.717,72.537,29.209,71.4a101.352,101.352,0,0,1-14.657-3.752c-1.8-.663-3.046-1.553-3.182-3.662-.093-1.45-.52-2.875-.733-4.321-.232-1.581.336-2.01,1.854-1.457a5.273,5.273,0,0,1,.778.4,49.8,49.8,0,0,0,13.392,4.8c5.035,1.184,9.976,2.74,15.04,3.759a54.6,54.6,0,0,0,11.033,1.618,3.5,3.5,0,0,1,.877.032c4.964,1.282,10.045.509,15.06.872a63.944,63.944,0,0,0,18.644-1.945c2.985-.666,6.011-1.2,9.021-1.776a38.132,38.132,0,0,0,10.052-2.929,19.148,19.148,0,0,0,3.13-2.019c.969-.746,1.417-.526,1.467.73a27.032,27.032,0,0,1-.721,6.077Zm2.871-21.682c-.906,3.842-1.856,7.674-2.707,11.528a2.589,2.589,0,0,1-1.3,1.888,10.244,10.244,0,0,0-1.437,1.007,16.959,16.959,0,0,1-8.565,3.677c-1.416.2-2.793.892-4.351.524.325-3.382,1.147-6.612,1.669-10.027-1.114.138-1.35.654-1.43,1.129-.473,2.807-.971,5.615-1.266,8.443-.075.715-.15,1.108-.812,1.249C87.217,66.776,81.5,67.971,75.7,68.777c-3.141.437-6.282-.039-9.425,0A85.193,85.193,0,0,1,47.562,66.9c-6.775-1.443-13.51-3.068-20.264-4.612a38.9,38.9,0,0,1-8.876-3.033c-.825-.415-1.688-.731-1.217-2.04a4.075,4.075,0,0,0-.22-1.937c-.865-4.289-1.778-8.569-2.6-12.866a3.945,3.945,0,0,1,.218-2.989c1.525-2.4,1.285-5.026,1.027-7.665a24.19,24.19,0,0,1,.047-8.476,8.679,8.679,0,0,1,1.5-2.823c1.161-1.7,2.178-3.632,4.519-4.047,3.382-.6,6.762-1.113,10.167-.128,2.16.625,3.072,2.615,4.364,4.119a16.8,16.8,0,0,1,3.058,6.712,8.5,8.5,0,0,1,.409,3.241c-.336,2.907-.167,5.844-.531,8.755a9.671,9.671,0,0,0,.976,4.677,33.216,33.216,0,0,1,1.925,8.887c.367,3.49.926,6.96,1.4,10.439a3.277,3.277,0,0,0,.1.646c.123.348.311.672.763.607.357-.051.454-.359.475-.645a10.264,10.264,0,0,0-.131-2.62c-.417-2.3-.793-4.609-1.175-6.917a5.06,5.06,0,0,1-.08-1.094c.058-1.041.427-1.271,1.413-.906a3.6,3.6,0,0,1,.59.293c3.8,2.275,8.059,2.947,12.345,3.51a40.789,40.789,0,0,0,10.277.38c1.395-.169,1.774.267,1.8,1.783.026,1.76-.6,3.461-.5,5.235.043.8-.011,1.61,0,2.415,0,.349-.069.8.433.858a.844.844,0,0,0,.908-.77,5.487,5.487,0,0,0-.109-1.955c-.357-2.3.5-4.483.743-6.728.081-.735.733-.582,1.211-.615,1.972-.137,3.945-.332,5.919-.36a68.619,68.619,0,0,0,20.872-3.547,33,33,0,0,0,7.82-3.914c2-1.328,4.074-2.528,5.956-4.052A1.6,1.6,0,0,1,113.135,46.143Zm-.2-8.269a4.359,4.359,0,0,1-1.2,3.683C111.324,40.126,111.513,39.468,112.938,37.874ZM109.6,41.455a9.65,9.65,0,0,1-5.8,6.521c-4.473,1.82-8.848,3.814-13.633,4.71a17.99,17.99,0,0,1-2.383.337c-1.664.086-1.7.068-1.552-1.689.158-1.822.319-3.65.623-5.451,1.181-7,1.812-14.077,3.268-21.029a4.515,4.515,0,0,1,.917-2.642,8.543,8.543,0,0,0,2.221-5.325,15.3,15.3,0,0,1,3.129-7.832l.021-.023a.467.467,0,0,0,.682-.084,10.784,10.784,0,0,1,16.04-1.724c.01.565.443.9.81,1.258A12.071,12.071,0,0,1,117.8,18.505a19.911,19.911,0,0,1-1.883,8.046,95.14,95.14,0,0,0-6.316,14.9Z" transform="translate(12929.657 6939.556)" fill="#cf8fab"/><path d="M89.733,15.6c.044,3.069-3.565,5.38-5.945,5.4-1.953.016-4.765-2.9-4.788-4.979-.033-3.006,2.582-6.437,4.886-6.412A6.138,6.138,0,0,1,89.733,15.6Zm-1.393-.165a5.127,5.127,0,0,0-.808-2.807,1.756,1.756,0,0,0-1.828-.972,4.693,4.693,0,0,0-3.69,2.8,4.337,4.337,0,0,0,.5,3.977,2.167,2.167,0,0,0,2.664.964c1.381-.381,3.345-2.294,3.158-3.96Z" transform="translate(12950.814 6941.375)" fill="#cf8fab"/><path d="M92.289,15.9a8.794,8.794,0,0,1-.7,4.55c-1.229,3.971-2.758,7.833-4.275,11.7-1.142,2.913-1.977,5.945-2.941,8.927-.128.4-.047.9-.949,1.134a46.942,46.942,0,0,1,1.8-6.585c.7-2.234,1.645-4.364,2.423-6.561.754-2.128,1.379-4.3,2.177-6.415S90.885,18.206,92.289,15.9Z" transform="translate(12952.12 6943.234)" fill="#cf8fab"/><path d="M83.275,30.719a8.047,8.047,0,0,1-.827,5.147A7.054,7.054,0,0,1,83.275,30.719Z" transform="translate(12951.783 6947.609)" fill="#cf8fab"/><path d="M22.6,30.756a7.174,7.174,0,0,1-5.172-3.851,5.741,5.741,0,0,1,1.71-5.926,13.618,13.618,0,0,1,2.035-1.26c2.383-1.28,4.328-.343,6.13,1.258,1.609,1.43,1.495,3.216.962,5.03C27.5,28.608,24.84,30.792,22.6,30.756Zm4.558-5.939a3.208,3.208,0,0,0-4.522-3.1c-2.225,1.041-2.809,4.888-1.032,6.631a2.089,2.089,0,0,0,1.972.631A4.555,4.555,0,0,0,27.155,24.817Z" transform="translate(12932.565 6944.184)" fill="#cf8fab"/><path d="M14.016,32.412c.48-.06.657.133.685.328.739,5.269,1.564,10.524,2.59,15.747a.783.783,0,0,1-.434.862c-.981-1.228-.288-2.762-.707-4.074a35.756,35.756,0,0,1-.913-4.262c-.271-1.437-.569-2.875-.721-4.327C14.369,35.267,13.382,33.94,14.016,32.412Z" transform="translate(12931.565 6948.105)" fill="#cf8fab"/><path d="M18.193,47.691A24.908,24.908,0,0,1,16.53,37.54c.512-.251.69.065.706.3C17.458,41.142,18,44.41,18.193,47.691Z" transform="translate(12932.362 6949.595)" fill="#cf8fab"/><path d="M59.11,45.873c.706,1.342.379,6.354-.528,8.082A21.6,21.6,0,0,1,59.11,45.873Z" transform="translate(12944.737 6952.083)" fill="#cf8fab"/><path d="M72.581,44.341a16.088,16.088,0,0,1-1.084,6.5C70.927,48.429,71.278,45.747,72.581,44.341Z" transform="translate(12948.521 6951.631)" fill="#cf8fab"/><path d="M22.741,80.549c-.035.53-.077.913-.524,1s-.637-.238-.763-.593a3.551,3.551,0,0,1-.166-.635c-.968-6.207-3.04-12.169-4.059-18.365-.213-1.295-.454-2.585-.633-3.885-.056-.4-.138-.954.451-1.068.543-.105.774.321.857.773.278,1.508.568,3.016.787,4.533.638,4.421,2.007,8.674,2.956,13.024C22.036,77.121,22.4,78.91,22.741,80.549Z" transform="translate(12932.378 6955.366)" fill="#cf8fab"/><path d="M59.208,63.044q-.745,9.5-1.5,19.008c-.038.465-.092,1.039-.769,1.133-.357-1.528,1.131-18.756,1.734-20.157Z" transform="translate(12944.283 6957.148)" fill="#cf8fab"/><path d="M22.863,80.239c.411-6.073-1.893-11.68-2.522-17.557a1.035,1.035,0,0,1,.283-1c.236-.061.506.023.513.234.126,3.548,1.616,6.824,2.042,10.307a37.669,37.669,0,0,1,.666,6.545C23.817,79.31,23.992,79.992,22.863,80.239Z" transform="translate(12933.485 6956.744)" fill="#cf8fab"/><path d="M54.752,45.714a37,37,0,0,1-.057-10.29A84,84,0,0,0,55.1,21.437a7.14,7.14,0,0,1,.393-3.222c.125-.283.255-.575.578-.536.444.054.565.418.5.815-.62,3.693-.059,7.439-.5,11.136-.463,3.924-.6,7.869-.86,11.806a7.413,7.413,0,0,0,.175,3.253C55.514,45.01,55.517,45.412,54.752,45.714Z" transform="translate(12943.54 6943.758)" fill="#cf8fab"/><path d="M59.061,18.891c.344,1.886-.346,3.359-.305,5.25a4.33,4.33,0,0,1,.305-5.25Z" transform="translate(12944.618 6944.116)" fill="#cf8fab"/><path d="M72.537,82.527a1.758,1.758,0,0,1-.4-2.048c.841-3.771,1.653-7.55,2.572-11.3.523-2.136.753-4.308,1.1-6.468a3.429,3.429,0,0,1,.936-2.461c.682.545.469,1.263.361,1.807C75.752,68.83,74.331,75.589,72.537,82.527Z" transform="translate(12948.737 6956.327)" fill="#cf8fab"/><path d="M78.089,61.306a5.981,5.981,0,0,1-1.1,4.661,6.37,6.37,0,0,1,1.1-4.661Z" transform="translate(12950.198 6956.64)" fill="#cf8fab"/><path d="M54.42,97.392c.022-2.552-.453-5.138.344-7.817C55.806,91.146,55.7,95.568,54.42,97.392Z" transform="translate(12943.521 6964.986)" fill="#cf8fab"/><path d="M27.113,86.927c1.587,2.4,1.358,5.1,1.34,7.763-1.25-1.019-.884-2.446-1.051-3.727C27.228,89.629,26.553,88.358,27.113,86.927Z" transform="translate(12935.43 6964.204)" fill="#cf8fab"/><path d="M29.894,87.9a20.914,20.914,0,0,1,.4,7.034C29.125,93.634,28.89,90.09,29.894,87.9Z" transform="translate(12936.129 6964.492)" fill="#cf8fab"/></g></svg>