<svg xmlns="http://www.w3.org/2000/svg" width="77.652" height="215.381" viewBox="0 0 77.652 215.381"><path d="M129.3,143.638c.913,7.943.32,18.022.672,31.6.279,10.752,1.946,18.5-2.779,29.906-5.3,12.8-73.216,19.25-74.157-7.72-.407-11.642-.122-19.05.129-30.348.087-3.913.958-7.837.779-11.724-.567-12.238-.476-48.1,8.287-56,5.931-5.353,11.207-9.736,13.049-17.708,2.095-9.058,3.991-18.163,5.865-27.271,1.041-5.061,2.13-10.091,1.413-15.386-.757-5.585,1.595-11.615-.85-17-2.048-4.508-1.836-9.419-2.732-14.126-.443-2.324,3.319-5.277,4.869-6.59A3.811,3.811,0,0,1,86.373.854a111.035,111.035,0,0,0,19.272.321c3.327-.282,4.05.289,5.3,3.271,2.316,5.508.616,6.512,1.242,11.016.783,5.627-3.778,5.229-3.937,10.56-.083,2.813.334,9.906-.526,12.314-1.776,4.96-.8,13.727-.555,19.546.324,7.669.443,15.356,1.07,23,.517,6.316,8.583,16.614,13.415,17.916,6.911,1.862,6.946,38.741,7.647,44.837Zm-7.524-14.479c.33-8.333-1.12-16.369-3.244-24.359-1.794-6.737-5.574-1.563-10.06-7.279-3.816-4.863-6.7-14.193-6.14-20.162a9.832,9.832,0,0,0-.35-3.721c-1.52-4.973-.082-9.943-.491-14.936-.932-11.327.508-22.47,1.619-33.7a2.3,2.3,0,0,0-1.361-2.646c-3.044-1.137-12.885-2.575-12.821,2.9.074,6.391-.945,12.456-1.105,18.933-.295,11.838-2.661,29.282-6.682,39.423-3.095,7.808-4.463,14.038-12.28,18.851-7.877,4.85-7.174,17.838-7.808,25.933-.329,4.2,2.476,10.832,1.946,17.516-.07.875.347,3.686,1.745,3.283a51.423,51.423,0,0,0,11.614.982c24.844-1.08,41.018,1.811,44.93.482,3.691-1.25-.028-8.577.487-21.493ZM65,163.279l-1.938-1.742c-.963,1.8-1.032,1.451.208,3.086.465-.362.932-.722,1.73-1.344Zm53.151,39.658c-1.3-1.008-1.105-1.055-2.275-.113,1.04,1.108.858.975,2.275.113ZM63.537,188.917c-.379-.846-.3-.812-1.151-.449.166.345.332.688.5,1.033Z" transform="translate(-52.835 -0.82)" fill="#cf8fab" fill-rule="evenodd"/></svg>