<svg id="Group_103" data-name="Group 103" xmlns="http://www.w3.org/2000/svg" width="37.559" height="37.489" viewBox="0 0 37.559 37.489">
  <path id="Path_453" data-name="Path 453" d="M-802.623,261.692a10.414,10.414,0,0,0-10.348-8.313q-8.213-.007-16.426,0a11.054,11.054,0,0,0-1.646.111,10.419,10.419,0,0,0-8.912,10.274c-.018,5.581,0,11.162,0,16.742a9.445,9.445,0,0,0,.222,2.064,10.426,10.426,0,0,0,10.364,8.294q4.085,0,8.169,0t8.169,0a10.747,10.747,0,0,0,1.732-.116,10.421,10.421,0,0,0,8.895-10.422q.008-8.219,0-16.439A10.157,10.157,0,0,0-802.623,261.692Zm-3.957,18.614a6.249,6.249,0,0,1-6.393,6.39q-4.128.006-8.255,0-4.062,0-8.125,0a6.25,6.25,0,0,1-6.433-6.436q0-8.153,0-16.306a6.247,6.247,0,0,1,6.414-6.41q8.19,0,16.38,0a6.246,6.246,0,0,1,6.412,6.413Q-806.574,272.131-806.58,280.306Z" transform="translate(839.964 -253.375)" fill="#cf8fab"/>
  <path id="Path_454" data-name="Path 454" d="M-552.028,335.983a2.781,2.781,0,0,1,2.81-2.756,2.786,2.786,0,0,1,2.752,2.817,2.785,2.785,0,0,1-2.79,2.735A2.782,2.782,0,0,1-552.028,335.983Z" transform="translate(577.069 -326.282)" fill="#cf8fab"/>
  <path id="Path_455" data-name="Path 455" d="M-707.87,377.131A8,8,0,0,0-715.958,385a8,8,0,0,0,7.906,8.093,7.994,7.994,0,0,0,8.088-7.954A8.006,8.006,0,0,0-707.87,377.131Zm-.118,11.8a3.829,3.829,0,0,1-3.8-3.822,3.824,3.824,0,0,1,3.85-3.812,3.826,3.826,0,0,1,3.8,3.821A3.835,3.835,0,0,1-707.988,388.929Z" transform="translate(726.742 -366.368)" fill="#cf8fab"/>
</svg>
