<svg xmlns="http://www.w3.org/2000/svg" viewBox="0 0 52.72 38.42"><defs><style>.cls-1{fill:#dfd5d5;}</style></defs><g id="Layer_2" data-name="Layer 2"><g id="Layer_1-2" data-name="Layer 1"><path id="Union_5" data-name="Union 5" class="cls-1" d="M44.38,37.67c-.09,0-.17,0-.13-.07a1.77,1.77,0,0,1,.17-.06l0,.13h.18c-.17,0,.09-.26-.26-.29.4-.2,0-.36-.09-.53l.26,0,.14-.42h0a.27.27,0,0,0,.17,0c.07-.17,0-.35,0-.51l-.26.09c.08,0,0-.06.05-.1l0,0c1.43-.72.77-1.13.9-1.2l0,.07c.12-.84.62-1.07.86-1.95l-.43.1a8.65,8.65,0,0,1,.38-1.32c.2-.58.39-1.12.56-1.17.69-.91.22-2.05.74-3,.52-2.06-.21-4.2-.49-6.41l0,0c0-.39.2-.93-.1-1.2a.08.08,0,0,0,.07,0L47,19.63h0a2.84,2.84,0,0,0-.68-1.71c.17-.18-.07-.67.06-.89-.11-1.87-1.13-3.77-2-5.59,0-.06.19-.12.09-.32l-.27.1c.06-.87-.92-1.42-.74-2.33l-.42-.09L41.22,5.43c-.11-.56-.22-1.13-.32-1.7-.37-.6-.73-1.21-1.07-1.86.27-.39.55-.78.83-1.16L42,0c.51.12,1,.23,1.52.32a.06.06,0,0,0-.06,0c-.12.47.5.59.36,1.05h0c-.39.18.58.5.27.75,0,.33.4.34.55.49-.05,0-.26.28,0,.36,0,0,.58,0,.49.27s.18.45.26.67l.09-.09c.29.92,1.11,1.72,1.19,2.63-.42,0,.51,0,0,0l.11.31.06,0s-.07-.08,0-.16h0l0,0,0,0s.06,0,.08,0,0,.12-.05.15c.2.11.78,0,.47.45-.31.17.27.22-.08.26,1,.55.28,1.37,1.29,2l-.08,0,0,.23.25-.19c-.17.22.37.41.1.51l0,0c-.27.09-.06.27-.1.42.13-.06.15-.11.16-.13s0,0,0,0a.62.62,0,0,0,.19.12c-.16.52.41.79.18,1.2l.25,0c-.13.52.78.87.38,1.45.34.62.62,1,1,1.62,0,.35.33.83,0,1.12-.09.59.42.71.48,1.16-.48,0,0,.31-.21.49.23-.06.21,0,.2.13s0,.15.16.15l-.24.06.07.68-.07,0c-.21,0,0,.11,0,.22l.31.08h-.31c0,.08,0,.09.08.12h-.1c-.1.18.07.32.35.29,0,.08-.21.07-.17.14s.17,0,.24,0c-.07.15-.24.19-.1.41l-.14-.08c.14.13-.2.26.14.41l.41,0-.2-.17.44.27c0,.07-.1,0-.2.06.21.18-.17.24.17.3l-.27.07.27.12c-.17,0-.48-.05-.55.19l0,.22.31-.1c-.1.12-.49.22-.15.34l-.24,0c-.07.19.41,0,.24.2l-.2,0c.08.44.52.71.26,1.13h-.1a.56.56,0,0,0,0,.44l0-.05.09.3-.18,0,.09.21h-.13a.43.43,0,0,0,.11.56l.09-.07a3,3,0,0,0,.73.11v0l.15,0-.15,0c0,.17.3.06.14.3a.32.32,0,0,0-.3,0c.18.24,0,.15.41.32a.6.6,0,0,0-.74.21c0,.43.4.47.19.78l-.39.17c-.05.17.48.18.29.29-.16.34.2,0,.08.34h0l0,0h0c-.15.15,0,.23,0,.37l.12.21c.37.06,0,.2-.06.3l.26.08a2.41,2.41,0,0,0-.57,1.23h0c-.19,0-.14.18-.1.35l.12-.06a4,4,0,0,0-.49,1.5l.14.15c-.13-.1-.35,0-.4.06s0,.42-.09.64l-.1,0c.1-.37.14-.93.21-1.21l-.23-.05-.22.25.25.16c-.37.32-.22.55-.33.78a.3.3,0,0,0,.12.38v0h0l0,0,0-.37.16.06a.62.62,0,0,1-.15.34h0a2.63,2.63,0,0,0-.56.38l.08-.23L50,32c-.2.13.51.23-.11.51l-.29,0c.21.13-.28.4-.53.54l.82,0c-.14.25-.41.48-.39.74a.18.18,0,0,0-.2,0l0,.18-.15,0c.08.19.36.24.6.4l-.06,0c.32.2-.74.62-.69.86,0,0,.25,0,.06,0,.06,0,.15,0,.23,0-.08.11-.2.06-.49.27.27.22-.18.42-.31.61h0c-.07,0-.16,0-.11-.12L48,36.1c0,.09.37,0,.17.14a.3.3,0,0,1-.21,0c-.1,0-.18,0-.31.13s-.06.48-.34.54c-.1.16-1.18.46-.95.73l-.16-.07a.5.5,0,0,0-.13.22l.07.08,0,0s0,0,0-.06l0,0s0,.07,0,.08,0,0,.07,0l0,0,.05,0a.38.38,0,0,1-.15,0,.4.4,0,0,0-.28.07l.07.06c-.13,0-.34.14-.13-.09a7.65,7.65,0,0,0-1.4.46C44.21,38.27,44.31,37.87,44.38,37.67Zm1.46.4s.07,0,.07.06Zm2.66-2s.07,0,0,.15a.16.16,0,0,1,0-.15Zm-4-.1,0,0Zm-19.2-.44a4,4,0,0,1-.89-.35,4.59,4.59,0,0,0-.83-.48s0,0,0-.09l-.87-.57.08,0c-.11-.08-.22-.19-.33-.28l-.3-.22-.34-.25a4.68,4.68,0,0,0-.71-.44,4.8,4.8,0,0,0-1.61-.55,1.75,1.75,0,0,0-.63-.44,2.75,2.75,0,0,1-.72-.43,15.55,15.55,0,0,0-5.43-1.43A43.13,43.13,0,0,0,6.59,30c-.12-.05,0-.23-.56-.2L6,30a18.67,18.67,0,0,1-2.09-.37,4.59,4.59,0,0,1-2-1.23A4.89,4.89,0,0,1,.74,26.31a4.31,4.31,0,0,1-.13-.8,5.51,5.51,0,0,1,0-.7l-.42-.58a16.74,16.74,0,0,1-.1-4.58,9.83,9.83,0,0,1,.67-2.57,6.36,6.36,0,0,1,2-2.59,5.92,5.92,0,0,1,2.49-.86,8.62,8.62,0,0,1,2,0l4-.34.68.54c.1-.2.22-.39.3-.54-.12,0-.22.06-.11-.09s.2-.11.29-.18l-.18.27.26-.08c-.2,0,.35-.5-.1-.46.72-.49.28-.66.4-1l.38-.09c.22-.26.44-.52.69-.77-.07,0-.07-.1,0,0h0a.2.2,0,0,0,.2,0,5.78,5.78,0,0,0,.59-.87l-.5.16c.17-.06.14-.11.21-.18l0,0A12.07,12.07,0,0,0,17,8.87c.35-.28.37-.47.51-.5l-.06.11a6.74,6.74,0,0,1,2.22-1c.37-.11.76-.2,1.19-.3.21-.06.44-.1.68-.15l.37-.09.26-.05.32,0-.55-.1-.38-.1.15-.06.13,0,.2,0a5.52,5.52,0,0,1,1.35-.13,4.34,4.34,0,0,1,1.73.37,4.69,4.69,0,0,1,1.6,1.19,7.08,7.08,0,0,1,.61.83l.13.22.12.2.15.29.44,1a4,4,0,0,1,.35,1.17c.33,1.4.78,2.72,1.12,4a11.78,11.78,0,0,1,.46,3.78c.06,2.49.13,4.85.2,7.24,0,.58,0,1.16,0,1.75l0,.91V30a3,3,0,0,1,0,.42,7.36,7.36,0,0,1-.89,3.06,5,5,0,0,1-2.12,2l.06-.06a3.25,3.25,0,0,1-1.23.24,2.86,2.86,0,0,1-.82-.12Zm-.08-4.85c0,.09.08.18.13-.06l-.07-.57a1.81,1.81,0,0,1,0,.23,2.35,2.35,0,0,0,0-.53c0,.06,0,.14.07.29,0-.11,0-.07,0,0s.05.09,0-.15l.15.35a3.19,3.19,0,0,0-.11-.33c.1.19.23.6.38.62l.13,0-.25-.3c.1.1.44.41.21.05l.21.2c.14-.05-.33-.36-.13-.29l.17.17a.81.81,0,0,0-.09-.46.23.23,0,0,1,0-.16.06.06,0,0,1,0,0,.36.36,0,0,1,0-.1,1.6,1.6,0,0,1,.1-.23h.1a1.8,1.8,0,0,0,0-.8l-.05.08,0-.59.18,0-.06-.41h.13a1.4,1.4,0,0,0-.07-1.08l-.08.12c0-.1-.45-.21-.73-.3,0-.31-.29-.15-.12-.56.13.1.16.15.31.08-.17-.46-.05-.28-.4-.62.29.25.62.06.75-.32,0-.8-.4-.88-.2-1.43l.38-.32c0-.31-.48-.3-.3-.51.12-.62-.21-.06-.11-.6h0l0-.06c.14-.28,0-.41,0-.65L25.62,21c-.38-.06,0-.35,0-.52l-.28-.09a4.56,4.56,0,0,0,.21-2.2l-.1,0,.1-.05h0c.17-.1.06-.35,0-.6l-.1.14a6.26,6.26,0,0,0-.34-2.58L24.85,15c.18.06.29-.24.3-.36-.12-.33-.25-.66-.4-1l.1,0a2.43,2.43,0,0,1-.17-.6h0a4.36,4.36,0,0,0,0-1c.06.13.11.27.16.4,0-.17.07-.35.09-.51,0-.38-.54.16-.47-.84l.11-.34c-.13,0-.17-.13-.22-.36a3.12,3.12,0,0,0-.24-.73,2.75,2.75,0,0,1-.21.9,1.61,1.61,0,0,0-.32-.42.48.48,0,0,0-.46-.12s.09-.1,0-.21a.82.82,0,0,0-.2.12l-.11-.13c-.19.17-.09.44-.13.73v-.07c0,.1-.05.12-.12.12a3.31,3.31,0,0,1-.55,0c-.43,0-.92-.07-1.06.06.1,0,.27.15,0,.08,0,.06.19.06.29.1a.62.62,0,0,1-.33,0,2.51,2.51,0,0,0-.55,0c0,.19-.18.27-.42.31s-.48.1-.72.17c-.07,0-.26-.05,0-.2h-.56c-.14.09.45.13,0,.23a.32.32,0,0,1-.25-.06c-.09-.07-.15-.14-.55.06s-.63.6-1,.64c-.15.09-.63.21-1.1.39s-.87.42-.84.63l-.13-.12a2.28,2.28,0,0,0-.38.38l0,.13-.05,0a.19.19,0,0,1,0-.1v0c-.07.07-.06.1,0,.13a.07.07,0,0,0,0,.07v0l.05,0c-.16.1-.32,0-.62.2l0,.08c-.16,0-.55.32-.09-.12a5,5,0,0,0-1.3.68l0,0,.32.25.51,1.45-1.68,1.36a.18.18,0,0,0,.05-.07,2.61,2.61,0,0,0-1.18,0,2.12,2.12,0,0,1-1.17,0v0a.22.22,0,0,1,0,.14l0-.14c0-.22-.39-.12-.79,0s-.77.19-.87,0c-.57-.16-.89.25-1.2.38,0,0,0-.06,0-.09a.31.31,0,0,0-.44,0v0a1,1,0,0,0-.17.3c-.06.13-.11.23-.23.19s-.38.2-.54.4l.12,0a3.22,3.22,0,0,0-.66,1.9c-.08.84-.1,1.69-.21,2.43-.2-.14-.09,0,0,.05s.22.2,0,.05c0,.19,0,.38,0,.57h.07a.26.26,0,0,1,0-.29h0l0,0,0,0s0,.1.08.09,0,.19-.09.2c.16.31.75.53.38,1-.35.1.26.48-.11.36l.16.23c0,.08.07.07.1.1a.69.69,0,0,1,.11.13,2,2,0,0,0,.12.27.32.32,0,0,0,.27.18.25.25,0,0,0,.19-.05s.14,0,.21-.07a2.12,2.12,0,0,0,.29-.11l-.1.06.43,0-.15-.3c.13.12.37.08.59,0s.42-.09.4.06l-.06,0c0,.28.44.15.68.26,0-.14-.07-.19-.11-.2a1.4,1.4,0,0,0,.36-.13,3,3,0,0,0,1.23.15,2,2,0,0,1,1.12.19l.26-.2a3.17,3.17,0,0,0,1.3.11,2.29,2.29,0,0,1,1.69.32c1.42.1,2.34.11,3.76.32.35.11.8.22,1.2.38a1.47,1.47,0,0,1,.86.6c1,.61,1.63.41,2.48.87-.36.34.53.37.66.7.1-.21.24-.1.39,0s.27.2.4.11l-.11.22a12.67,12.67,0,0,1,1.17.87l-.12,0c-.14.16.21.14.32.32.05,0,.06-.07.09-.11l.1-.11a2.2,2.2,0,0,1-.17.25c0,.08,0,0,.08,0l-.06.09c0,.19.18.13.25-.17,0,.07,0,.24,0,.24s0-.18.06-.27c0,.13,0,.35.11.31a.61.61,0,0,0-.05.12,0,0,0,0,1,0,0s0,.05.06.1Zm.33-15.07.22-.06c0-.18,0-.37,0-.55L25.46,15c.1-.74-.21-1-.31-1.42s-.26-.46-.41-.46c.1.18.19.37.28.56l-.17,0a17,17,0,0,1,.68,2Zm-.81-2.58h0l0-.05a.05.05,0,0,0,0,.05h0ZM23.46,34.69l.1.05a.17.17,0,0,1-.1-.06Zm26.38-1.6v0l.18,0Zm1.68-2.41,0,.05Zm-26.66-.37,0,0s0,0,0,0Zm14-.83c-.09,0-.16,0-.13-.06a.58.58,0,0,0,.14,0v.09h.17c-.17,0,0-.16-.3-.21.32-.1-.13-.25-.2-.37h.23l.05-.27c-.07,0-.11-.05,0,0h0a.47.47,0,0,0,.17,0c0-.11-.11-.24-.16-.35l-.22,0c.07,0,0,0,0-.06h0c1.17-.37.46-.7.56-.73l.06.05c-.1-.54.32-.66.34-1.23l-.38.05a2.44,2.44,0,0,1,.08-.85c.07-.37.18-.72.33-.75.54-.58,0-1.33.52-1.82a3,3,0,0,0,.11-1.8c-.11-.61-.31-1.21-.4-1.87h0c.07-.24.25-.58,0-.72l.08,0-.09-.15h0a1.24,1.24,0,0,0-.55-1c.18-.13,0-.43.15-.58.06-1.2-.68-2.37-1.14-3.57,0-.05.21-.1.15-.22l-.27.08c.23-.6-.59-.95-.19-1.57l-.37-.05-1-2.16.09-1.07-.68-1.06.94-.85,1.31-.67,1.43,0h-.06c-.17.35.4.37.2.7h0c-.41.16.47.31.13.51-.1.23.31.21.43.31-.05,0-.3.21-.09.25,0,0,.54,0,.4.17s.06.3.1.45l.1-.06c.06.62.63,1.14.48,1.76-.4,0,.47,0,0,0l0,.2h.06s0-.05,0-.11h0l0,0,0,0a.08.08,0,0,0,.08,0s0,.08-.09.1c.15.07.72,0,.33.28s.2.14-.13.18c.76.33-.06.9.76,1.25l-.06,0v.15l.28-.14c-.21.16.26.25,0,.33h0c-.27.08-.11.18-.18.28.13,0,.17-.08.17-.1s0,0,0,0a.36.36,0,0,0,.17.07c-.25.35.25.48,0,.77h.23c-.22.36.62.51.15.92.24.37.46.6.73,1,0,.22.23.5-.13.72-.14.38.33.42.36.7-.47.07,0,.2-.24.33.23-.06.2,0,.19.07s0,.1.15.08l-.24.06,0,.43H44c-.2,0,0,.07,0,.14l.3,0-.3,0c-.05.06,0,.05.07.07H44c-.11.13.06.2.33.16,0,.05-.2.06-.18.1s.17,0,.24-.05-.24.14-.11.27l-.14,0c.14.07-.21.18.12.26l.41-.06-.2-.1.43.14c0,.05-.1,0-.2.06.2.1-.18.17.15.18l-.27.07.26.06c-.17,0-.47,0-.55.16l0,.14.32-.08c-.11.09-.49.18-.16.23l-.24.05c0,.06.06.06.15.05s.17,0,.08.06h-.2c.07.28.49.44.22.72h-.1c-.09.1,0,.24,0,.29l0,0,.08.2-.18,0,.08.14h-.13c-.13.14,0,.26.1.37l.08-.05a4.4,4.4,0,0,0,.73.06h0l.15,0h-.15c0,.11.29,0,.13.2a.51.51,0,0,0-.3,0c.17.16,0,.1.41.21a.86.86,0,0,0-.76.14c0,.29.4.32.18.52l-.39.11c-.06.11.47.12.28.19s.2,0,.08.23h0l0,0h0c-.16.09,0,.15,0,.24l.12.14c.37.06,0,.13-.06.19l.26.07a1.2,1.2,0,0,0-.55.77h0c-.19,0-.14.11-.08.22l.12,0a1.39,1.39,0,0,0-.39.92l.15.1a.53.53,0,0,0-.39,0c0,.08,0,.26,0,.39l-.09,0c0-.23,0-.58.07-.76l-.23,0-.2.15.27.11c-.33.18-.16.33-.23.47s0,.2.17.26l0-.24.17.05c0,.1,0,.19-.1.2h0a2.71,2.71,0,0,0-.49.22l0-.14-.31.07c-.18.08.53.18,0,.33l-.27,0c.23.1-.18.24-.4.33l.79,0c-.09.16-.3.3-.22.48a.24.24,0,0,0-.2,0l.09.12h-.14c.12.14.39.18.65.29l-.07,0c.35.15-.55.4-.45.56,0,0,.23,0,.06,0,.07,0,.14,0,.21,0s-.17,0-.4.17c.31.16-.07.28-.15.41s-.19,0-.17-.1l-.28.08c0,.06.34,0,.18.1a.31.31,0,0,1-.19,0c-.1,0-.18,0-.26.08s.05.32-.2.35c-.05.1-1,.24-.73.44l-.16-.07s-.08.09-.07.15h0s0,0,.05.05,0,0,0,0l.08.06,0,0,.07,0,0,0,.05,0a.33.33,0,0,1-.14,0,.34.34,0,0,0-.24,0l.07,0h-.1c-.08,0-.14,0,0-.07A7,7,0,0,0,39,30a.64.64,0,0,1-.1-.52Zm4.71-3.65h0l0,0Zm-3.27,4s.07,0,.08.05Zm2.05-1.17s.08,0,0,.1a.07.07,0,0,1,0-.1Zm-3.75-.33h0ZM43,26.7h0l.16,0Zm9.16-.18v0s0,0,0,0ZM25.32,26.3l.15.05v0Zm-.05,0,.05,0-.05,0ZM35.5,26.2c-.06,0-.17-.06-.15-.12l-.26,0s.3.12.17.13S35,26,34.86,26s0,.23-.18.16a.87.87,0,0,1-.31-.06c-.22-.06-.45-.12-.31,0l-.14-.11s-.07,0-.06.05l0,0s0,0,0,.06a.08.08,0,0,1,0,0l.06.08,0,0,.06.06,0,0,0,0c-.07,0-.22-.15-.31-.16l.05.06c-.09-.06-.23-.1-.1-.11L33,25.67l-.35-.2a.47.47,0,0,1-.09-.33c-.06,0-.12-.09-.1-.1l.11.07v0l.12.1c-.12-.11,0-.06-.24-.27.24.13-.11-.18-.18-.28l.18.13v-.1h0l.14.1c0-.05-.11-.17-.16-.25l-.17-.08s0,0,0,0l0,0c.45.2.54.14.5.07s-.17-.18-.13-.16l.06.05c-.14-.3.2-.2.17-.47l-.34-.11c-.08-.1-.06-.66.21-.62.47-.14,0-.62.45-.77a.89.89,0,0,0,.25-.85,3.71,3.71,0,0,1-.1-.94h0c.11-.1.35-.25.1-.35h.08l-.06-.08h0c0-.18,0-.37-.32-.54.21,0,.08-.2.27-.27.32-.58-.12-1.22-.27-1.86,0,0,.22,0,.19-.11l-.28,0c.37-.31-.33-.52.2-.84l-.34,0-.35-1.22.38-.59-.36-.6,1.14-.43,1.42-.3,1.36.06h-.07c-.25.18.29.22,0,.39h0c-.43.07.36.19,0,.28-.16.12.24.13.32.19s-.34.1-.15.13c0,0,.51,0,.33.1s0,.17,0,.25l.12,0c-.11.33.29.64,0,1-.4,0,.45,0,0,0l0,.11h.07s0,0,0-.06h0a.09.09,0,0,0,.07,0s0,0-.11.06c.13,0,.69,0,.25.16s.16.08-.18.09c.66.21-.27.48.43.71h-.05l0,.08.3-.07c-.23.08.19.15-.09.18h0c-.28,0-.14.09-.24.14a.41.41,0,0,0,.19,0s0,0,0,0a.42.42,0,0,0,.15,0c-.33.18.12.28-.22.42l.23,0c-.3.18.47.32-.07.51a5.57,5.57,0,0,0,.5.59c0,.12.1.3-.29.39-.22.2.24.26.21.43-.48,0-.08.11-.31.16.42,0,0,.1.29.11H38l-.07.24h-.06c-.21,0,0,0-.07.07l.29.05-.3,0c-.06,0,0,0,0,.05h-.1c-.13.06,0,.12.29.12,0,0-.21,0-.19,0a.36.36,0,0,0,.25,0c-.1,0-.27,0-.17.14l-.12,0c.11.06-.25.07.07.15l.41,0-.18-.07.4.13a.24.24,0,0,1-.12,0h-.1c.18.08-.2.07.13.13H38.1l.25.06a1.1,1.1,0,0,0-.57,0l-.07.07H38c-.12,0-.51,0-.2.11h-.24c-.1.06.4,0,.2.09l-.2,0c0,.16.41.3.1.42h-.1c-.1,0-.05.13,0,.16h0l0,.12-.18,0,.06.09-.13,0c-.15.06-.09.13.05.21h.09a6.68,6.68,0,0,0,.71.15c0,.06.28.07.11.13a.8.8,0,0,0-.3-.06c.15.12,0,.06.38.18a1.41,1.41,0,0,0-.76,0c0,.15.35.23.12.31h-.39c-.07.05.45.15.25.15s.2.05.06.14h0c-.16,0,0,.08,0,.12l.1.1c.36.1-.05.07-.07.1l.26.08a.71.71,0,0,0-.57.33l.1,0-.11,0h0c-.18,0-.13,0-.08.11h.12c-.32.2-.32.2-.37.46l.15.09a.83.83,0,0,0-.38-.07s0,.16,0,.24l-.1,0a4.28,4.28,0,0,1,.05-.43l-.21-.07-.19,0,.26.12c-.33,0-.16.16-.22.23s0,.13.17.19l0-.14.16.06c0,.06,0,.1-.09.1h0a2.26,2.26,0,0,0-.45,0l0-.07-.29,0c-.16,0,.51.23,0,.19l-.25,0c.22.11-.17.1-.36.1l.73.22c-.07.08-.26.12-.18.25a.44.44,0,0,0-.19-.07l.09.1-.13,0a3.76,3.76,0,0,0,.61.36l-.06,0c.32.19-.5.11-.42.24s.22.07.06,0A.65.65,0,0,0,36,26s-.06,0-.13,0a.88.88,0,0,0-.23,0c.27.2-.06.16-.14.22s.07,0,0,.07,0-.08,0-.1Zm1.08-1.51h.05l-.05,0Zm-2.87,1.42a.11.11,0,0,1,.06.07Zm-26-.66h0Zm36.53-.22,0,0ZM36,25.08h0l.15.06Zm1.16-.61,0,0Zm-4.94,0h0Zm20.34-.32,0,0Zm-48.13-1a.05.05,0,0,1,0,0,.05.05,0,0,1,0,0Zm33.27-.12h0Zm7-.47h0Zm-6.36-.31,0,0Zm-.14,0h0l.14,0Zm-12.5-.18v0c-.05,0,0,0,0,0ZM45.23,21h0Zm-11.74-.69h0a0,0,0,0,1,0,0Zm4.3-.07s0,0,0,0v0ZM47,19.89l0,0s0,0,0,0Zm4.19-1a0,0,0,0,1,0,0l0,0Zm-11.34-.25h0s0,0,0,0Zm4.19-1s0,0,0,0l0,0Zm-37.6-.07s0,0,0,0Zm5.16-.3,0,0Zm25.7-1.36h0ZM24.78,15l.06,0-.05,0Zm12.1-.58Zm-.17-.48h0Zm-22.83-.31s.08,0,0,.1Zm22.72-.06h0ZM19.22,11.23c.05,0,.06,0-.21.15a.46.46,0,0,1,.23-.16Zm4.68-.66v0l-.09.16a.54.54,0,0,0,.1-.18Zm-9.71-.34,0,0Zm27.54-.29,0,0s0,0,0,0ZM40.54,7.27h0Zm6.33-.66,0,0a.05.05,0,0,1,0,0Zm-6.75-.2-.14,0,.15,0Zm-.31-.66h0Zm4.8-3.14a0,0,0,0,1,0,0Zm-.69-1.29-.14,0,.15-.05Zm-.46-1s0,0,0,0Z"/></g></g></svg>