<svg xmlns="http://www.w3.org/2000/svg" width="93.316" height="94.144" viewBox="0 0 93.316 94.144"><path d="M95.2,29.047a1.555,1.555,0,0,0-1.63-2.148c-.838.107-19.369,2.545-30.914,9.717v-.331c.073-14-10.471-32.708-10.92-33.5A1.555,1.555,0,0,0,50.392,2h0a1.555,1.555,0,0,0-1.344.778c-.457.778-11.2,19.382-11.269,33.38q0,.918.022,1.8c-12.54-6.066-33.424-5.08-34.32-5.035a1.555,1.555,0,0,0-1.224,2.4c.5.761,12.288,18.71,24.762,25.062.933.467,1.84.9,2.733,1.289-.753.591-1.507,1.224-2.279,1.91C17.005,72.887,10.142,93.235,9.855,94.1a1.555,1.555,0,0,0,1.475,2.047,1.452,1.452,0,0,0,.311-.033c.89-.184,21.9-4.629,32.362-13.933a37.148,37.148,0,0,0,5.949-6.484A37.148,37.148,0,0,0,55.9,82.178c10.462,9.3,31.472,13.75,32.362,13.933a1.555,1.555,0,0,0,1.79-2.022c-.286-.862-7.155-21.209-17.61-30.512-.817-.726-1.618-1.4-2.416-2.022a43.849,43.849,0,0,0,5.239-3.465C86.423,49.637,94.845,29.884,95.2,29.047ZM50.215,57.994a3.111,3.111,0,1,1,3.111-3.111A3.111,3.111,0,0,1,50.215,57.994Z" transform="translate(-2.005 -2)" fill="#cf8fab"/></svg>