<svg xmlns="http://www.w3.org/2000/svg" width="110.057" height="103.233" viewBox="0 0 110.057 103.233"><g transform="translate(238.81 -360.792)"><path d="M-148.364,425.761c-.425-7.076-5.236-13.586-8.633-19.53,11.746-6.085,16.275-19.247,25.332-28.3a1.706,1.706,0,0,0-1.415-2.972c-8.774.991-15.567-2.689-22.643-6.368-2.83-2.83-5.519-5.236-9.34-6.368-6.227-1.981-15-.566-19.813,4.529-5.661-6.227-14.435-7.925-21.794-3.4-4.246,2.547-7.642,6.368-11.6,9.34a57.179,57.179,0,0,1-7.925,4.953,39.529,39.529,0,0,1-10.9,2.547c-1.7.142-2.406,2.83-.849,3.68a.494.494,0,0,1,.283.142,1.177,1.177,0,0,0,1.415.849c5.519,3.821,9.765,9.906,15,14.152,6.085,4.812,10.756,8.774,18.115,11.039a66.1,66.1,0,0,0,4.529,12.6c4.953,9.906,13.444,23.068,25.332,25.332C-160.394,450.244-147.657,438.073-148.364,425.761Zm11.463-47.126v-.283h.142C-136.76,378.493-136.9,378.493-136.9,378.635Zm-82.931,15.992c-4.387-3.255-7.359-7.642-11.322-11.18.566-.142,1.132-.424,1.7-.566a47.727,47.727,0,0,0,15.143-7.076c3.68-2.406,6.934-5.944,10.756-8.067,6.227-3.538,11.322-.566,16.841,1.274a1.035,1.035,0,0,0,1.274,1.274c6.085-1.981,10.756-5.095,17.832-3.68,3.963.849,6.651,4.67,9.906,6.934a35.606,35.606,0,0,0,19.53,5.944.52.52,0,0,0,.425-.142c-6.651,8.35-11.463,18.539-21.086,23.351a64.445,64.445,0,0,1-4.246-10.189,26,26,0,0,0,11.6-10.189c.708-.991,0-2.972-1.274-3.113-5.519-.708-10.189-2.547-15.85-1.415-5.236.991-10.048,4.246-15.143,5.236-6.651-1.132-12.454-6.085-19.247-5.661-4.953.283-10.331,2.547-14.718,4.529a1.849,1.849,0,0,0,.283,3.538c5.661,1.557,7.218,8.774,12.737,10.755q.212,4.246.849,8.491C-210.067,402.693-214.171,398.872-219.832,394.627Zm54.2-12.737A35.228,35.228,0,0,1-157,383.022a24.936,24.936,0,0,1-7.076,6.227C-164.639,386.843-165.205,384.437-165.63,381.89Zm-39.06,11.039c-3.4-2.123-5.236-6.085-8.35-8.633a31.942,31.942,0,0,1,6.934-1.981,9.486,9.486,0,0,1,2.83,0A37,37,0,0,0-204.689,392.928Zm39.2,46.985c-8.633,3.538-18.115-5.378-23.351-11.463a45.713,45.713,0,0,1-7.784-13.444,55.8,55.8,0,0,1-1.981-6.934,1.8,1.8,0,0,0-.142-.849,59.449,59.449,0,0,1-.991-8.774c-.283-5.236.283-10.614-.849-15.709,3.255.566,6.085,1.981,9.482,3.255a15.4,15.4,0,0,0,4.246.991c.566,12.6,5.236,28.729,12.737,38.352,1.415,1.7,4.67,0,3.538-2.123-3.4-6.085-6.793-12.029-9.057-18.822-1.981-5.8-2.972-11.746-4.387-17.69a9.48,9.48,0,0,0,2.547-.991h0c1.557-.283,3.113-.708,4.953-1.132,2.123-.708,4.246-1.415,6.51-1.981.425,10.189,3.963,20.237,8.067,29.436,1.84,4.1,4.67,7.925,5.661,12.312C-154.874,430.573-159.827,437.649-165.488,439.913Z" transform="translate(0 0)" fill="#cf8fab"/><path d="M-158.061,417.313a104.161,104.161,0,0,0-10.614-5.095h0a1.361,1.361,0,0,0-1.7,1.84c.708,1.981,2.972,3.113,4.812,4.1a33.871,33.871,0,0,0,6.227,2.547C-157.353,421.275-156.221,418.3-158.061,417.313Z" transform="translate(28.377 21.327)" fill="#cf8fab"/><path d="M-170.711,423.934c-1.132-.849-2.123-1.981-3.255-2.689h0c-.991-.424-2.406,0-2.123,1.557.425,1.7,1.7,2.972,2.689,4.246a11.648,11.648,0,0,0,4.1,3.255,1.951,1.951,0,0,0,2.264-3.113A40.3,40.3,0,0,0-170.711,423.934Z" transform="translate(26.027 25.036)" fill="#cf8fab"/><path d="M-180.353,429.547c-.283-.566-.566-.991-.849-1.557a21.9,21.9,0,0,1-1.132-2.123,1.347,1.347,0,0,0-.283-.991l-.283-.283a1.111,1.111,0,0,0-1.557,0,1.953,1.953,0,0,1-.566.425,1.684,1.684,0,0,0-.566,1.557c.991,3.4,2.406,6.934,4.953,9.482,1.132,1.132,3.255-.283,2.689-1.84C-178.655,432.66-179.5,431.245-180.353,429.547Z" transform="translate(22.082 26.358)" fill="#cf8fab"/><path d="M-196.538,424.728a18.563,18.563,0,0,0-2.123,11.322,2,2,0,0,0,3.963,0c.283-1.557.425-3.255.566-4.812.142-1.7.566-3.538.566-5.378C-193.566,424.445-195.548,423.029-196.538,424.728Z" transform="translate(16.615 26.224)" fill="#cf8fab"/><path d="M-204.734,420.96h0c-.142.142-.425.283-.566.425a11.981,11.981,0,0,0-1.981,2.689,31.951,31.951,0,0,0-2.689,5.944c-.708,2.123,2.547,3.113,3.4.991a36.175,36.175,0,0,1,3.821-7.784C-202.046,422.093-203.461,420.111-204.734,420.96Z" transform="translate(11.933 24.897)" fill="#cf8fab"/></g></svg>