<svg xmlns="http://www.w3.org/2000/svg" width="131.406" height="125.689" viewBox="0 0 131.406 125.689"><g transform="translate(-12838.984 -6943)"><g transform="translate(12838.984 6943)"><path d="M61.811,72.753l-1.493-32.84C51.362,36.927,52.854,22,63.3,22a8.41,8.41,0,0,1,2.985,16.42l1.493,34.333L94.651,71.26c7.464,0,13.435,4.478,13.435,10.449l1.493,29.854c0,7.464-5.971,11.942-11.942,13.434l-61.2,1.493c-5.971,0-11.942-4.478-11.942-10.449L23,86.187c0-7.464,4.478-11.942,10.449-13.434ZM64.8,78.723H34.942c-4.478,0-5.971,2.985-5.971,5.971l1.493,31.347c0,2.985,2.985,4.478,5.971,4.478l61.2-1.493a6.421,6.421,0,0,0,5.971-5.971l-1.493-31.347c0-2.985-2.985-4.478-5.971-4.478C85.694,77.231,75.245,77.231,64.8,78.723Zm0-50.753c-2.985-1.493-7.464,1.493-4.478,4.478S67.782,30.956,64.8,27.971Z" transform="translate(2.4 -0.801)" fill="#cf8fab"/><path d="M33.376,48.679c2.985,2.985,0,7.464-2.985,4.478C16.956,44.2,16.956,27.781,28.9,17.331c2.985-2.985,5.971,1.493,2.985,2.985C24.419,29.273,24.419,41.215,33.376,48.679Z" transform="translate(0.98 -3.597)" fill="#cf8fab"/><path d="M42.917,37.221c2.985,1.493,0,8.956-5.971,2.985-7.464-8.956,1.493-22.391,5.971-17.913,2.985,2.985-2.985,4.478-2.985,8.956C39.932,34.235,41.424,35.728,42.917,37.221Z" transform="translate(7.859 -1.095)" fill="#cf8fab"/><path d="M23.92,62.078c2.985,1.493,0,5.971-2.985,4.478C1.53,51.628,1.53,27.745,17.949,11.325c2.985-2.985,7.464,1.493,4.478,4.478C7.5,29.238,8.993,48.643,23.92,62.078Z" transform="translate(-5.984 -6.546)" fill="#cf8fab"/><path d="M75.886,51.15c-2.985,2.985-5.971-1.493-2.985-4.478,7.464-7.464,7.464-19.405-1.493-26.869-2.985-2.985,0-7.464,2.985-4.478C86.335,24.281,87.828,40.7,75.886,51.15Z" transform="translate(25.642 -4.575)" fill="#cf8fab"/><path d="M64.865,40.756c-2.985,2.985-7.464-1.493-4.478-4.478,4.478-2.985,2.985-7.464,0-10.449s0-8.956,5.971-2.985C70.836,27.321,70.836,36.278,64.865,40.756Z" transform="translate(20.244 -1.645)" fill="#cf8fab"/><path d="M88.379,63.33c-2.985,2.985-7.464-1.493-4.478-4.478,14.927-13.435,13.435-34.333-1.493-46.274-2.985-1.493,0-5.971,2.985-4.478C104.8,23.026,104.8,46.91,88.379,63.33Z" transform="translate(31.062 -7.799)" fill="#cf8fab"/><path d="M46.109,83.464c-4.478,0-4.478-5.971,0-5.971L86.412,76c2.985,0,2.985,5.971,0,5.971Z" transform="translate(12.131 25.806)" fill="#cf8fab"/><path d="M35.79,75c7.464,0,8.956,11.942,1.493,11.942C28.327,86.942,28.327,75,35.79,75Z" transform="translate(6.029 25.313)" fill="#cf8fab"/></g></g></svg>