<svg xmlns="http://www.w3.org/2000/svg" width="159.602" height="176.806" viewBox="0 0 159.602 176.806"><g transform="translate(-12667.5 -6943)"><g transform="translate(12661 6964.74)" fill="none" fill-rule="evenodd"><path d="M8.065,84.556c-.626,23.471-1.252,46.316-1.565,69.787,5.007,1.252,15.96.626,21.28,0,1.252-8.137-1.565-21.906.939-29.417,2.191-6.259,15.021-6.885,23.471-7.2,5.007-.313,9.075.626,13.77,1.565,5.633,1.252,5.007,2.817,6.259,8.762,1.565,8.45,1.565,18.777,2.816,26.6,5.007.313,8.762-.313,15.021,0-3.129-12.518.939-20.967,0-33.485-.939-11.266-.626-23.158-.626-34.424,0-17.212,0-34.737-1.878-51.323-.313-4.694-.626-11.266-1.252-15.96-8.45-5.633-5.946-2.5-17.525-3.442a84.781,84.781,0,0,0-20.028.626C37.794,17.9,19.018,13.518,10.568,17.9c-5.32,12.2-2.191,49.132-2.5,66.657ZM76.287,97.7c-8.45.626-10.64-1.565-9.075-14.083C71.905,81.427,74.1,80.488,79.1,81.74a4.448,4.448,0,0,1,1.878.626s.626,0,.626.313.313,0,.626.313a13.72,13.72,0,0,1,.313,10.014c-1.252,3.129-2.191,4.381-6.259,4.694Zm-46,2.5c-4.068.939-10.953.313-14.4-.626C14.95,95.822,15.262,88,16.2,84.869c1.565-.939,0-.313,1.878-.626l12.2-.626c1.878,5.007,2.816,12.518,0,16.586Zm28.478-3.442c-2.191,1.565-12.831,1.565-15.647.939-1.252-2.817-1.878-8.762-1.565-12.2,5.007-4.068,16.273-3.442,19.09-1.878.626,3.129.313,11.579-1.878,13.144Zm9.7-27.852c-1.252-4.694-2.191-11.266-.626-15.96,1.878-1.252,12.2-2.191,13.457-1.878,3.755,2.5,2.817,11.892.939,15.334ZM49.686,72.665c-6.572,0-8.762,0-9.388-5.633-.313-4.068-1.252-9.7,0-12.831,3.129-1.252,16.9-1.878,19.09.626,1.565,2.5.939,9.388.313,13.144-.939,4.694-4.381,4.694-10.014,4.694ZM83.8,28.852c.626,12.518-3.129,12.831-14.708,10.953-2.191-4.694-2.191-7.824-2.5-14.083,2.5-1.565,7.2-2.5,10.327-2.817,6.885-.939,6.885-.313,6.885,5.946ZM57.823,39.492C54.068,42.622,37.169,47,42.176,25.41c.313,0,.626,0,.626-.313s.313-.313.626-.313c22.219-5.946,16.586,13.144,14.4,14.708ZM28.406,71.1c-1.565,3.442-11.892,5.946-13.457,1.565a13.047,13.047,0,0,0-.626-1.878c-.313-1.252-.313-3.129-.626-4.381a30.286,30.286,0,0,1-.626-9.388c4.694-2.816,10.64-3.755,15.647-1.565.939,3.442,1.252,11.892-.313,15.647Zm.939-30.043C27.154,44.5,21.521,44.5,16.514,44.5c-2.191-2.817-5.007-17.212-1.252-20.028,2.5-3.442,12.2,0,15.021,1.252.939,3.755.939,12.2-.939,15.334Z" stroke="none"/><path d="M 61.17397308349609 17.69593811035156 C 57.42843627929688 17.69593811035156 54.38687515258789 17.98507690429688 48.98583602905273 18.63322448730469 L 48.97463607788086 18.634521484375 C 47.51835632324219 18.80096435546875 45.87919616699219 18.88186645507812 43.96351623535156 18.88186645507812 C 40.67007446289062 18.88186645507812 36.97735595703125 18.63581848144531 33.40619277954102 18.39787292480469 C 29.74703216552734 18.15406799316406 25.96329498291016 17.90196228027344 22.51589202880859 17.90190124511719 C 17.84772491455078 17.90190124511719 14.43721771240234 18.38404846191406 12.12788391113281 19.37355041503906 C 11.41730499267578 21.25355529785156 10.84194946289062 23.81776428222656 10.41475677490234 27.01191711425781 C 9.974052429199219 30.30715942382812 9.689033508300781 34.2186279296875 9.543411254882812 38.96980285644531 C 9.273674011230469 47.77030181884766 9.549911499023438 57.8524169921875 9.793632507324219 66.74770355224609 C 9.977134704589844 73.44551849365234 10.15047454833984 79.77188110351562 10.06439208984375 84.59220123291016 L 10.06399536132812 84.60980224609375 L 9.973358154296875 88.00659942626953 C 9.383766174316406 110.0875549316406 8.826072692871094 130.9737091064453 8.522682189941406 152.6947326660156 C 10.21511840820312 152.9387359619141 12.47005462646484 153.0658874511719 15.16099548339844 153.0658874511719 C 19.06918334960938 153.0658874511719 23.12879943847656 152.8010559082031 25.98287200927734 152.5236206054688 C 26.25137329101562 149.449951171875 26.07306671142578 145.6874389648438 25.88587188720703 141.7380981445312 C 25.58727264404297 135.4380645751953 25.27849578857422 128.9235229492188 26.82171630859375 124.2938995361328 L 26.83135223388672 124.2656555175781 C 29.52339935302734 116.5741195678711 43.63904190063477 116.0439453125 52.0908203125 115.7309494018555 C 52.7756233215332 115.6886825561523 53.47016906738281 115.6672592163086 54.15561294555664 115.6672592163086 C 58.11247634887695 115.6672592163086 61.57009506225586 116.3662796020508 65.23073577880859 117.1063613891602 C 65.60089111328125 117.1811981201172 65.97427368164062 117.2566833496094 66.35173034667969 117.3321838378906 L 66.39337158203125 117.3409576416016 C 68.51191711425781 117.8117599487305 70.65315246582031 118.4788360595703 71.96465301513672 120.1576843261719 C 73.02245330810547 121.5117950439453 73.32129669189453 123.1315994262695 73.73489379882812 125.3734817504883 C 73.85889434814453 126.0456008911133 73.99943542480469 126.8074188232422 74.17551422119141 127.6437835693359 L 74.18497467041016 127.6916198730469 C 75.05295562744141 132.3787231445312 75.44635009765625 137.5780181884766 75.82679748535156 142.6061401367188 C 76.09908294677734 146.2046661376953 76.35856628417969 149.6338195800781 76.77397155761719 152.7303619384766 C 77.19664001464844 152.7411193847656 77.62953186035156 152.7464447021484 78.07709503173828 152.7464447021484 C 79.33649444580078 152.7464447021484 80.56385803222656 152.7054748535156 81.86329650878906 152.6620941162109 C 83.28223419189453 152.6147613525391 84.74947357177734 152.5657806396484 86.38833618164062 152.5657653808594 C 86.78270721435547 152.5657653808594 87.17213439941406 152.5686187744141 87.55848693847656 152.5743865966797 C 86.35515594482422 146.0515747070312 86.94497680664062 140.4749908447266 87.51755523681641 135.0617828369141 C 87.97034454345703 130.7810668945312 88.43856811523438 126.3551483154297 88.06250762939453 121.3293075561523 C 87.30357360839844 112.2159271240234 87.35543060302734 102.7091369628906 87.40561676025391 93.51577758789062 C 87.41779327392578 91.28588104248047 87.43037414550781 88.98005676269531 87.43037414550781 86.74707794189453 C 87.43037414550781 69.72483825683594 87.43037414550781 52.12306213378906 85.56539154052734 35.64912414550781 L 85.55711364746094 35.55717468261719 C 85.55584716796875 35.53811645507812 85.5545654296875 35.51896667480469 85.55329895019531 35.49984741210938 C 85.18439483642578 37.66419982910156 84.47644805908203 39.22064208984375 83.38915252685547 40.36366271972656 C 81.43949127197266 42.41323852539062 78.66163635253906 42.65028381347656 76.74177551269531 42.65028381347656 C 74.58087158203125 42.65028381347656 71.99167633056641 42.30222320556641 68.76881408691406 41.77960205078125 L 67.72413635253906 41.61018371582031 L 67.27659606933594 40.65115356445312 C 65.07563781738281 35.934814453125 64.91569519042969 32.61341857910156 64.65073394775391 27.11073303222656 C 64.63077545166016 26.69612121582031 64.61011505126953 26.267333984375 64.587890625 25.82273864746094 L 64.52923583984375 24.64945983886719 L 65.525390625 24.02685546875 C 68.31585693359375 22.28282165527344 73.26769256591797 21.26454162597656 76.67771911621094 20.91989135742188 C 78.57514190673828 20.66177368164062 79.73165893554688 20.55638122558594 80.66363525390625 20.55638122558594 C 81.389404296875 20.55638122558594 83.34027099609375 20.55622863769531 84.58614349365234 22.01963806152344 C 84.53699493408203 21.5428466796875 84.485595703125 21.07737731933594 84.43169403076172 20.62614440917969 C 80.78570556640625 18.2421875 79.78933715820312 17.98043823242188 78.51323699951172 17.98043823242188 C 78.06529235839844 17.98043823242188 77.53709411621094 18.01765441894531 76.92549133300781 18.06074523925781 C 75.9642333984375 18.12847900390625 74.76789855957031 18.21275329589844 73.15953063964844 18.21275329589844 C 71.74411773681641 18.21275329589844 70.25963592529297 18.14826965332031 68.62174987792969 18.01564025878906 C 65.67585754394531 17.79753112792969 63.30915069580078 17.69593811035156 61.17397308349609 17.69593811035156 M 16.51423645019531 46.49955749511719 L 15.53607177734375 46.49955749511719 L 14.93553161621094 45.72743988037109 C 13.47165679931641 43.84532165527344 12.53129577636719 39.70579528808594 12.19495391845703 38.013427734375 C 11.46001434326172 34.31547546386719 11.24073791503906 30.68447875976562 11.59333801269531 28.05143737792969 C 11.90184783935547 25.74771118164062 12.65228271484375 24.07107543945312 13.82552337646484 23.06156921386719 C 14.96164703369141 21.68244934082031 16.81563568115234 20.98377990722656 19.34227752685547 20.98377990722656 C 23.45781707763672 20.98377990722656 28.83027648925781 22.88821411132812 31.09607696533203 23.89523315429688 L 31.98751831054688 24.29142761230469 L 32.22409820556641 25.23779296875 C 33.15159606933594 28.94779968261719 33.41411590576172 38.16253662109375 31.05995178222656 42.08614349365234 L 31.03229522705078 42.13092041015625 C 29.74039459228516 44.16104125976562 27.55537414550781 45.43820190429688 24.35235595703125 46.03537750244141 C 21.8626708984375 46.49955749511719 19.14369201660156 46.49955749511719 16.51423645019531 46.49955749511719 M 59.05952453613281 41.06503295898438 C 57.2049560546875 42.58438110351562 53.36757659912109 44.11013793945312 49.55999374389648 44.11013793945312 C 46.18235397338867 44.11013793945312 43.44457626342773 42.91158294677734 41.64267349243164 40.64402770996094 C 39.04735565185547 37.37803649902344 38.57119369506836 32.10054016113281 40.22741317749023 24.95811462402344 L 40.5864143371582 23.40989685058594 L 41.53379821777344 23.40989685058594 C 41.76608657836914 23.19804382324219 42.04655456542969 23.03181457519531 42.3647346496582 22.92576599121094 C 42.65538787841797 22.82888793945312 42.92659759521484 22.7982177734375 43.15021896362305 22.78851318359375 C 46.05949020385742 22.02632141113281 48.6776008605957 21.63995361328125 50.93525314331055 21.63995361328125 C 58.32905578613281 21.63995361328125 60.75847625732422 25.77589416503906 61.54855346679688 28.24130249023438 C 62.50547409057617 31.22735595703125 62.00485610961914 34.35162353515625 61.62125396728516 35.94819641113281 C 61.40103912353516 36.86476135253906 60.5731086730957 39.90605163574219 59.05952453613281 41.06503295898438 M 67.00591278076172 71.20696258544922 L 66.53061676025391 69.424560546875 C 65.68959045410156 66.27082061767578 63.94849395751953 58.29055786132812 65.93981170654297 52.31659698486328 L 66.15679168701172 51.66561889648438 L 66.72775268554688 51.28495788574219 C 69.20999145507812 49.63011932373047 78.63365173339844 49.0107421875 80.36919403076172 49.0107421875 C 81.019775390625 49.0107421875 81.44137573242188 49.04673767089844 81.77887725830078 49.13111877441406 L 82.11495208740234 49.21514129638672 L 82.4031982421875 49.40730285644531 C 85.27315521240234 51.32060241699219 85.87559509277344 55.34626007080078 85.87559509277344 58.38645935058594 C 85.87559509277344 61.73798370361328 85.13483428955078 65.26161956787109 83.98843383789062 67.36338043212891 L 83.53075408935547 68.20243835449219 L 67.00591278076172 71.20696258544922 M 49.68637466430664 74.66458129882812 C 43.1058349609375 74.66458129882812 39.13385391235352 74.66458129882812 38.31027603149414 67.25244140625 L 38.30393600463867 67.18498229980469 C 38.24461364746094 66.41407775878906 38.16189575195312 65.58229827880859 38.07429504394531 64.70168304443359 C 37.68873596191406 60.82518005371094 37.25173568725586 56.43144226074219 38.44107437133789 53.45806121826172 L 38.75941467285156 52.66222381591797 L 39.55523300170898 52.34390258789062 C 41.68227386474609 51.49305725097656 46.56155395507812 51.10553741455078 50.19487380981445 51.10553741455078 C 58.78915405273438 51.10553741455078 60.37251281738281 52.91510009765625 60.89281463623047 53.50974273681641 L 60.99855422973633 53.63057708740234 L 61.08365631103516 53.76673889160156 C 61.99887466430664 55.2310791015625 62.41813278198242 57.58413696289062 62.36537551879883 60.96040344238281 C 62.31577301025391 64.13433837890625 61.86493301391602 67.14997863769531 61.67339324951172 68.29921722412109 L 61.66177368164062 68.36266326904297 C 60.40137481689453 74.66458129882812 55.4359130859375 74.66458129882812 49.68637466430664 74.66458129882812 M 19.58121490478516 77.00298309326172 C 16.27273559570312 77.00298309326172 13.89803314208984 75.66687774658203 13.06603240966797 73.33724212646484 L 13.05215454101562 73.29708099365234 C 12.9161376953125 72.88899993896484 12.83247375488281 72.58635711669922 12.76525115966797 72.34317779541016 C 12.67493438720703 72.01638031005859 12.64113616943359 71.89410400390625 12.53475189208984 71.68134307861328 L 12.43657684326172 71.48497772216797 L 12.38333129882812 71.27198028564453 C 12.19155120849609 70.5048828125 12.10465240478516 69.63578033447266 12.02059173583984 68.79531860351562 C 11.95079803466797 68.09725952148438 11.87861633300781 67.37544250488281 11.75745391845703 66.89077758789062 L 11.74165344238281 66.82756042480469 L 11.72999572753906 66.76345825195312 C 11.07719421386719 63.17300415039062 10.75173187255859 61.10202026367188 11.07775115966797 56.86393737792969 L 11.15699768066406 55.83387756347656 L 12.04287719726562 55.30236053466797 C 15.33171081542969 53.32904052734375 19.13277435302734 52.24230194091797 22.74585723876953 52.24230194091797 C 25.15129089355469 52.24230194091797 27.43067169189453 52.70594024658203 29.52071380615234 53.62032318115234 L 30.39695739746094 54.00367736816406 L 30.64859771728516 54.92639923095703 C 31.71005249023438 58.81838226318359 32.01129150390625 67.64743804931641 30.25229644775391 71.86907958984375 L 30.22687530517578 71.92745971679688 C 29.37345123291016 73.80497741699219 27.31879425048828 75.00823974609375 25.74541473388672 75.68704223632812 C 23.80699157714844 76.52333831787109 21.56023406982422 77.00298309326172 19.58121490478516 77.00298309326172 M 79.38762664794922 79.75027465820312 C 80.2059326171875 79.80924987792969 80.92390441894531 80.11208343505859 81.53604888916016 80.40914154052734 C 82.11318206787109 80.502685546875 82.57299041748047 80.74150848388672 82.91131591796875 81.06330108642578 C 83.18103790283203 81.18581390380859 83.42674255371094 81.35743713378906 83.6468505859375 81.57753753662109 L 83.9371337890625 81.86782073974609 L 84.08959197998047 82.24897766113281 C 85.63387298583984 86.10971832275391 85.74615478515625 89.72879791259766 84.44293212890625 93.63845825195312 L 84.42435455322266 93.69422149658203 L 84.40253448486328 93.748779296875 C 82.91131591796875 97.47682189941406 81.3394775390625 99.31739807128906 76.44007873535156 99.69428253173828 L 76.43441772460938 99.69471740722656 C 75.51443481445312 99.76286315917969 74.71003723144531 99.79598236083984 73.97525024414062 99.79598236083984 C 71.65815734863281 99.79598236083984 68.75069427490234 99.51531982421875 66.81863403320312 97.32669830322266 C 64.71537780761719 94.94418334960938 64.26905822753906 91.03096008300781 65.22673034667969 83.36958312988281 L 65.36385345458984 82.27274322509766 L 66.36551666259766 81.8052978515625 C 69.50939178466797 80.33814239501953 71.99263000488281 79.17929840087891 75.14829254150391 79.17929840087891 C 76.43124389648438 79.17929840087891 77.78323364257812 79.36109924316406 79.38762664794922 79.75027465820312 M 48.96471405029297 100.091178894043 C 46.26585388183594 100.091178894043 43.91667556762695 99.92720031738281 42.6806755065918 99.65254211425781 L 41.69641494750977 99.43382263183594 L 41.28691482543945 98.51244354248047 C 39.85405349731445 95.28854370117188 39.22575378417969 88.96928405761719 39.55803298950195 85.31423950195312 L 39.63435363769531 84.47466278076172 L 40.28863525390625 83.94306182861328 C 44.06427383422852 80.87538146972656 50.00979614257812 80.41734313964844 53.21781539916992 80.41734313964844 C 56.01175308227539 80.41734313964844 59.68377304077148 80.79878234863281 61.61075592041016 81.86933898925781 L 62.41923522949219 82.31849670410156 L 62.60061264038086 83.22541809082031 C 62.97065353393555 85.07563781738281 63.02931594848633 88.19122314453125 62.7465934753418 90.97811889648438 C 62.15653610229492 96.79430389404297 60.47637557983398 97.99442291259766 59.92425537109375 98.38877868652344 C 57.85053634643555 99.87001800537109 52.16765594482422 100.091178894043 48.96471405029297 100.091178894043 M 25.26741790771484 102.6681365966797 C 21.83571624755859 102.6681365966797 17.94765472412109 102.212516784668 15.36209106445312 101.5073623657227 L 14.23211669921875 101.1992034912109 L 13.94805145263672 100.0628967285156 C 12.91959381103516 95.94899749755859 13.26637268066406 87.6922607421875 14.28563690185547 84.29473876953125 L 14.50817108154297 83.55294036865234 L 15.17225646972656 83.15447998046875 C 15.50067138671875 82.95742034912109 15.65353393554688 82.85014343261719 15.69209289550781 82.81780242919922 C 16.08461761474609 82.48866271972656 16.53231811523438 82.32176208496094 17.02277374267578 82.32176208496094 C 17.11515808105469 82.32176208496094 17.19911193847656 82.32821655273438 17.27091979980469 82.33698272705078 C 17.34625244140625 82.33024597167969 17.494873046875 82.31327819824219 17.75013732910156 82.27073669433594 L 17.86263275146484 82.25198364257812 L 31.64269256591797 81.54531860351562 L 32.15647125244141 82.91539764404297 C 33.23799514770508 85.79946136474609 33.92545318603516 89.17806243896484 34.04259490966797 92.18489837646484 C 34.18987274169922 95.96485900878906 33.45871353149414 99.13137817382812 31.92819213867188 101.3421630859375 L 31.48765563964844 101.9785003662109 L 30.73351287841797 102.1525192260742 C 29.2508544921875 102.4946594238281 27.41179656982422 102.6681365966797 25.26741790771484 102.6681365966797 M 61.17396926879883 15.69595336914062 C 63.37856674194336 15.69595336914062 65.78279113769531 15.79985046386719 68.77601623535156 16.02157592773438 C 74.36336517333984 16.47459411621094 76.67108154296875 15.98042297363281 78.51324462890625 15.98043823242188 C 80.48867797851562 15.98043823242188 81.92867279052734 16.54913330078125 86.30091857910156 19.46395874023438 C 86.92681121826172 24.15814208984375 87.23975372314453 30.72998046875 87.55269622802734 35.42413330078125 C 89.43037414550781 52.01022338867188 89.43037414550781 69.53511810302734 89.43037414550781 86.74707794189453 C 89.43037414550781 98.01309967041016 89.11741638183594 109.9050216674805 90.05625152587891 121.1710205078125 C 90.99507141113281 133.6887969970703 86.92681121826172 142.1383209228516 90.05625152587891 154.6560974121094 C 85.11988067626953 154.4092864990234 81.74119567871094 154.7464447021484 78.07708740234375 154.7464447021484 C 77.09542083740234 154.7464447021484 76.09291839599609 154.7222290039062 75.03489685058594 154.6560974121094 C 73.78313446044922 146.8324737548828 73.78313446044922 136.5052947998047 72.21841430664062 128.0558013916016 C 70.96663665771484 122.10986328125 71.59251403808594 120.5451354980469 65.95951843261719 119.2933349609375 C 61.26533126831055 118.3545227050781 57.19703674316406 117.4156951904297 52.18993377685547 117.7286376953125 C 43.74043273925781 118.0415649414062 30.90969085693359 118.6674652099609 28.71907806396484 124.9263610839844 C 26.21551513671875 132.4370422363281 29.03201293945312 146.2066192626953 27.78023529052734 154.3431549072266 C 22.46018218994141 154.9690551757812 11.50712585449219 155.5949554443359 6.499992370605469 154.3431549072266 C 6.812934875488281 130.872314453125 7.438835144042969 108.02734375 8.064712524414062 84.55648040771484 C 8.377677917480469 67.03156280517578 5.248214721679688 30.10409545898438 10.56827545166016 17.89921569824219 C 17.88528442382812 14.10525512695312 32.94475555419922 16.88186645507812 43.9635124206543 16.88186645507812 C 45.66898345947266 16.88186645507812 47.27946090698242 16.81523132324219 48.74753570556641 16.6474609375 C 53.79966354370117 16.04119873046875 57.15524673461914 15.69595336914062 61.17396926879883 15.69595336914062 Z M 76.74178314208984 40.65028381347656 C 82.35704040527344 40.65028381347656 84.25650024414062 38.03512573242188 83.79735565185547 28.852294921875 C 83.79735565185547 22.59342956542969 83.79735565185547 21.96754455566406 76.91257476806641 22.90635681152344 C 73.78313446044922 23.21931457519531 69.08895874023438 24.15814208984375 66.58539581298828 25.72285461425781 C 66.89833068847656 31.98176574707031 66.89833068847656 35.1112060546875 69.08895874023438 39.80537414550781 C 72.17380523681641 40.30561828613281 74.70246124267578 40.65028381347656 76.74178314208984 40.65028381347656 Z M 16.51423645019531 44.49955749511719 C 21.52135467529297 44.49955749511719 27.15435791015625 44.49955749511719 29.344970703125 41.05715942382812 C 31.22263336181641 37.92770385742188 31.22263336181641 29.47819519042969 30.2838134765625 25.72285461425781 C 27.46730041503906 24.47108459472656 17.76602935791016 21.02865600585938 15.262451171875 24.47108459472656 C 11.50711822509766 27.28759765625 14.32361602783203 41.68303680419922 16.51423645019531 44.49955749511719 Z M 49.55998992919922 42.11014556884766 C 52.92767715454102 42.11014556884766 56.36563110351562 40.70684814453125 57.82293319702148 39.49241638183594 C 59.72007369995117 38.1373291015625 64.20103454589844 23.63996887207031 50.93526458740234 23.63996887207031 C 48.88308334350586 23.63996887207031 46.40423202514648 23.9874267578125 43.42749404907227 24.78402709960938 C 43.11453628540039 24.78402709960938 42.80159378051758 24.78402709960938 42.80159378051758 25.09695434570312 C 42.80159378051758 25.40989685058594 42.48865509033203 25.40989685058594 42.17571640014648 25.40989685058594 C 39.11166381835938 38.62362670898438 44.24944686889648 42.11014556884766 49.55998992919922 42.11014556884766 Z M 68.46307373046875 68.90924072265625 L 82.23263549804688 66.40567779541016 C 84.11029052734375 62.96327972412109 85.04913330078125 53.57494354248047 81.29379272460938 51.07140350341797 C 80.04201507568359 50.75849151611328 69.71483612060547 51.69728851318359 67.83717346191406 52.94905853271484 C 66.27245330810547 57.64324188232422 67.21129608154297 64.21508026123047 68.46307373046875 68.90924072265625 Z M 49.68637466430664 72.66458129882812 C 55.31939315795898 72.66458129882812 58.76177597045898 72.66458129882812 59.70061492919922 67.97042083740234 C 60.32649612426758 64.21508026123047 60.95239639282227 57.33029937744141 59.38765335083008 54.82674407958984 C 57.19705581665039 52.32316589355469 43.42747116088867 52.94905090332031 40.29803466796875 54.20084381103516 C 39.0462532043457 57.33029937744141 39.98507308959961 62.96330261230469 40.29803466796875 67.03157806396484 C 40.92393493652344 72.66458129882812 43.11453628540039 72.66458129882812 49.68637466430664 72.66458129882812 Z M 19.58122253417969 75.00297546386719 C 23.10858154296875 75.00297546386719 27.43735504150391 73.23119354248047 28.40613555908203 71.09986114501953 C 29.97085571289062 67.34452056884766 29.65791320800781 58.89501953125 28.71907806396484 55.45263671875 C 23.71195220947266 53.26201629638672 17.76601409912109 54.20083618164062 13.07185363769531 57.01734161376953 C 12.75889587402344 61.08563995361328 13.07185363769531 62.96330261230469 13.69773101806641 66.40570068359375 C 14.01067352294922 67.65746307373047 14.01067352294922 69.53514099121094 14.32361602783203 70.78691864013672 C 14.63655090332031 71.41280364990234 14.63655090332031 71.72576141357422 14.94951629638672 72.66458129882812 C 15.54545593261719 74.33321380615234 17.41139221191406 75.00297546386719 19.58122253417969 75.00297546386719 Z M 73.97524261474609 97.79597473144531 C 74.68667602539062 97.79597473144531 75.45688629150391 97.76164245605469 76.28667449951172 97.70018005371094 C 80.35497283935547 97.38722229003906 81.29379272460938 96.13545989990234 82.54557800292969 93.00599670410156 C 83.79735565185547 89.25066375732422 83.48441314697266 86.12122344970703 82.23263549804688 82.99176025390625 C 81.91969299316406 82.67881774902344 81.60675048828125 82.99176025390625 81.60675048828125 82.67881774902344 C 81.60675048828125 82.36588287353516 80.98085021972656 82.36588287353516 80.98085021972656 82.36588287353516 C 80.35495758056641 82.05294036865234 79.72907257080078 81.73998260498047 79.10319519042969 81.73998260498047 C 74.0960693359375 80.48818969726562 71.90545654296875 81.42704010009766 67.21129608154297 83.61766052246094 C 65.80021667480469 94.90614318847656 67.44234466552734 97.79597473144531 73.97524261474609 97.79597473144531 Z M 48.96470642089844 98.09117889404297 C 52.90716171264648 98.09117889404297 57.41992568969727 97.71978759765625 58.76177597045898 96.76132202148438 C 60.95239639282227 95.19660186767578 61.26533508300781 86.74710083007812 60.63945388793945 83.61763763427734 C 57.82295227050781 82.05291748046875 46.55693817138672 81.42703247070312 41.5498161315918 85.49530029296875 C 41.23687362670898 88.93769836425781 41.86275482177734 94.88365936279297 43.11453628540039 97.70015716552734 C 44.2057991027832 97.94265747070312 46.47101211547852 98.09117889404297 48.96470642089844 98.09117889404297 Z M 25.26740264892578 100.6681442260742 C 27.10484313964844 100.6681442260742 28.86572265625 100.5309829711914 30.2838134765625 100.203742980957 C 33.10029602050781 96.13545989990234 32.16147613525391 88.62477874755859 30.2838134765625 83.61763763427734 L 18.07895660400391 84.24352264404297 C 17.14009857177734 84.39998626708984 17.0618896484375 84.32176971435547 17.02277374267578 84.32176971435547 C 16.98365783691406 84.32176971435547 16.98365783691406 84.40000915527344 16.2012939453125 84.86943817138672 C 15.262451171875 87.99887847900391 14.94951629638672 95.82250213623047 15.88833618164062 99.57784271240234 C 18.13081359863281 100.1894149780273 21.83351898193359 100.6681442260742 25.26740264892578 100.6681442260742 Z" stroke="none" fill="#cf8fab"/></g><path d="M28.428,30.266c10.64,1.252,13.144.313,9.388-10.64a14.61,14.61,0,0,0-10.953.626,14.907,14.907,0,0,0,1.565,10.014Z" transform="translate(12703.852 6971.463)" fill="#cf8fab" fill-rule="evenodd"/><path d="M21.8,23.594l-.939-2.817L9.913,18.9C9.6,22.029,9.6,26.724,9.6,29.54c.313,9.075,10.953,4.381,11.892,1.565.313-.626.313-4.068.313-5.007Z" transform="translate(12667.602 6971.563)" fill="#cf8fab" fill-rule="evenodd"/><path d="M37.453,38.5c-2.816-2.191-7.824-.313-10.953.313l.939,9.388,9.388-.313c.939-1.878,3.755-6.885.626-9.388Z" transform="translate(12703.589 7011.106)" fill="#cf8fab" fill-rule="evenodd"/><g transform="translate(12717.544 6939.267)" fill="none" fill-rule="evenodd"><path d="M34.451,69.973l.939,89.189a120.979,120.979,0,0,0-.626,21.28c11.892-.313,25.661-2.191,37.24-1.565,6.885.626,32.233,1.565,37.553,0,0-14.083-3.442-29.73-3.129-44.125.939-47.568-.939-45.69-3.755-89.5-.939-14.4-1.565-29.1-6.572-40.37-16.273-2.191-30.356-.626-45.69-.313-5.007,0-9.7-.626-14.708,0-.626,15.021-.626,30.043-2.5,44.125-.626,5.007.939,15.647,1.252,21.28ZM60.426,116.6c-.939,3.442-11.892,3.129-15.334,2.5-.313-16.586-3.755-20.341,13.144-17.838.626,2.191,3.129,11.892,2.191,15.334Zm-.313-30.043c-.313,4.694-1.565,4.694-6.259,5.007-11.266.626-10.64-1.252-9.075-13.144,2.191-.626,11.579-2.817,14.083-1.878.939,1.252,1.565,4.381,1.252,10.014ZM76.386,63.088c-2.191-3.442-4.068-13.144-2.5-16.586,2.5-2.191,12.2-2.817,16.586-1.565C93.6,46.5,93.911,54.951,93.285,57.768Zm13.77-35.676c-3.442,2.191-10.64,3.442-16.273,2.5a37.894,37.894,0,0,1-1.565-13.457c3.129-.939.313.313,3.755-.313,3.755-.626,4.381-2.5,12.831-.313,1.252,3.442,2.191,7.511,1.252,11.579ZM88.9,114.724c-6.885.939-8.762,1.878-14.4-.939-.626-4.381-.939-7.824.313-11.579l9.075-1.878c3.442-.313,5.946-.313,7.824,1.878.939,1.252.939,5.633.939,7.824.313,4.381,0,4.381-3.755,4.694ZM60.113,57.455c-.313,5.32-1.565,5.946-7.2,5.946-.939,0-5.946-.313-6.572-.313-2.817-.626-2.191-.939-2.191-3.755-.313-4.068-.939-8.137-.939-11.892C46.969,45.25,54.48,44,59.174,45.25a54.9,54.9,0,0,1,.939,12.2ZM58.235,30.229a42.671,42.671,0,0,1-5.32,1.252c-10.327,1.565-9.388-5.946-8.137-16.9l14.708.939a16.931,16.931,0,0,1,1.878,10.953c-.313,3.129-.313,2.817-3.129,3.755Zm34.737,53.2c-.626,8.137-4.068,9.7-17.525,6.885-1.252-1.878-3.129-11.579-.939-15.334,3.755-1.565,8.762-.313,13.457-.313,2.816,0,5.946-1.878,5.007,8.762Z" stroke="none"/><path d="M 77.56559753417969 5.73358154296875 C 72.32462310791016 5.73358154296875 67.05431365966797 5.954635620117188 61.95752716064453 6.168411254882812 C 58.22055053710938 6.325180053710938 54.35636138916016 6.48724365234375 50.45236206054688 6.566940307617188 L 50.41155242919922 6.567337036132812 C 48.68788909912109 6.567337036132812 46.99874114990234 6.494964599609375 45.36524200439453 6.424942016601562 C 43.73607635498047 6.355133056640625 42.19728851318359 6.2891845703125 40.62912750244141 6.289154052734375 C 39.54377746582031 6.289154052734375 38.56179046630859 6.320999145507812 37.6317138671875 6.3875732421875 C 37.51042938232422 9.523406982421875 37.41136169433594 12.68130493164062 37.31505584716797 15.751220703125 C 36.96809387207031 26.81147766113281 36.60932159423828 38.24801635742188 35.18312072753906 48.94888305664062 C 34.78532409667969 52.14923095703125 35.36501312255859 58.04665374755859 35.87652587890625 63.25038909912109 C 36.11833953857422 65.71038818359375 36.34674072265625 68.03396606445312 36.44828796386719 69.86186981201172 L 36.45124053955078 69.95175170898438 L 37.39145660400391 159.2711334228516 L 37.37596130371094 159.4003448486328 C 36.53482055664062 166.4098205566406 36.45552062988281 171.5298614501953 36.68882751464844 178.3779144287109 C 40.53816986083984 178.2273254394531 44.52877807617188 177.940673828125 48.71724700927734 177.6397705078125 C 54.80072021484375 177.2027282714844 61.09131622314453 176.7508239746094 66.98029327392578 176.7507476806641 C 68.81833648681641 176.750732421875 70.49716949462891 176.7931518554688 72.11269378662109 176.8804931640625 L 72.18581390380859 176.8858032226562 C 75.99871826171875 177.232421875 86.60745239257812 177.7338714599609 95.81558227539062 177.7338714599609 C 102.3518829345703 177.7338714599609 105.7646636962891 177.4873199462891 107.5425415039062 177.2408752441406 C 107.4287872314453 171.128173828125 106.7098007202148 164.6064453125 106.0125732421875 158.2819213867188 C 105.1519088745117 150.4745788574219 104.2619094848633 142.4014129638672 104.4290542602539 134.7128601074219 C 105.0908813476562 101.1806564331055 104.3474349975586 92.27922821044922 102.8662872314453 74.54522705078125 C 102.2591705322266 67.27627563476562 101.5036239624023 58.22984313964844 100.6775817871094 45.38029479980469 C 100.6141738891602 44.407958984375 100.5521697998047 43.43421936035156 100.4901733398438 42.46022033691406 C 100.0713348388672 35.88070678710938 99.63824462890625 29.07719421386719 98.74369812011719 22.78507995605469 C 97.82720184326172 16.33879089355469 96.50550079345703 11.06723022460938 94.71226501464844 6.71673583984375 C 89.35125732421875 6.046920776367188 83.86820983886719 5.73358154296875 77.56559753417969 5.73358154296875 M 63.3505859375 26.71359252929688 C 63.18890380859375 28.33009338378906 63.08649444580078 29.31129455566406 62.48662567138672 30.18025207519531 C 61.79595947265625 31.18075561523438 60.81259918212891 31.49725341796875 59.56764984130859 31.89793395996094 C 59.37275695800781 31.96067810058594 59.15361022949219 32.03121948242188 58.91912841796875 32.10902404785156 C 57.69045257568359 32.5899658203125 56.10594940185547 32.88893127441406 54.82888793945312 33.12983703613281 C 54.2742919921875 33.23446655273438 53.75045776367188 33.33329772949219 53.40016937255859 33.42086791992188 L 53.30831146240234 33.44381713867188 L 53.21469879150391 33.4580078125 C 52.21326446533203 33.6097412109375 51.27524566650391 33.68667602539062 50.42669677734375 33.68667602539062 C 47.70386505126953 33.68667602539062 45.60812377929688 32.88508605957031 44.19766998291016 31.30418395996094 C 41.23329162597656 27.98150634765625 41.90789031982422 22.08203125 42.76193237304688 14.61300659179688 L 43.00748443603516 12.46443176269531 L 60.63886260986328 13.58984375 L 61.18296051025391 14.46038818359375 C 63.17356872558594 17.64541625976562 63.9827880859375 22.22317504882812 63.3505859375 26.71359252929688 M 77.94012451171875 32.23123168945312 C 76.39328765869141 32.23123168945312 74.91745758056641 32.115966796875 73.55360412597656 31.88865661621094 L 72.33436584472656 31.68544006347656 L 71.97086334228516 30.5040283203125 C 70.57610321044922 25.97109985351562 70.00595855712891 21.0684814453125 70.32209777832031 16.32620239257812 L 70.41436004638672 14.94215393066406 L 71.74295806884766 14.5435791015625 C 72.85867309570312 14.2088623046875 73.38996124267578 14.09587097167969 73.84850311279297 14.0958251953125 C 74.21047210693359 14.09579467773438 74.54405212402344 14.16792297363281 74.84693145751953 14.31147766113281 C 75.02301788330078 14.29244995117188 75.29835510253906 14.25433349609375 75.71527099609375 14.17852783203125 L 75.74421691894531 14.17349243164062 C 76.56029510498047 14.03749084472656 77.21617126464844 13.82772827148438 77.91055297851562 13.60568237304688 C 79.09124755859375 13.22813415527344 80.42945861816406 12.8001708984375 82.45338439941406 12.8001708984375 C 84.30931091308594 12.8001708984375 86.51846313476562 13.14881896972656 89.40567016601562 13.8973388671875 L 90.42385864257812 14.16131591796875 L 90.78334045410156 15.14987182617188 C 92.53474426269531 19.96623229980469 92.96684265136719 24.12442016601562 92.10431671142578 27.86201477050781 L 91.92017364501953 28.65995788574219 L 91.22926330566406 29.09962463378906 C 88.23981475830078 31.00198364257812 83.02350616455078 32.23123168945312 77.94012451171875 32.23123168945312 M 75.52262115478516 65.45658111572266 L 74.69864654541016 64.16177368164062 C 73.26105499267578 61.90265655517578 72.23448181152344 58.01177215576172 71.753173828125 55.123779296875 C 71.35369873046875 52.72700500488281 70.86260223388672 48.31230163574219 72.06169891357422 45.67431640625 L 72.24040985107422 45.28117370605469 L 72.56543731689453 44.99676513671875 C 75.49971771240234 42.42927551269531 83.092529296875 42.29922485351562 84.58481597900391 42.29922485351562 C 86.37802886962891 42.29922485351562 88.94972229003906 42.42324829101562 91.01792907714844 43.01416015625 L 91.19667053222656 43.06523132324219 L 91.36293029785156 43.14834594726562 C 95.90570068359375 45.41976928710938 95.86972045898438 55.35622406005859 95.23738098144531 58.20179748535156 L 94.98690795898438 59.32891845703125 L 75.52262115478516 65.45658111572266 M 62.10701751708984 57.61229705810547 C 61.93543243408203 60.47598266601562 61.46336364746094 62.65888977050781 59.73688507080078 64.00170135498047 C 58.07321929931641 65.295654296875 55.66314697265625 65.40093994140625 52.91512298583984 65.40093994140625 C 52.38386535644531 65.40093994140625 51.00704956054688 65.32846069335938 48.96724700927734 65.21788787841797 C 47.90212249755859 65.16017913818359 46.57657623291016 65.08831787109375 46.34329223632812 65.08798980712891 L 46.12374114990234 65.08798980712891 L 45.90943145751953 65.04036712646484 C 42.83702850341797 64.35762786865234 41.98677062988281 63.34243774414062 42.11862182617188 60.51436614990234 C 42.13368225097656 60.19126129150391 42.15065002441406 59.82745361328125 42.15250396728516 59.407958984375 C 42.04705047607422 58.05463409423828 41.90418243408203 56.67399597167969 41.76590728759766 55.337890625 C 41.4945068359375 52.71501159667969 41.21383666992188 50.00283813476562 41.21383666992188 47.44076538085938 L 41.21383666992188 46.29203796386719 L 42.20610046386719 45.71322631835938 C 45.24150848388672 43.94253540039062 50.31365203857422 42.75286865234375 54.82746124267578 42.75286865234375 C 56.64812469482422 42.75286865234375 58.28388977050781 42.94288635253906 59.68933868408203 43.31765747070312 L 60.91488647460938 43.64447021484375 L 61.14176940917969 44.89239501953125 C 61.71971893310547 48.07121276855469 62.45101928710938 54.06861877441406 62.10701751708984 57.61229705810547 M 87.96493530273438 72.66696166992188 C 88.25022125244141 72.66696166992188 88.57264709472656 72.63898468017578 88.91400146484375 72.60936737060547 C 89.31184387207031 72.57486724853516 89.72319793701172 72.53917694091797 90.15526580810547 72.53917694091797 C 90.68690490722656 72.53917694091797 92.30471801757812 72.53917694091797 93.54441070556641 73.89305877685547 C 94.9989013671875 75.48155975341797 95.42400360107422 78.38321685791016 94.96537017822266 83.59324645996094 C 94.693359375 87.11400604248047 93.91444396972656 89.40122222900391 92.44031524658203 91.00865173339844 C 90.81462097167969 92.78134155273438 88.45867156982422 93.60698699951172 85.02595520019531 93.60698699951172 C 82.5635986328125 93.60698699951172 79.38967132568359 93.18272399902344 75.03743743896484 92.27177429199219 L 74.23679351806641 92.10420227050781 L 73.78305053710938 91.42360687255859 C 72.78524017333984 89.92691802978516 72.01755523681641 86.40310668945312 71.69936370849609 83.57477569580078 C 71.36598205566406 80.61132049560547 71.282958984375 76.539794921875 72.78076934814453 73.97217559814453 L 73.11914825439453 73.39205932617188 L 73.73907470703125 73.13375091552734 C 75.27955627441406 72.49191284179688 77.04907989501953 72.19293975830078 79.30789184570312 72.19291687011719 C 80.754150390625 72.19289398193359 82.25245666503906 72.314697265625 83.70143127441406 72.43251037597656 C 85.11929321289062 72.54777526855469 86.58541107177734 72.66696166992188 87.96493530273438 72.66696166992188 M 50.61605072021484 93.67169952392578 C 47.82821655273438 93.67169952392578 45.01945495605469 93.41036987304688 43.35852813720703 91.51457977294922 C 41.33164978027344 89.20105743408203 41.79850769042969 85.68160247802734 42.64602661132812 79.29244232177734 C 42.69464874267578 78.92591857910156 42.74465179443359 78.54898834228516 42.79564666748047 78.16139221191406 L 42.96688842773438 76.85989379882812 L 44.22910308837891 76.49925231933594 C 45.48717498779297 76.13979339599609 52.77238464355469 74.31405639648438 57.02645874023438 74.31405639648438 C 58.10605621337891 74.31405639648438 58.91214752197266 74.42779541015625 59.56331634521484 74.67198944091797 L 60.11043548583984 74.87715148925781 L 60.46105194091797 75.34462738037109 C 61.86831665039062 77.22093963623047 62.42300415039062 81.03129577636719 62.10976409912109 86.66982269287109 L 62.10841369628906 86.69189453125 C 61.93988800048828 89.21996307373047 61.48683929443359 91.1427001953125 59.82357788085938 92.30941772460938 C 58.46188354492188 93.26460266113281 56.77800750732422 93.3763427734375 54.22914886474609 93.54546356201172 L 53.96491241455078 93.56291198730469 C 52.6473388671875 93.6361083984375 51.55191040039062 93.67169952392578 50.61605072021484 93.67169952392578 M 94.65908813476562 109.958869934082 C 95.02132415771484 115.1599960327148 94.07887268066406 116.2997589111328 89.13567352294922 116.7115097045898 L 89.12220764160156 116.7126312255859 C 88.12321472167969 116.849365234375 87.21365356445312 116.9886322021484 86.40959930419922 117.1117477416992 C 84.3990478515625 117.4195785522461 82.81102752685547 117.662727355957 81.23662567138672 117.662727355957 C 78.78964996337891 117.662727355957 76.58119964599609 117.0575561523438 73.61388397216797 115.5739135742188 L 72.67659759521484 115.1052703857422 L 72.52841186523438 114.0678939819336 C 71.90974426269531 109.737174987793 71.51248168945312 105.8078689575195 72.92388916015625 101.5736541748047 L 73.28810119628906 100.4809417724609 L 83.60257720947266 98.34691619873047 L 83.715576171875 98.33665466308594 C 84.56610107421875 98.25934600830078 85.56488800048828 98.1802978515625 86.52388763427734 98.1802978515625 C 88.56304931640625 98.1802978515625 91.16909790039062 98.48993682861328 93.23879241943359 100.9045104980469 L 93.28119659423828 100.953987121582 L 93.3203125 101.0061264038086 C 94.43421936035156 102.4914093017578 94.65679931640625 105.415153503418 94.65908813476562 109.958869934082 M 50.61810302734375 121.4998016357422 C 48.43685913085938 121.4998016357422 46.18207550048828 121.3361968994141 44.73369598388672 121.0728454589844 L 43.12271881103516 120.7799377441406 L 43.09184265136719 119.1428451538086 C 43.04198455810547 116.5008697509766 42.911865234375 114.1926803588867 42.79707336425781 112.1562042236328 C 42.47186279296875 106.3872756958008 42.27557373046875 102.9051742553711 44.43759918212891 100.6178436279297 C 45.78157806396484 99.19596099853516 47.76615142822266 98.5618896484375 50.8724365234375 98.5618896484375 C 52.74790954589844 98.5618896484375 55.18062591552734 98.79289245605469 58.52826690673828 99.28884124755859 L 59.803955078125 99.47784423828125 L 60.15821838378906 100.7178192138672 C 60.52698516845703 102.0085067749023 61.30522155761719 105.015007019043 61.88300323486328 108.0964126586914 C 62.68772125244141 112.3882751464844 62.84221649169922 115.3424606323242 62.35531616210938 117.1277923583984 C 61.56410217285156 120.0288391113281 57.61512756347656 121.4998016357422 50.61810302734375 121.4998016357422 M 77.56559753417969 3.733566284179688 C 83.54257965087891 3.733566284179688 89.65043640136719 4.011856079101562 96.10148620605469 4.880279541015625 C 101.1085968017578 16.14627075195312 101.734504699707 30.85467529296875 102.67333984375 45.2501220703125 C 105.4898376464844 89.06241607666016 107.3675079345703 87.18474578857422 106.4286727905273 134.7523498535156 C 106.11572265625 149.1478271484375 109.55810546875 164.7950592041016 109.55810546875 178.8775787353516 C 104.2380523681641 180.4422912597656 78.8895263671875 179.5034637451172 72.00474548339844 178.8775787353516 C 60.42574310302734 178.2516784667969 46.65621185302734 180.1293640136719 34.76431274414062 180.4422912597656 C 34.45136260986328 172.6186828613281 34.45136260986328 166.9856719970703 35.39019775390625 159.1620635986328 L 34.45136260986328 69.97279357910156 C 34.13843536376953 64.33977508544922 32.57369232177734 53.69964599609375 33.19960021972656 48.69255065917969 C 35.07723999023438 34.61003112792969 35.07723999023438 19.58868408203125 35.70314788818359 4.567337036132812 C 40.71026611328125 3.94146728515625 45.40442657470703 4.567337036132812 50.41155242919922 4.567337036132812 C 59.66698455810547 4.378433227539062 68.46530151367188 3.733566284179688 77.56559753417969 3.733566284179688 Z M 50.42669677734375 31.68667602539062 C 51.17257690429688 31.68667602539062 51.9998779296875 31.61924743652344 52.91510009765625 31.48057556152344 C 54.16688537597656 31.16763305664062 56.67045593261719 30.85467529296875 58.23516845703125 30.22879028320312 C 61.05167388916016 29.28996276855469 61.05167388916016 29.60289001464844 61.3646240234375 26.47346496582031 C 61.99050903320312 22.09222412109375 61.05167388916016 18.02395629882812 59.48696136474609 15.5203857421875 L 44.77855682373047 14.58155822753906 C 43.63770294189453 24.56393432617188 42.75624084472656 31.68667602539062 50.42669677734375 31.68667602539062 Z M 77.94011688232422 30.23123168945312 C 82.61888122558594 30.23123168945312 87.50251770019531 29.10057067871094 90.15553283691406 27.41229248046875 C 91.0943603515625 23.34400939941406 90.15553283691406 19.27574157714844 88.90374755859375 15.83334350585938 C 80.45426940917969 13.6427001953125 79.828369140625 15.5203857421875 76.07302856445312 16.14627075195312 C 73.64672088623047 16.58746337890625 74.329833984375 16.09579467773438 73.84865570068359 16.0958251953125 C 73.64714813232422 16.09585571289062 73.24137878417969 16.18211364746094 72.31767272949219 16.459228515625 C 72.00474548339844 21.15339660644531 72.63062286376953 25.84757995605469 73.88240814208984 29.91586303710938 C 75.17411041259766 30.13114929199219 76.54801177978516 30.23123168945312 77.94011688232422 30.23123168945312 Z M 76.38597869873047 63.0880126953125 L 93.28500366210938 57.76793670654297 C 93.910888671875 54.95144653320312 93.59793090820312 46.50193786621094 90.468505859375 44.93719482421875 C 86.08726501464844 43.68547058105469 76.38597869873047 44.31132507324219 73.88243103027344 46.50193786621094 C 72.31769561767578 49.94432067871094 74.19536590576172 59.64560699462891 76.38597869873047 63.0880126953125 Z M 52.91512298583984 63.40093994140625 C 58.54812622070312 63.40093994140625 59.79991149902344 62.77505493164062 60.11283874511719 57.45500946044922 C 60.42578887939453 54.32553100585938 59.79988861083984 48.69255065917969 59.17402648925781 45.2501220703125 C 54.47983551025391 43.99838256835938 46.96916961669922 45.2501220703125 43.21383666992188 47.44076538085938 C 43.21383666992188 51.19607543945312 43.8397216796875 55.26438903808594 44.15267181396484 59.33265686035156 C 44.15267181396484 62.14917755126953 43.52676391601562 62.46210479736328 46.34329223632812 63.08798980712891 C 46.96916961669922 63.08798980712891 51.97628784179688 63.40093994140625 52.91512298583984 63.40093994140625 Z M 87.96493530273438 74.66696166992188 C 83.27076721191406 74.66696166992188 78.26365661621094 73.41518402099609 74.50831604003906 74.97991180419922 C 72.31769561767578 78.73524475097656 74.19536590576172 88.43653106689453 75.44715118408203 90.31420135498047 C 88.90377044677734 93.13070678710938 92.34614562988281 91.56598663330078 92.97205352783203 83.42941284179688 C 93.910888671875 72.78928375244141 90.78144836425781 74.66696166992188 87.96493530273438 74.66696166992188 Z M 50.61604309082031 91.67170715332031 C 51.56658172607422 91.67170715332031 52.64167785644531 91.63333129882812 53.85395812988281 91.56598663330078 C 58.54812622070312 91.25303649902344 59.79991149902344 91.25303649902344 60.11283874511719 86.55886840820312 C 60.42578887939453 80.92584228515625 59.79988861083984 77.79639434814453 58.86105346679688 76.54463195800781 C 56.35752105712891 75.60578918457031 46.96916961669922 77.79641723632812 44.77855682373047 78.42229461669922 C 43.38218688964844 89.03457641601562 42.73299407958984 91.67170715332031 50.61604309082031 91.67170715332031 Z M 81.23661804199219 115.662727355957 C 83.27076721191406 115.662727355957 85.46138000488281 115.1933059692383 88.90376281738281 114.7238922119141 C 92.65910339355469 114.4109420776367 92.97205352783203 114.4109420776367 92.65910339355469 110.0297241210938 C 92.65910339355469 107.8391036987305 92.65910339355469 103.457893371582 91.72029113769531 102.2061080932617 C 89.84259796142578 100.0154876708984 87.33905029296875 100.0155029296875 83.89665222167969 100.3284378051758 L 74.82124328613281 102.2061080932617 C 73.56948089599609 105.9614410400391 73.88243103027344 109.4038162231445 74.50831604003906 113.7850570678711 C 77.32481384277344 115.1933059692383 79.20248413085938 115.662727355957 81.23661804199219 115.662727355957 Z M 50.61809539794922 119.4998016357422 C 54.90061950683594 119.4998016357422 59.81094360351562 118.8559951782227 60.42578887939453 116.6015548706055 C 61.3646240234375 113.1591567993164 58.86105346679688 103.4578704833984 58.23516845703125 101.2672500610352 C 41.33614349365234 98.76369476318359 44.77854156494141 102.5190353393555 45.09148406982422 119.1051025390625 C 46.27943420410156 119.3211059570312 48.36148834228516 119.4998016357422 50.61809539794922 119.4998016357422 Z" stroke="none" fill="#cf8fab"/></g><path d="M37.866,36.233c-.313,2.5-.939,10.014.626,11.579,2.191,1.878,8.45.313,10.327-.939a11.493,11.493,0,0,0-.313-5.633l-.626-2.817-.313-.626c-1.252-3.129-4.694-2.191-9.7-1.565Z" transform="translate(12726.96 7007.118)" fill="#cf8fab" fill-rule="evenodd"/><path d="M38.457,18.84a16.979,16.979,0,0,0,11.892-1.565,15.239,15.239,0,0,0-1.565-8.762L37.518,8.2c-.313,4.381-.313,7.2.939,10.64Z" transform="translate(12726.682 6948.778)" fill="#cf8fab" fill-rule="evenodd"/></g></svg>