<svg xmlns="http://www.w3.org/2000/svg" width="139.999" height="177.711" viewBox="0 0 139.999 177.711"><g transform="translate(-573.7 -7755)"><path d="M104.1,142.344a2.59,2.59,0,0,1-2.247,2.06,2.989,2.989,0,0,0-1.686,1.311c-2.435,3.933-6.368,6.368-9.552,9.552a4.638,4.638,0,0,1-2.622,1.5c-2.247.375-4.12,1.5-6.18,2.435-4.682,2.06-9.552,3.933-14.608,4.495-.187,0-.562.187-.749.187-1.311-.562-1.5,2.247-3.371,1.124-1.124-.749-2.809-.187-4.12-.562-4.12-1.124-8.615-1.311-12.548-3.371-2.435-1.124-5.244-1.5-7.679-2.809l-3.371-1.686c-.936-.375-1.5-1.5-3-.936-.749.375-1.5-.749-2.247-1.311-1.686-1.5-3-3.558-5.244-4.308-.187,0-.375-.375-.375-.562-.375-2.06-2.06-3.184-2.809-4.869-.562-1.124-1.124-.562-1.873-.187-2.247-4.308-2.435-8.99-3.184-13.672a12.671,12.671,0,0,0-1.311-5.057c-.562-.749-.936-1.873-2.06-2.06a.5.5,0,0,1-.562-.562c0-.375.375-.749.562-.562,1.124,0,1.124-.562.936-1.311-.749-2.06.187-4.12.375-6.18a20.638,20.638,0,0,0-.375-3.371,35.1,35.1,0,0,1-.936-10.863c0-.187.187-.375.375-.562,1.311.936.562,2.247.749,3.371s0,2.435.749,3.746c.375-9.177,2.435-17.792,7.117-25.471C21.69,84.1,20.566,86.158,20,88.78a9.567,9.567,0,0,0,2.06-3,20.768,20.768,0,0,1,4.682-5.993,18.65,18.65,0,0,0,2.06-1.873,3.019,3.019,0,0,0,.749-1.311c.187-.562-1.5-.749-.562-1.5.562-.375,1.311-.375,1.873-.749,1.124-1.124,2.247-2.435,3.371-3.746a56.117,56.117,0,0,1,5.619-5.993A7.144,7.144,0,0,0,41.917,62c.187-.749,1.311-1.124,2.06-1.686,1.5-1.124,3.371-2.06,3.184-4.495,0-.749.936-1.311,1.5-1.873,3.746-3,7.3-6.368,11.612-8.99a12.9,12.9,0,0,0,2.435-2.06,7.82,7.82,0,0,1,3.933-2.435,4.163,4.163,0,0,0,2.435-1.5c2.435-3.184,5.806-4.495,9.177-6.18,2.435-1.124,5.057-1.873,7.3-3.558,2.435-1.873,5.619-2.435,8.428-3.371.375-.187,1.124-.187,1.311-.375,1.873-3,5.244-3.184,8.241-3.933a73.219,73.219,0,0,1,19.1-2.435c.749,0,1.686-.187,2.247.562-1.5.936-3.371.375-5.057,1.311,3,0,5.806-.187,8.8,0a15.761,15.761,0,0,1,11.424,5.057c3,3.184,5.057,7.117,7.3,10.863.187.187,0,.562.187.749,2.809,2.247,2.247,5.619,3.184,8.615.187,0,.187-.187.375-.375.375-.562.375-1.5,1.124-1.311.936.375.187,1.124.187,1.686a66.082,66.082,0,0,1-2.622,10.488,2.375,2.375,0,0,0-.187,1.124c.749,3.933.375,4.495-1.686,7.491-1.124,1.873-2.435,3.746-2.622,6.18a1.4,1.4,0,0,1-.187.936c-1.686,1.873-2.622,4.495-4.682,5.993-2.247,1.686-4.495,3.558-6.742,5.431-.749.749-1.686,1.311-1.873,2.435a2.989,2.989,0,0,0-1.686,1.311c.562-.375,1.686-.375,1.686-1.5,1.124.187,1.686-1.311,3-1.124-1.124,1.686-2.809,2.622-4.12,3.933a45.052,45.052,0,0,0-8.428,10.3,22.912,22.912,0,0,0-1.873,4.495c-.749,2.809-1.686,5.431-2.435,8.241-1.124,4.682-3.184,8.99-5.057,13.3-.375.936-.936,1.873-1.311,3a6.349,6.349,0,0,1-1.686,2.622,22.542,22.542,0,0,0-2.809,4.495,5.312,5.312,0,0,1-1.5,2.06,1.568,1.568,0,0,0-.562,2.247c.936,1.5-.749,1.873-.936,2.622,0-.187.187-.375.187-.562,0-.375-.187-.936-.562-.936s-.375.375-.562.749C102.6,142.719,103.721,141.969,104.1,142.344Zm-52.44,3.933c.749-.375,1.5.375,2.622,0a12.132,12.132,0,0,1-2.622,0c0-.187,0-.375-.187-.375-3.371-1.124-6.742-1.873-10.488-2.809a7.149,7.149,0,0,0,5.431,2.622C48.1,145.715,49.783,146.09,51.656,146.277Zm90.647-73.6c2.06-1.873,2.435-4.495,3.371-7.491-3,2.435-4.495,5.431-7.679,7.3.187-1.124,1.311-1.5,1.124-2.622-.375.187-.562.375-.936.375-2.06.749-2.06.749-2.809,3.184,0,.187-.187.375-.375.562-2.06,1.124-3.371,3-5.057,4.308a62.464,62.464,0,0,0-8.8,8.428c-.375.375-.936.936-.562,1.5.375.749,1.124.375,1.873.375.375,0,.562-.187.936-.375a36.369,36.369,0,0,1,5.806-4.869c2.622-2.06,4.682-4.682,7.679-6.18.749-.375.749-1.124.936-1.686a16.524,16.524,0,0,1,4.495-5.057c.562,1.124-.936,1.686,0,2.247-1.311,0-1.311,0-1.873,1.311C141.178,73.8,141.366,72.861,142.3,72.674ZM99.413,29.41a5.349,5.349,0,0,1-3,.187,10.605,10.605,0,0,0-3.371.562c-4.308,2.06-8.615,3.933-12.735,6.368-3.184,1.873-3.184,2.06-7.679,2.247-.187,0-.375.187-.562.187a34.06,34.06,0,0,0-4.308,2.809c.375.562,1.124-.187,1.5.562-2.247,1.5-4.495,3-6.742,4.308-.749.562-1.873.936-1.873,1.873s-.375,1.124-1.124,1.311a2.9,2.9,0,0,0-2.06,1.311c2.622-1.124,5.244-1.124,7.3-2.435a37.3,37.3,0,0,0,6.18-4.495,96.9,96.9,0,0,1,12.923-8.615c1.311-.749,2.622-1.686,4.495-1.124.375.187,1.124-.187,1.686-.375a28.3,28.3,0,0,1,6.93-2.809c.187,0,.749-.187.562-.562-.187-.187-1.311-.375,0-.749.562.187,1.5.375,1.873-.562a4.239,4.239,0,0,0,3.371-.187C101.661,29.223,100.537,29.41,99.413,29.41ZM49.97,112.94a1.815,1.815,0,0,1,1.5,1.311c.749,1.873,2.435,2.247,4.308,2.247h1.5a13.166,13.166,0,0,0,8.8-2.06c2.435-1.686,5.431-3,5.619-6.555,0-.187.187-.375.375-.562,1.311-1.686,1.124-5.244-.562-6.368a14.3,14.3,0,0,1-1.686-1.686C68.511,97.4,65.7,96.084,64.2,96.833a19.784,19.784,0,0,1-3.558,1.124c-.375.187-1.124,0-.936.936,1.686-.187,3.371.187,5.057,0,1.311-.187,2.622.562,2.622,1.686a15.124,15.124,0,0,1-1.5,6.368c0,.187-.375.375-.562.562a22.2,22.2,0,0,1-7.866,3.933,3.86,3.86,0,0,1-3.746-1.124c-.749-1.124-.749-2.247.375-3.933a12.945,12.945,0,0,1,4.682-4.308c.936-.562,1.873-.749,2.622-2.06-2.247-.187-4.12.375-6.18.375-2.435,0-3.558,1.686-4.495,3.558-1.124,2.622-.936,5.806-.749,8.99a.909.909,0,0,0-1.124-.562c-.375.187-.187.562-.187.936.187.375.375.936,1.124.749C50.157,113.877,50.157,113.315,49.97,112.94Zm22.1,18.916h0c0-.749.562-.562.936-.749,2.435-.749,4.869-1.686,7.3-2.435,4.682-1.124,8.428-3.746,11.986-6.742.562-.375,1.311-.749.936-2.06-19.478,1.5-38.768,5.244-58.433,6.742a10.522,10.522,0,0,0,4.495,3.746,71.141,71.141,0,0,0,8.8,3.371c2.435.749,4.869,1.686,7.491,1.5a74.451,74.451,0,0,0,18.167-2.435,17.147,17.147,0,0,0,5.806-3C76.752,130.358,74.5,131.669,72.07,131.856ZM98.1,127.361c.749.562.749.562,1.311-.562a2.8,2.8,0,0,0-1.311.562,6.211,6.211,0,0,1,2.06-3,9.108,9.108,0,0,0,2.06-2.622c.187-.562.936-1.124.562-1.873s-1.124-.187-1.873-.187h-.749a3.9,3.9,0,0,0-4.308,2.06c-.749.936-1.311,2.247-2.435,2.809-3,1.686-5.431,4.12-8.241,5.993-.375.187-.936.375-.749.936.375.375.936,0,1.124.562a12.576,12.576,0,0,1-4.308,1.873c-1.686.375-2.809,1.686-4.308,2.435-1.311.749-2.06,2.247-3.933,2.247.749-1.311,2.247-1.5,3-3a8.189,8.189,0,0,0-4.869,1.124,8.907,8.907,0,0,1-4.308,1.311,40.571,40.571,0,0,1-6.742-.187c-1.5-.187-3.184.187-4.682-.375.562-.562,1.311-.375,1.686-.562-3.746-.936-7.491-.562-11.05-1.873a2.784,2.784,0,0,0-1.124-.187c-1.124.562-1.873-.187-2.809-.562a8.794,8.794,0,0,1-1.686-1.124c-2.622-1.124-4.308-3.933-7.491-3.746a1.244,1.244,0,0,1-.936-.749c-.562-1.5-1.5-1.686-3-1.5a5.092,5.092,0,0,1-1.686,0c-.562,0-1.311,0-.936-.936.187-.375,0-.562-.375-.562-.562-.187-.936-.375-1.5-.562s-1.124-.749-1.5-.187c-.562.562.187,1.124.562,1.5a108.41,108.41,0,0,0,8.99,9.552,20.549,20.549,0,0,0,10.488,5.619c1.5.375,2.809.749,4.308,1.124,5.993,1.873,11.986,3.184,18.167,2.622a50,50,0,0,0,14.8-3.371,9.565,9.565,0,0,0,4.12-2.809A21.617,21.617,0,0,1,79,140.284a24.762,24.762,0,0,0-9.552,3,3.918,3.918,0,0,1-2.622.562c1.124-1.124,2.622-.936,3.184-2.247-3.371,0-6.368.936-9.364,1.686a5.349,5.349,0,0,1-3,.187c-4.308-1.5-8.615-3.184-12.735-4.495a23.74,23.74,0,0,1-4.308-2.247,8.111,8.111,0,0,0,.936-.187c5.057,2.247,10.3,3.371,15.357,5.431a4.387,4.387,0,0,0,3.746.187,52.094,52.094,0,0,1,11.986-2.247,8.78,8.78,0,0,0,3.933-1.124c3.184-1.686,6.555-3.558,9.739-5.244,2.06-1.124,3.933-2.06,5.993-3-2.06,2.06-4.495,3.184-6.742,4.495s-4.869,2.247-7.117,3.933c.749.375,1.124,0,1.5,0,1.5,0,2.809-1.311,4.308-1.124a3.383,3.383,0,0,0,2.809-.749,65.169,65.169,0,0,0,8.241-7.866C96.417,128.672,97.166,127.923,98.1,127.361ZM52.217,119.5h0c.187-1.124,0-1.124-.749-1.5a4.031,4.031,0,0,0-1.5,0c-4.869.187-9.926.375-14.8.187a28.951,28.951,0,0,0-5.806.749c1.124,2.435,1.124,2.435,3.184,2.247.562,0,1.311-.187,1.686.187.936.936,2.06.562,3,.375,3.184-.562,6.368-1.311,9.552-1.873a2.268,2.268,0,0,1,1.873.187c-2.06.562-4.12.562-5.993,1.5,4.682,0,9.177-.749,13.672-1.124,4.682-.375,9.364-.749,14.046-1.311,4.495-.562,8.99-.187,14.046-1.5-1.873-.749-3.184-.187-4.308-.187.562-.749,1.311-.562,2.06-.749,3.746-.187,7.679.187,11.424-.562a3.227,3.227,0,0,0,2.622-1.5c2.247-3.933,4.682-7.679,7.117-11.612,2.06-3.371,4.495-6.742,5.993-10.488.187-.749.936-1.5.375-2.06-.375-.562-1.311-.375-2.06-.375-3.371.562-6.93.562-10.3.936-4.869.562-9.739.562-14.608,1.311A94.7,94.7,0,0,1,70.01,94.024a11.516,11.516,0,0,0-2.06.562,4.094,4.094,0,0,0,.562.936,4.966,4.966,0,0,0,1.124.936,9.758,9.758,0,0,1,4.308,8.8c0,.936-.749,2.06.187,3,.187.187,0,.749-.187,1.124a7.063,7.063,0,0,1-2.247,3L67.2,115.749c-1.873,1.311-4.12,1.5-6.18,2.435-.562.187-1.311-.375-2.06,0-.187.187-.187-.187-.187-.375,0-.936-.187-.936-.749-.562A11.782,11.782,0,0,1,52.217,119.5Zm71.543-53.189c-1.311-.562-2.435,0-3.558.187-3,.187-5.993.187-8.99,1.311a25.677,25.677,0,0,1-6.555,1.5l-15.17,1.124c-7.491.562-14.8,1.311-22.1,2.435-7.117,1.124-14.421,1.311-21.538,2.809A5.571,5.571,0,0,0,42.1,77.918a92.181,92.181,0,0,0-6.93,10.488,8.565,8.565,0,0,0-1.686,3.746,64.059,64.059,0,0,0,11.986,0c2.622-.187,5.244.187,7.679-.936,1.686-.749,3.371-.562,5.057-1.124a1.616,1.616,0,0,1,1.873.749c-.562,1.873-2.247,1.686-3.558,2.247a2.6,2.6,0,0,0,1.686,0c5.993-1.311,12.361-1.5,18.354-2.247,5.806-.749,11.8-1.124,17.792-1.686,3.746-.375,7.491-.749,11.05-1.124,1.311-.187,2.435-.562,3.746,0,1.5.562,2.809-.375,2.622-2.247a7.852,7.852,0,0,1,.749-3,27.918,27.918,0,0,1,2.809-3.746c.375-.375,1.124-.936.936-1.5-.562-1.311.375-1.873.936-2.622,1.311-1.873,2.809-3.558,4.308-5.431A16.572,16.572,0,0,0,123.761,66.306Zm-76.6,4.12a11.084,11.084,0,0,0,3.558-.187c2.809-.375,5.806-.936,8.615-1.311,7.117-.936,14.234-1.311,21.351-2.435,3.933-.562,7.866-1.311,11.8-1.873,3.184-.562,6.368-.749,9.552-1.311,7.3-1.124,14.608-2.247,21.725-3.371a3.081,3.081,0,0,1,1.873.187c2.247.749,3.371.375,4.682-1.5,2.06-2.809,4.12-5.806,5.993-8.8a2.117,2.117,0,0,0,.375-2.06,28.915,28.915,0,0,0-.936-5.806c-.562-2.06-.562-1.873-2.809-1.686-5.619.562-11.237,2.247-16.668,3.184-9.364,1.5-18.729,3.558-28.28,5.431-3.184.562-6.368,1.311-9.552,1.873-.562.187-1.311.562-1.873-.562-.187-.562-2.809.187-2.622.562.375.562.936.936-.187,1.124-3.746.749-7.3,2.06-11.05,2.622a6.731,6.731,0,0,0-3.371,1.311c-2.622,1.686-4.495,4.12-6.93,5.993-.187.187-.749.749-.187.936,1.311.562.375,1.124,0,1.686-1.124,1.124-2.435,2.247-3.558,3.558A5.378,5.378,0,0,0,47.161,70.426Zm6.368,85.4c.375.187.375.375.375.749,0,1.124.187,2.435,1.5,3s2.622,1.124,3.933-.187c.375-.375,1.311-.375,1.873-.375,2.06,0,4.12-.187,6.18-.187a2.034,2.034,0,0,1,1.686.749c.562.749,1.124.375,1.311-.562,0-.375-.187-.749.749-.936,0,1.873,1.311,1.5,2.622,1.686,1.873.187,1.311-1.5,2.06-2.247.187.187.375.375.375.562.375.562.187,1.686,1.311,1.311.936-.187,2.247-.375,2.247-1.5,0-1.5,1.124-2.06,1.873-2.622,2.809-1.873,5.244-4.12,8.053-6.18,1.124-.749,1.873-1.873,3-2.622a4.954,4.954,0,0,0,2.622-3.184c.187-.562.375-1.124,1.124-1.124,2.435.187,3.933-1.311,5.244-2.809,1.873-2.06,2.622-4.495,3.933-6.742a61.839,61.839,0,0,0,3.371-5.993c.375-1.124.749-2.06,0-3.184a1.168,1.168,0,0,0-.936.562,74.207,74.207,0,0,1-20.6,19.1c-3.558,2.247-7.117,4.682-11.8,3.933a.688.688,0,0,0-.562.187c-1.686,1.311-3.933.936-5.806,1.5-1.5.375-3,1.686-4.495-.187-.187-.187-.562,0-.749,0-4.682.187-9.364-.936-14.046-1.311a32.637,32.637,0,0,1-11.237-3.371c-1.124-.562-1.873-1.5-3-1.686-.187-1.686-1.5-1.686-2.809-1.873a4.475,4.475,0,0,1-2.435-1.311.654.654,0,0,1-.375.187c-.187.375.375.749,0,1.124-1.124-.562-1.5-1.873-2.622-2.06-.375,2.809.375,4.12,2.622,4.869.375.187.749.187.749.562.187,1.124,2.06,1.5.936,3-.375.562,1.873,1.873,2.622,1.311s.936,0,.936.375c.187,1.124.936,2.06.936,3.371a4,4,0,0,0,1.5,3.184c.749.562,1.311,1.686,2.247.936.749-.562,0-1.5-.375-2.247-1.124-2.622-1.124-5.244-1.124-8.053.562,2.06,1.124,3.933,1.5,5.993.375,1.5,1.124,2.247,3,2.247a10.783,10.783,0,0,1-.375-4.869c.187,1.686,1.311,3.184,1.311,4.869a1.9,1.9,0,0,0,1.124,1.686c2.435.936,4.869,2.247,7.491,2.809C53.341,157.327,52.779,156.39,53.528,155.829ZM120.015,32.594a12.652,12.652,0,0,1,7.866.936c1.686.749,3,2.06,4.869,2.06a4.23,4.23,0,0,0-1.5-2.06c-4.308-4.495-9.739-5.244-15.357-4.495a14.022,14.022,0,0,1-3.933.375,18.868,18.868,0,0,0-4.682.562c-7.3,1.873-14.046,5.244-20.976,8.053l-1.124.562c-3,1.873-5.806,3.746-8.8,5.431-.562.375-1.311.562-1.5,1.686a22.891,22.891,0,0,1,6.18-.375c2.06,0,4.12,0,5.993-1.311a1.126,1.126,0,0,1,.749-.187c4.308-.187,8.241-1.873,12.361-2.622,2.809-.562,5.431-1.686,8.428-.936h.936a44.031,44.031,0,0,1,9.926-1.686c2.622-.187,5.244-.936,7.866-1.311a9.159,9.159,0,0,0,3.558-.936A17.391,17.391,0,0,0,120.015,32.594Zm-64.8,63.677c-4.495.749-8.8.749-12.923,2.247a6.655,6.655,0,0,1-1.873.375c-2.809-.375-5.431.749-8.053.936a1.889,1.889,0,0,0-2.06,1.686c-.375,1.124-.749,2.247-2.06,2.809-.749.187-.749,1.124-.749,1.686-.187,2.247-.375,4.495-.375,6.742a13.432,13.432,0,0,0,1.311,4.682c.187.749.749.749,1.311.749,5.806-.936,11.612,0,17.6-.187a2.228,2.228,0,0,0,2.06-.749c-.936-1.311-2.247-2.622-2.809-4.308-.187-.562-.562-1.311,0-1.873a2.571,2.571,0,0,0,.749-2.435,5.711,5.711,0,0,1,.562-3,20.506,20.506,0,0,1,5.244-6.742C53.528,97.957,54.465,97.77,55.214,96.272Zm81.657-32.026a4.335,4.335,0,0,0-3.184.375,5.982,5.982,0,0,1-3.558.562c-1.311-.187-2.06.562-3,1.311-1.311,1.311-2.06,3-3.184,4.308-1.311,1.5-2.809,3-4.12,4.682-.936,1.124-1.873,2.247-1.124,3.746a1.946,1.946,0,0,1-.375,2.435c-1.311,2.06-2.622,4.12-4.12,6.18,2.622.375,2.809.375,3.371-1.686a6.655,6.655,0,0,1,2.06-3,81.461,81.461,0,0,0,7.117-6.742c2.06-2.247,3.933-4.682,5.806-7.117C134.061,67.617,135.372,66.119,136.871,64.246Zm-3-5.431a14.605,14.605,0,0,1,4.12.562,3.473,3.473,0,0,0,3.746-1.311c1.686-1.873,2.247-4.308,3.558-6.555a1.4,1.4,0,0,0,.187-.936,102.853,102.853,0,0,0-.936-13.11c-.187-1.5-.562-1.686-1.873-.936a5.929,5.929,0,0,0-2.247,1.5c-.936,1.124-1.124,1.873.187,2.622,1.5.749,1.311,1.873.562,2.809a15.144,15.144,0,0,0-1.5,4.682,29.727,29.727,0,0,1-1.311,3.746A33.807,33.807,0,0,1,133.874,58.814Zm-32.026,58.059c1.311,0,2.622.187,3-1.124,1.124-3,2.809-5.619,3.746-8.428.562-1.5,1.873-3,1.5-4.495a4.764,4.764,0,0,1,.562-2.809c.562-1.124,1.124-2.06,1.686-3a21.928,21.928,0,0,0,3-6.368c-3-.375-3-.375-4.12,1.873l-.562,1.124a168.562,168.562,0,0,1-7.491,17.043,20.426,20.426,0,0,1-1.124,2.06c-.375.562-1.5.936-.936,2.06.562.936,1.311-.562,1.873,0C103.159,115.749,101.661,115.749,101.848,116.873ZM124.51,27.912c1.311.562,2.06.749,2.809,1.124.187,0,.749.187.749-.375,0-1.5.749-.936,1.311-.375.936.749,2.06,1.686,3,2.435,1.5,1.124,2.247,2.809,4.12,3.558,2.06.936,3.933.187,5.993.187.749,0,1.124-.562.749-1.5-.749-1.686-2.247-3-3.184-4.682-.187-.375-.375-.562-.749-.375-1.311.562-2.247-.375-3.184-1.124a7.374,7.374,0,0,0-5.619-1.5C128.256,25.665,126.57,26.788,124.51,27.912Zm-100.2,73.042H22.626a1.2,1.2,0,0,0-1.311.936c-.562,3.371-1.873,6.742-.187,10.488.749,1.686,1.5,3.558,2.247,5.431a17.178,17.178,0,0,0,2.435,3.933c.562.936,1.5.749,2.247.375.936-.375.187-1.124,0-1.686-1.124-2.247-3.371-4.12-2.809-7.117v-.187c-1.5-1.311-.562-2.809-.187-4.308.375-2.06,1.124-3.933,1.5-5.993C26.372,100.954,26.185,100.766,24.312,100.954Zm97.951-9.926a4.788,4.788,0,0,0-2.809,0c-.562.187-1.124.375-.936.936.375,2.06-1.311,3.371-2.247,4.682a34.849,34.849,0,0,0-4.495,10.113,34.556,34.556,0,0,1-2.247,7.491c-.187.562-.562,1.124.375,1.311.562.187,1.311.187,1.5-.749a5.092,5.092,0,0,0,0-1.686c0-.562.187-1.124.749-.936,1.686,0,1.686-1.124,1.873-2.247,0-.936-.187-1.873-.187-2.809,0-.562.187-1.311.749-1.311,1.686,0,1.686-1.311,2.06-2.247.562-1.5.749-3.184,1.686-4.682.749-1.311,0-3,.749-4.308S121.513,92.526,122.262,91.028Zm-85.59-13.3c-2.809-.187-4.495.187-5.806,1.686A46.224,46.224,0,0,0,23.75,91.964c0,.187-.187.562-.187.749,0,.749.187,1.311,1.124.936a2.662,2.662,0,0,1,1.124-.375c1.686,0,2.247-1.124,2.809-2.435.187-.187.375-.749,0-.562-1.686.187-.562-.749-.375-1.124,1.873-2.435,3.746-4.869,5.619-7.491C34.8,80.165,36.111,79.229,36.673,77.73ZM53.154,59.564c-.187-.187-.187-.375-.375-.375-.936.375-1.686,1.311-2.622,1.311-2.06-.187-2.809,1.311-4.12,2.247-.936.936-1.686,2.06-3.184,2.435a2.518,2.518,0,0,0-1.311,1.124c-1.311,1.686-2.622,3.558-4.12,5.244-.375.375-.749.936-.375,1.5.375.375.936.187,1.311,0A13.517,13.517,0,0,0,43.789,69.3c1.686-1.686,2.809-3.933,4.682-5.619C50.157,62.186,51.656,60.875,53.154,59.564ZM128.817,23.23a16.215,16.215,0,0,0-5.993-.375c-.562,0-1.311.375-1.311,0-.375-1.5-1.124-.749-1.873-.562l-4.495.562c-3.184.562-6.555,1.124-9.552,2.809C108.029,26.039,126.2,24.166,128.817,23.23Zm-109,90.272A14.172,14.172,0,0,0,20,120.993c.375.936.562,2.06,1.5,2.435.749.375,1.311-.749,2.247-.749,1.124,0,1.124-.562.749-1.5a43.327,43.327,0,0,1-3.371-6.555C20.753,114.251,20.566,113.689,19.817,113.5Zm90.834,9.177c.749-1.5,1.686-2.435,1.5-3.933,0-.749.187-1.686-.936-1.686-.936-.187-2.247-.375-2.622.562-.749,1.311-1.686,2.622-1.686,4.308.749,0,.936-.562,1.311-.749C109.714,119.87,110.276,120.244,110.651,122.679ZM45.1,93.088a62.109,62.109,0,0,0-11.8.187c-.375,0-.562.187-.936.375s-.375.562-.187.936a.359.359,0,0,0,.562.187c1.311,0,2.435-.375,3.558-.375C39.295,94.024,42.291,93.65,45.1,93.088ZM101.286,23.6c2.247-.375,4.308-.936,6.555-1.311,2.06-.375,4.308,0,6.368-1.5C111.587,20.046,105.032,21.919,101.286,23.6Zm1.124,85.4c-3.558,2.809-4.495,4.12-4.495,6.555C99.6,113.5,101.661,111.816,102.41,109.007ZM23.75,133.542c.562,1.686,0,3.933,2.247,5.057C26.372,136.351,26.185,134.478,23.75,133.542Zm8.428,14.8c0,2.247.375,2.809,2.622,3.746C35.174,150.023,34.8,149.648,32.178,148.337ZM132,58.253c3.371-2.435,4.869-4.495,4.495-6.93C134.811,53.758,133.5,56.005,132,58.253ZM23.937,95.9c.936,0,2.06.187,2.809-.562.375-.375.562-.749.375-1.124-.187-.562-.749-.375-1.124-.375a8.023,8.023,0,0,0-3,.936c-.187.187-.562.562-.375.936.187.187.375.375.562.375A1.416,1.416,0,0,1,23.937,95.9ZM130.128,63.5c1.311.187,2.809.375,3.933-.375,1.124-.936,2.622,0,4.12-.749C135.747,61.436,131.627,62.186,130.128,63.5ZM81.247,130.545c-2.06,1.124-3.933,2.247-6.18,3.371C77.688,134.1,78.625,133.729,81.247,130.545ZM135.56,80.352l-.375-.375c-.936.749-2.06,1.311-3,2.06a5.048,5.048,0,0,0-1.311,1.5.359.359,0,0,0,.187.562.654.654,0,0,1,.375.187A20.521,20.521,0,0,0,135.56,80.352ZM20,94.773c1.686-1.873,2.247-4.495,3.371-6.742C21.315,89.717,20.753,92.339,20,94.773Zm-1.686,13.859c-.936,1.873-.562,3.558,0,5.431A5.159,5.159,0,0,0,18.319,108.632ZM144.737,63.309c.562.187,1.124.187,1.311-.187a6.985,6.985,0,0,0,.936-4.495C145.3,60.125,145.3,61.811,144.737,63.309ZM68.511,161.634c-3.933,0-3.933,0-4.682.749C66.451,162.758,66.638,162.758,68.511,161.634ZM46.973,60.5c1.5-1.311,2.809-2.435,4.682-3.933C48.846,57.129,48.1,59,46.973,60.5Zm30.34-14.234a9.1,9.1,0,0,0-5.431.936A13.292,13.292,0,0,0,77.314,46.266ZM58.772,162.758a5.768,5.768,0,0,0,3,.375.885.885,0,0,0,.936-.936c0-.749-.562-.562-1.124-.375C60.833,162.2,59.709,161.822,58.772,162.758Zm79.222-115.93c.375,0,.562-.375.749-.749a1.974,1.974,0,0,0,0-2.247c0-.187-.562-.187-.749,0-.749.562-.562,1.311-.562,2.06C137.62,46.079,137.433,46.453,137.994,46.828Zm-67.61,99.636a8,8,0,0,0,5.431-1.124C73.943,145.153,72.07,146.09,70.384,146.464Zm57.5-58.621c.749-.936,2.06-1.311,1.686-2.809C127.319,85.784,127.319,85.971,127.881,87.844Zm-67.61,48.882c1.5.749,2.809.187,4.12-.375A5.234,5.234,0,0,0,60.271,136.725Zm2.809-32.588a1.424,1.424,0,0,0,1.124-1.5.836.836,0,0,0-.749-.562c-.562,0-1.5.187-1.5,1.124C61.956,103.763,62.331,103.95,63.08,104.138Zm23.6,48.507a8.041,8.041,0,0,0,3.558-2.622A7.13,7.13,0,0,0,86.678,152.645ZM146.61,48.326c.749-1.5.936-2.622-.375-3.558A4.908,4.908,0,0,0,146.61,48.326ZM26.934,143.655c.187-1.311,0-2.435-1.5-2.809C25.061,142.344,26.372,142.719,26.934,143.655Zm14.421,10.863a.988.988,0,0,0,.187,1.311,1.553,1.553,0,0,0,1.5.562.4.4,0,0,0,.375-.375c0-.749-.562-.936-1.124-1.124C42.1,154.892,41.917,154.7,41.355,154.518ZM148.67,50.2c-.749.936-1.124,2.06.187,3.184C149.419,52.259,149.044,51.323,148.67,50.2ZM92.3,148.524a1.467,1.467,0,0,0,1.873-1.311c0-.187,0-.562-.375-.562-.749,0-1.124.749-1.686,1.311A.688.688,0,0,1,92.3,148.524ZM60.645,104.512c-.375-.187-.562-.375-.936-.187-.749.187-.749.749-.749,1.311,0,.187.187.562.375.562.562.187.936-.375,1.124-.749A1.688,1.688,0,0,1,60.645,104.512Zm52.627,12.361c.749-1.124,1.5-2.06,1.124-3.558C113.46,114.438,112.9,115.375,113.273,116.873Zm27.344-50.567c1.311-.749,1.873-1.311,1.686-2.809C141.74,64.433,140.8,64.62,140.616,66.306Zm1.124-3.558c.562-.936,1.873-1.5,1.5-3.184C142.677,60.875,141.553,61.436,141.74,62.747ZM119.266,86.158a8.359,8.359,0,0,0,2.435-2.622C119.828,84.1,119.64,85.222,119.266,86.158Zm-76.413,8.99c.749-.375,1.686,0,2.435-.749C44.539,94.773,43.6,94.024,42.853,95.148Zm41.016,48.694a2.514,2.514,0,0,0-2.809,1.311A3.661,3.661,0,0,0,83.869,143.842ZM68.137,69.864a3.125,3.125,0,0,0,3.371-.562A5.4,5.4,0,0,0,68.137,69.864Zm-2.622,76.787a4.173,4.173,0,0,0,2.622,0Zm1.311,13.11a5.7,5.7,0,0,0-3.558,0A5.7,5.7,0,0,0,66.826,159.762Zm-13.485,1.124a1.7,1.7,0,0,0-1.5-.749.359.359,0,0,0-.187.562,1.52,1.52,0,0,0,1.5.749C53.341,161.447,53.528,161.26,53.341,160.885ZM19.255,102.452c-.936,1.124-.749,1.686-.187,2.435A2.8,2.8,0,0,0,19.255,102.452Zm86.713,16.856c-.562.562-1.311.936-1.124,1.873,0,.187.375.187.375.187A1.3,1.3,0,0,0,105.969,119.308ZM28.245,95.335a1.676,1.676,0,0,0,.936-2.06C28.432,93.837,27.87,94.4,28.245,95.335Zm88.212-13.11c.562-.562,1.5-.749,1.311-1.873A1.95,1.95,0,0,0,116.457,82.225ZM48.1,159.762c.749.375,1.124.749,1.873.562C49.6,159.574,49.034,159.387,48.1,159.762Zm73.416-65.925c-.936.749-1.686.936-1.311,1.873C121.139,95.522,121.139,94.961,121.513,93.837Zm18.729-17.979c-.936.562-1.686.749-2.06,1.873C138.931,77.356,139.68,77.356,140.242,75.857ZM22.626,97.4c.562-.187,1.311.375,1.686-.375C23.75,96.833,23.188,96.646,22.626,97.4ZM95.48,145.341c-.187.562-.562.749-.562,1.124a.844.844,0,0,0,.562.562c.375-.187.749-.375.562-.749C96.042,145.9,95.668,145.715,95.48,145.341Zm-64.988,1.686a1.03,1.03,0,0,0-.936-.562l-.187.375c.375.187.562.562.936.749A.688.688,0,0,1,30.492,147.026Zm-2.247-3.371c.375,1.124.936,1.5,1.873,1.311A2.369,2.369,0,0,0,28.245,143.655Zm55.624-95.7c.749.187,1.124.375,1.5-.187,0,0,0-.375-.187-.375A1.1,1.1,0,0,0,83.869,47.952ZM48.846,92.713c-.375-.187-.936-.375-1.311,0C47.91,93.088,48.284,92.713,48.846,92.713Zm-20.976,39.7-.375-.375c-.187,0-.375,0-.187.187,0,.187.187.187.375.375S27.87,132.605,27.87,132.418ZM54.652,52.634a.5.5,0,0,0-.562.562.654.654,0,0,0,.375.187c.187-.187.562-.375.749-.562C55.214,52.634,54.839,52.634,54.652,52.634Zm83.342-12.923a.654.654,0,0,0-.375.187c0,.375.187.562.562.749a.654.654,0,0,0,.375-.187C138.556,40.086,138.369,39.711,137.994,39.711ZM56.15,161.073c-.187-.187-.187-.375-.375-.375a1.887,1.887,0,0,0-.562.187c-.187.375.187.375.375.375C55.776,161.447,56.15,161.447,56.15,161.073Z" transform="translate(561 7767.438)" fill="#cf8fab"/><path d="M39.661,19.195c2.435-1.124,3.184-2.622,2.809-5.057-.375-1.873.749-3.558,1.5-5.057.749-1.311,1.873-2.06,2.809-3.184.562-.749,1.311-1.124,1.686-2.247-3.184,0-5.057,2.06-6.555,4.308-1.686,2.247-1.311,5.057-1.5,7.491-1.124,0-1.124-.562-1.124-1.124A13.3,13.3,0,0,1,42.1,6.085a25.7,25.7,0,0,1,3.371-3,2.312,2.312,0,0,1,1.5-.749,42.237,42.237,0,0,1,4.869,0c.187.936-.562.936-1.124,1.5-.375.375-1.311.562-.749,1.5.187.187.187.562-.187.562-3.184,0-4.12,2.809-5.431,4.869-.187.187-.187.562-.375.936-.187.749-.187,1.311.375,1.686s1.124-.187,1.5-.562a37.977,37.977,0,0,0,2.435-3.371,1.87,1.87,0,0,1,.749-.936c.187-.375.562-.749.936-.375s0,.562-.187.749c-.749,1.124-1.686,2.247-2.435,3.371-.187.187-.375.562-.562.749-1.311,1.686-2.06,3.371-.562,5.619a11.341,11.341,0,0,1,.936,7.866,3.653,3.653,0,0,0,.187,2.435,4.42,4.42,0,0,1-.187,4.308c-1.5,3-3.933,5.431-5.993,8.053-.936,1.124-2.809,2.06-2.06,4.12-.749.936-.936-.187-1.5-.375,0,.187-.187.187-.187.375-.187.562.936,1.311.187,1.686-.936.562-1.5-.187-1.873-.936,0-.187-.187-.187-.375-.375-.936.749-2.435,1.124-1.873,2.809,0,.187,0,.562-.375.562s-.562-.187-.749-.562a1.11,1.11,0,0,1,.187-1.311c.562-.562,1.124-1.5,1.873-1.873,2.809-1.686,3.933-4.682,5.806-7.3a3.651,3.651,0,0,0,.187-1.5A73.455,73.455,0,0,0,39.1,23.877a6.018,6.018,0,0,1,.562-4.682Zm4.308-1.686A7.838,7.838,0,0,0,40.6,22a3.379,3.379,0,0,0,1.311,3.746,6.655,6.655,0,0,0,3.746,1.5C46.778,23.689,45.467,20.693,43.969,17.509Zm-3,9.364c-.187,3,.375,5.619.749,8.615,1.5-.562,1.311-1.873,1.873-2.809,1.873-3.746,1.873-3.746-1.873-5.806Zm4.12,6.93a2.144,2.144,0,0,0,1.124-2.435A2.042,2.042,0,0,0,45.093,33.8Z" transform="translate(578.051 7752.745)" fill="#cf8fab"/><path d="M29.145,56.313c-2.435,1.686-5.057,1.5-7.3,2.247,0,1.311.749,2.06,1.5,3a4.966,4.966,0,0,1,.936,1.124c.187.375.562.749,0,1.124-.375.187-.562,0-.936-.187a12.9,12.9,0,0,1-2.06-2.435c-.749-1.311-1.311-2.809-3-3.558a1.488,1.488,0,0,1-.187-2.247,19.836,19.836,0,0,0,1.873-2.247,18.821,18.821,0,0,0,4.308-11.986A9.186,9.186,0,0,0,22.4,36.273,10.811,10.811,0,0,1,20.718,31.4a2.151,2.151,0,0,0-1.124-2.06,2.868,2.868,0,0,1-.936-1.311c-.936-1.5-.936-2.435.562-3.371a37.431,37.431,0,0,1,3.933-1.873c.375-.187.749,0,.749.375.187.375-.187.562-.375.749l-2.247,1.124a2.518,2.518,0,0,0-1.124,1.311,1.512,1.512,0,0,0,.749,1.686c.749.375.936-.187,1.311-.749.936-1.124,1.686-2.435,2.809-3.558.375-.375.749-.936,1.311-1.124.562-.375,1.311-.749,1.686,0a1.143,1.143,0,0,1-.562,1.686c-.375.187-.562.562-.936.749-2.247.749-3,2.622-3.746,4.682-.187.375,0,.749,0,1.124.936,2.247,1.686,4.495,2.622,6.742a1.42,1.42,0,0,0,.375.749c1.124,1.873,2.06,1.873,3.371.187a19,19,0,0,1,1.686-2.435c.187-.375.562-.375,1.124-.187a11.042,11.042,0,0,1-2.247,4.12c-.562.749-1.124,1.311-1.124,2.06.187,2.622-1.311,4.308-2.809,6.18-.936,1.311-1.873,2.435-3,3.746a6.1,6.1,0,0,0-1.5,3.558c-.187,1.686,0,1.873,1.5,1.686,1.124-.187,2.06-.375,3.184-.562A6.012,6.012,0,0,1,29.145,56.313Z" transform="translate(565.343 7770.126)" fill="#cf8fab"/><path d="M54.453,19.6c-.562,5.057-3.933,7.866-7.117,11.612.187-1.686,1.311-2.435,1.873-3.371,1.686-2.435,3.558-4.869,3.933-8.241a10.586,10.586,0,0,0,0-2.435c-.187-.562-.187-1.124-.375-1.686-.187-1.124,1.124-6.368,1.873-7.117.562-.562,1.5-1.124,1.873-.936,1.686.936,2.809-.375,3.933-1.124a1.808,1.808,0,0,1,1.5-.375c0,1.5-1.5,1.311-2.247,2.06s-1.873,1.5-2.622,2.247-1.873,1.311-2.247,2.809c.749,0,.936-.375,1.311-.936,1.311-1.686,3.184-2.809,4.869-4.12a.618.618,0,0,1,.936,0c.187.375,0,.562-.187.936a1.87,1.87,0,0,1-.936.749c-.749.187-1.124.749-1.686,1.124-3.371,3-3.558,4.12-.749,7.679a4.966,4.966,0,0,1,.936,1.124c1.124,1.686,1.124,3-.187,4.495-.562.562-.936,1.311-1.873,1.5-.187-.936.749-1.311.936-2.06.749-1.686.749-2.622-.375-4.12-.749-.936-1.686-2.06-2.435-3-.187-.375-.375-.749-.936-.375-.375.187-.375.749-.187,1.124.562,1.124,1.311,2.06,1.873,3.184.936,1.5.749,2.809-.375,4.308a55.88,55.88,0,0,1-6.368,6.93c-.936.749-2.247,1.311-1.5,3,.187.187-.187.562-.375.375A1.027,1.027,0,0,1,46.4,34.2a3.7,3.7,0,0,1,1.124-2.247c.936-1.124,2.247-2.06,3.184-3.184a41.158,41.158,0,0,0,3.746-4.308C56.139,22.78,55.952,21.656,54.453,19.6Zm.562-9.739h.375c.375-.375.936-.375.936-.936a.654.654,0,0,0-.375-.187,1.03,1.03,0,0,0-.936.562A.351.351,0,0,1,55.015,9.857Z" transform="translate(590.415 7755.902)" fill="#cf8fab"/><path d="M23.89,24.8c-.375-1.311.375-1.873.562-2.622.187-.562.749-1.124.749-1.5-.187-1.5-.187-2.435,1.686-2.435.375,0,.749-1.124.936-1.873s-.562-.749-.936-1.124c-.936-.562-2.435-.749-1.686-2.435.187-.562-.562-.749-.749-.936a3.813,3.813,0,0,1,.936-6.18c.187-.187.375-.375.749,0a7.268,7.268,0,0,0-1.124,2.06c-.187.562-.936,1.311-.375,2.06a2.5,2.5,0,0,0,3,.375c.375-.187.562-.562.936-.936a.9.9,0,0,1,.375,1.124c-.936,1.311-.562,2.06.749,2.622.375,0,.562.375.562.936C30.071,15.814,29.7,17.687,28.2,19a12.3,12.3,0,0,0-2.247,3.184A12.605,12.605,0,0,1,23.89,24.8Z" transform="translate(570.224 7755.563)" fill="#cf8fab"/><path d="M27.053,7.634c-.936-.187-.936-.749-1.311-1.124a1.788,1.788,0,0,1,.749-3c.562-.187,1.5.562,1.124,1.124C27.053,5.574,27.241,6.7,27.053,7.634Z" transform="translate(571.93 7753.817)" fill="#cf8fab"/><path d="M36.67,12.7c-.562-.749-1.124-1.5-.562-2.435.187-.375.187-.562.562-.562s.375.375.562.562A2.84,2.84,0,0,1,36.67,12.7Z" transform="translate(581.229 7759.243)" fill="#cf8fab"/><path d="M34.847,72.865a3.091,3.091,0,0,1-2.247,0,1.974,1.974,0,0,1,2.247,0Z" transform="translate(578.37 7814.068)" fill="#cf8fab"/><path d="M54.9,89.7c-.562.936-1.5,1.124-2.247,1.686-1.311.749-2.809.936-3.558,2.435-.187.375-.936,1.5-1.873.375-.375-.375-.936,0-1.311.187a4.764,4.764,0,0,1-2.809.562A66.574,66.574,0,0,1,54.9,89.7Z" transform="translate(587.535 7829.072)" fill="#cf8fab"/><path d="M46.408,79.341A11.289,11.289,0,0,1,42.1,80.465c1.873-1.311,2.247-1.311,4.308-1.124Z" transform="translate(586.662 7819.953)" fill="#cf8fab"/><path d="M43.075,68.222a4.033,4.033,0,0,1-.375-2.06.5.5,0,0,1,.562-.562.844.844,0,0,1,.562.562,1.7,1.7,0,0,1-.749,2.06Z" transform="translate(587.186 7808.036)" fill="#cf8fab"/><path d="M43.336,66.9c.375.936-.187,1.5-.936,1.873a2.98,2.98,0,0,1,.936-1.873Z" transform="translate(586.924 7809.17)" fill="#cf8fab"/></g></svg>