<svg xmlns="http://www.w3.org/2000/svg" width="20" height="35" viewBox="0 0 20 35">
  <g transform="translate(-942.063 -866.174)">
    <path d="M10,1a9.01,9.01,0,0,0-9,9V25a9,9,0,0,0,18,0V10a9.01,9.01,0,0,0-9-9m0-1A10,10,0,0,1,20,10V25A10,10,0,0,1,0,25V10A10,10,0,0,1,10,0Z" transform="translate(942.063 866.174)" fill="#707070"/>
    <path d="M3.5,1A2.5,2.5,0,1,0,6,3.5,2.5,2.5,0,0,0,3.5,1m0-1A3.5,3.5,0,1,1,0,3.5,3.5,3.5,0,0,1,3.5,0Z" transform="translate(949.063 873.174)" fill="#707070"/>
  </g>
</svg>
