<svg xmlns="http://www.w3.org/2000/svg" width="41.74" height="44.703" viewBox="0 0 41.74 44.703">
  <g transform="translate(-1806.982 -27)">
    <path id="Контур_315" data-name="Контур 315" d="M4.38,13.8a.97.97,0,0,0-.138.01.952.952,0,0,0-.812,1.077l3.9,26.6a.957.957,0,0,0,.95.814H35.839a.957.957,0,0,0,.952-.827l3.52-26.6a.913.913,0,0,0,.008-.123.955.955,0,0,0-.96-.95Zm0-1.9H39.359a2.848,2.848,0,0,1,2.856,3.22l-3.52,26.6a2.87,2.87,0,0,1-2.856,2.48H8.281a2.871,2.871,0,0,1-2.85-2.441l-3.9-26.6a2.855,2.855,0,0,1,2.437-3.23A2.91,2.91,0,0,1,4.38,11.9Zm10.957,4.75h-1.92V5.25A4.775,4.775,0,0,1,18.218.5H25.9a4.775,4.775,0,0,1,4.8,4.75v11.4h-1.92V5.25A2.865,2.865,0,0,0,25.9,2.4h-7.68a2.865,2.865,0,0,0-2.88,2.85Zm-.96,2.85a.95.95,0,1,0-.96-.95A.955.955,0,0,0,14.378,19.5Zm0,1.9a2.85,2.85,0,1,1,2.88-2.85A2.865,2.865,0,0,1,14.378,21.4Zm15.361-1.9a.95.95,0,1,0-.96-.95A.955.955,0,0,0,29.739,19.5Zm0,1.9a2.85,2.85,0,1,1,2.88-2.85A2.865,2.865,0,0,1,29.739,21.4Z" transform="translate(1805.982 27)" fill="#ffffff"/>
    <path id="Контур_315_-_Рамка" data-name="Контур 315 - Рамка" d="M18.218,0H25.9a5.281,5.281,0,0,1,5.3,5.25V11.4h8.161a3.348,3.348,0,0,1,3.352,3.785l-3.52,26.6A3.379,3.379,0,0,1,35.839,44.7H8.281a3.4,3.4,0,0,1-2.21-.815,3.343,3.343,0,0,1-1.135-2.053l-3.9-26.6a3.307,3.307,0,0,1,.628-2.474A3.362,3.362,0,0,1,3.9,11.435,3.422,3.422,0,0,1,4.38,11.4h8.537V5.25A5.281,5.281,0,0,1,18.218,0ZM30.2,11.4V5.25A4.28,4.28,0,0,0,25.9,1h-7.68a4.28,4.28,0,0,0-4.3,4.25V11.4h.92V5.25a3.369,3.369,0,0,1,3.38-3.35H25.9a3.369,3.369,0,0,1,3.38,3.35V11.4Zm-1.92,0V5.25A2.368,2.368,0,0,0,25.9,2.9h-7.68a2.368,2.368,0,0,0-2.38,2.35V11.4Zm-15.361,1H4.38a2.419,2.419,0,0,0-.343.024,2.369,2.369,0,0,0-1.573.931,2.314,2.314,0,0,0-.44,1.731l3.9,26.6A2.383,2.383,0,0,0,8.281,43.7H35.839a2.376,2.376,0,0,0,2.36-2.046l3.52-26.6a2.349,2.349,0,0,0-2.36-2.655H31.2v.9h8.161a1.457,1.457,0,0,1,1.46,1.45,1.419,1.419,0,0,1-.013.191l-3.52,26.6A1.461,1.461,0,0,1,35.839,42.8H8.281a1.465,1.465,0,0,1-1.445-1.241l-3.9-26.6a1.433,1.433,0,0,1,.272-1.073,1.452,1.452,0,0,1,.964-.571A1.475,1.475,0,0,1,4.38,13.3h8.537Zm1.92,0h-.92v.9h.92Zm13.441,0H15.838v.9H28.279Zm1.92,0h-.92v.9h.92ZM12.918,14.3H4.38a.471.471,0,0,0-.067,0,.458.458,0,0,0-.3.18.44.44,0,0,0-.084.329l3.9,26.6a.459.459,0,0,0,.455.386H35.839a.458.458,0,0,0,.456-.392l3.52-26.6a.423.423,0,0,0,0-.058.456.456,0,0,0-.46-.45H31.2v1.228a3.38,3.38,0,1,1-2.92,0V14.3H15.838v1.228a3.38,3.38,0,1,1-2.92,0Zm1.92,0h-.92v.931a3.459,3.459,0,0,1,.92,0Zm15.361,0h-.92v.931a3.459,3.459,0,0,1,.92,0ZM14.378,20.9a2.345,2.345,0,0,0,1.46-4.207v.456h-1.08a1.46,1.46,0,1,1-.761,0h-1.08v-.456a2.345,2.345,0,0,0,1.46,4.207Zm14.98-3.75h-1.08v-.456a2.38,2.38,0,1,0,2.92,0v.456h-1.08a1.46,1.46,0,1,1-.761,0ZM14.378,19a.45.45,0,1,0-.46-.45A.456.456,0,0,0,14.378,19Zm15.361,0a.45.45,0,1,0-.46-.45A.456.456,0,0,0,29.739,19Z" transform="translate(1805.982 27)" fill="#ffffff"/>
  </g>
</svg>
