<svg xmlns="http://www.w3.org/2000/svg" width="616" height="784" viewBox="0 0 616 784">
  <g  transform="translate(-620.5 -6535.746)">
    <g transform="translate(620.5 6535.746)">
      <path d="M925,1101h28v-28H869l-56-28-28-84-84-56V821l84-28h28V737H785l-56-18.676V681H701v28H645l-56,28H561v28H505V737H477v28H421V905l28,56h28l28-56h28l56,28,28,84,112,112,112,56,84,84v56H897v28H701v56l84,28,56,28h28v-56l28-28h28l28-28h28v-28h28v-56H981l-28-28,28-56,28,28v28h28v-56Z" transform="translate(-421 -681)" fill="#cf8fab"/>
      <path d="M451,725H423V893h28l28-28h28V697H479Z" transform="translate(-367 -249)" fill="#cf8fab"/>
    </g>
    <circle cx="12.5" cy="12.5" r="12.5" transform="translate(1099 6997)" fill="#fff"/>
    <path  d="M12.5,1A11.5,11.5,0,0,0,4.368,20.632,11.5,11.5,0,0,0,20.632,4.368,11.425,11.425,0,0,0,12.5,1m0-1A12.5,12.5,0,1,1,0,12.5,12.5,12.5,0,0,1,12.5,0Z" transform="translate(1099 6997)" fill="#707070"/>
    <circle cx="12.5" cy="12.5" r="12.5" transform="translate(920 6893)" fill="#fff"/>
    <path d="M12.5,1A11.5,11.5,0,0,0,4.368,20.632,11.5,11.5,0,0,0,20.632,4.368,11.425,11.425,0,0,0,12.5,1m0-1A12.5,12.5,0,1,1,0,12.5,12.5,12.5,0,0,1,12.5,0Z" transform="translate(920 6893)" fill="#707070"/>
    <circle cx="12.5" cy="12.5" r="12.5" transform="translate(736 6737)" fill="#fff"/>
    <path d="M12.5,1A11.5,11.5,0,0,0,4.368,20.632,11.5,11.5,0,0,0,20.632,4.368,11.425,11.425,0,0,0,12.5,1m0-1A12.5,12.5,0,1,1,0,12.5,12.5,12.5,0,0,1,12.5,0Z" transform="translate(736 6737)" fill="#707070"/>
    <circle cx="12.5" cy="12.5" r="12.5" transform="translate(1001 7268)" fill="#fff"/>
    <path d="M12.5,1A11.5,11.5,0,0,0,4.368,20.632,11.5,11.5,0,0,0,20.632,4.368,11.425,11.425,0,0,0,12.5,1m0-1A12.5,12.5,0,1,1,0,12.5,12.5,12.5,0,0,1,12.5,0Z" transform="translate(1001 7268)" fill="#707070"/>
  </g>
</svg>
